%TF.GenerationSoftware,KiCad,Pcbnew,9.0.7*%
%TF.CreationDate,2026-04-02T12:18:53-05:00*%
%TF.ProjectId,WindTurbineController,57696e64-5475-4726-9269-6e65436f6e74,rev?*%
%TF.SameCoordinates,Original*%
%TF.FileFunction,Copper,L2,Inr*%
%TF.FilePolarity,Positive*%
%FSLAX46Y46*%
G04 Gerber Fmt 4.6, Leading zero omitted, Abs format (unit mm)*
G04 Created by KiCad (PCBNEW 9.0.7) date 2026-04-02 12:18:53*
%MOMM*%
%LPD*%
G01*
G04 APERTURE LIST*
%TA.AperFunction,ComponentPad*%
%ADD10R,1.700000X1.700000*%
%TD*%
%TA.AperFunction,ComponentPad*%
%ADD11C,1.700000*%
%TD*%
%TA.AperFunction,ViaPad*%
%ADD12C,0.800000*%
%TD*%
%TA.AperFunction,Conductor*%
%ADD13C,0.250000*%
%TD*%
G04 APERTURE END LIST*
D10*
%TO.N,Net-(IC1-OUT2)*%
%TO.C,J1*%
X101900000Y-68500000D03*
D11*
%TO.N,Net-(IC1-OUT1)*%
X99360000Y-68500000D03*
%TD*%
D10*
%TO.N,Net-(IC2-OUT2)*%
%TO.C,J2*%
X95275000Y-68500000D03*
D11*
%TO.N,Net-(IC2-OUT1)*%
X92735000Y-68500000D03*
%TD*%
D10*
%TO.N,/~D11*%
%TO.C,J3*%
X64970000Y-68500000D03*
D11*
%TO.N,/~D10*%
X67510000Y-68500000D03*
%TO.N,/D14*%
X70050000Y-68500000D03*
%TO.N,/D15*%
X72590000Y-68500000D03*
%TO.N,/D16*%
X75130000Y-68500000D03*
%TO.N,/D17*%
X77670000Y-68500000D03*
%TO.N,/SDA*%
X80210000Y-68500000D03*
%TO.N,/SCL*%
X82750000Y-68500000D03*
%TO.N,+5V*%
X85290000Y-68500000D03*
%TO.N,GND*%
X87830000Y-68500000D03*
%TD*%
D12*
%TO.N,+5V*%
X100600000Y-84000000D03*
%TO.N,Net-(IC2-OUT1)*%
X93279300Y-83378500D03*
%TO.N,Net-(IC2-OUT2)*%
X96015000Y-84316700D03*
%TO.N,Net-(IC1-OUT1)*%
X100336200Y-77328200D03*
%TO.N,/HS_N*%
X71867500Y-70340900D03*
X107693800Y-70402300D03*
%TO.N,/HS_S*%
X69758100Y-74250000D03*
X111100000Y-70700000D03*
%TO.N,/M0_SLEEP*%
X98761300Y-74477500D03*
%TO.N,/M0_EN1*%
X86730400Y-73751600D03*
X83964500Y-88595500D03*
%TO.N,/M0_EN0*%
X103400000Y-71900000D03*
%TO.N,+3V3*%
X74276600Y-80763800D03*
X74276600Y-78011600D03*
%TO.N,/SCL*%
X84465800Y-81100000D03*
%TO.N,/SDA*%
X77977700Y-76890300D03*
%TO.N,+5V*%
X89100000Y-79700000D03*
X89500000Y-74900000D03*
%TO.N,GND*%
X61464000Y-81174100D03*
X104508800Y-80311500D03*
X108510500Y-86876700D03*
X84873100Y-77729100D03*
X63175500Y-77985100D03*
X108263000Y-83966700D03*
X100023800Y-82303200D03*
X88954300Y-81705000D03*
X111681300Y-74175000D03*
X101353800Y-74993200D03*
X107496000Y-82020000D03*
%TD*%
D13*
%TO.N,Net-(IC2-OUT2)*%
X95700000Y-84001700D02*
X96015000Y-84316700D01*
X95700000Y-68925000D02*
X95700000Y-84001700D01*
X95275000Y-68500000D02*
X95700000Y-68925000D01*
%TO.N,Net-(IC2-OUT1)*%
X93279300Y-69044300D02*
X92735000Y-68500000D01*
X93279300Y-83378500D02*
X93279300Y-69044300D01*
%TO.N,Net-(IC1-OUT1)*%
X100336200Y-69476200D02*
X99360000Y-68500000D01*
X100336200Y-77328200D02*
X100336200Y-69476200D01*
%TO.N,/M0_EN1*%
X86730400Y-85829600D02*
X86730400Y-73751600D01*
X83964500Y-88595500D02*
X86730400Y-85829600D01*
%TO.N,+3V3*%
X74276600Y-80763800D02*
X74276600Y-78011600D01*
%TO.N,/SCL*%
X82750000Y-79384200D02*
X82750000Y-68500000D01*
X84465800Y-81100000D02*
X82750000Y-79384200D01*
%TD*%
%TA.AperFunction,Conductor*%
%TO.N,GND*%
G36*
X103942539Y-66020185D02*
G01*
X103988294Y-66072989D01*
X103999500Y-66124500D01*
X103999500Y-68901459D01*
X103999500Y-69098541D01*
X103999500Y-69098543D01*
X103999499Y-69098543D01*
X104037947Y-69291829D01*
X104037950Y-69291839D01*
X104113364Y-69473907D01*
X104113371Y-69473920D01*
X104222860Y-69637781D01*
X104222863Y-69637785D01*
X104362214Y-69777136D01*
X104362218Y-69777139D01*
X104526079Y-69886628D01*
X104526092Y-69886635D01*
X104708160Y-69962049D01*
X104708165Y-69962051D01*
X104708169Y-69962051D01*
X104708170Y-69962052D01*
X104901456Y-70000500D01*
X104901459Y-70000500D01*
X106696330Y-70000500D01*
X106763369Y-70020185D01*
X106809124Y-70072989D01*
X106819068Y-70142147D01*
X106817947Y-70148691D01*
X106785300Y-70312817D01*
X106785300Y-70491783D01*
X106820211Y-70667292D01*
X106820213Y-70667300D01*
X106888696Y-70832632D01*
X106888701Y-70832642D01*
X106988121Y-70981434D01*
X106988124Y-70981438D01*
X107114661Y-71107975D01*
X107114665Y-71107978D01*
X107263457Y-71207398D01*
X107263461Y-71207400D01*
X107263464Y-71207402D01*
X107428800Y-71275887D01*
X107551363Y-71300266D01*
X107604316Y-71310799D01*
X107604320Y-71310800D01*
X107604321Y-71310800D01*
X107783280Y-71310800D01*
X107783281Y-71310799D01*
X107958800Y-71275887D01*
X108124136Y-71207402D01*
X108272935Y-71107978D01*
X108399478Y-70981435D01*
X108498902Y-70832636D01*
X108567387Y-70667300D01*
X108602300Y-70491779D01*
X108602300Y-70312821D01*
X108569653Y-70148691D01*
X108575880Y-70079100D01*
X108618743Y-70023922D01*
X108684633Y-70000678D01*
X108691270Y-70000500D01*
X110242759Y-70000500D01*
X110309798Y-70020185D01*
X110355553Y-70072989D01*
X110365497Y-70142147D01*
X110345861Y-70193390D01*
X110294904Y-70269652D01*
X110294896Y-70269667D01*
X110226413Y-70434999D01*
X110226411Y-70435007D01*
X110191500Y-70610516D01*
X110191500Y-70789483D01*
X110226411Y-70964992D01*
X110226413Y-70965000D01*
X110294896Y-71130332D01*
X110294901Y-71130342D01*
X110394321Y-71279134D01*
X110394324Y-71279138D01*
X110520861Y-71405675D01*
X110520865Y-71405678D01*
X110669657Y-71505098D01*
X110669661Y-71505100D01*
X110669664Y-71505102D01*
X110835000Y-71573587D01*
X111010516Y-71608499D01*
X111010520Y-71608500D01*
X111010521Y-71608500D01*
X111189480Y-71608500D01*
X111189481Y-71608499D01*
X111365000Y-71573587D01*
X111530336Y-71505102D01*
X111679135Y-71405678D01*
X111805678Y-71279135D01*
X111905102Y-71130336D01*
X111973587Y-70965000D01*
X112008500Y-70789479D01*
X112008500Y-70610521D01*
X111973587Y-70435000D01*
X111905102Y-70269664D01*
X111905099Y-70269659D01*
X111905095Y-70269652D01*
X111854139Y-70193390D01*
X111833261Y-70126713D01*
X111851746Y-70059333D01*
X111903725Y-70012643D01*
X111957241Y-70000500D01*
X113961774Y-70000500D01*
X114028813Y-70020185D01*
X114074568Y-70072989D01*
X114084512Y-70142147D01*
X114055487Y-70205703D01*
X114000093Y-70242430D01*
X113981588Y-70248443D01*
X113981585Y-70248444D01*
X113792179Y-70344951D01*
X113620213Y-70469890D01*
X113469890Y-70620213D01*
X113344951Y-70792179D01*
X113248444Y-70981585D01*
X113182753Y-71183760D01*
X113162632Y-71310799D01*
X113149500Y-71393713D01*
X113149500Y-71606287D01*
X113149851Y-71608500D01*
X113181847Y-71810521D01*
X113182754Y-71816243D01*
X113239043Y-71989483D01*
X113248444Y-72018414D01*
X113344951Y-72207820D01*
X113469890Y-72379786D01*
X113620213Y-72530109D01*
X113792179Y-72655048D01*
X113792181Y-72655049D01*
X113792184Y-72655051D01*
X113981588Y-72751557D01*
X114183757Y-72817246D01*
X114393713Y-72850500D01*
X114393714Y-72850500D01*
X114606286Y-72850500D01*
X114606287Y-72850500D01*
X114816243Y-72817246D01*
X115018412Y-72751557D01*
X115207816Y-72655051D01*
X115233621Y-72636303D01*
X115379786Y-72530109D01*
X115379788Y-72530106D01*
X115379792Y-72530104D01*
X115530104Y-72379792D01*
X115530106Y-72379788D01*
X115530109Y-72379786D01*
X115655048Y-72207820D01*
X115655047Y-72207820D01*
X115655051Y-72207816D01*
X115751557Y-72018412D01*
X115757569Y-71999907D01*
X115797006Y-71942232D01*
X115861365Y-71915034D01*
X115930211Y-71926949D01*
X115981687Y-71974193D01*
X115999500Y-72038226D01*
X115999500Y-88875500D01*
X115979815Y-88942539D01*
X115927011Y-88988294D01*
X115875500Y-88999500D01*
X84961533Y-88999500D01*
X84944243Y-88994423D01*
X84926220Y-88994366D01*
X84911411Y-88984782D01*
X84894494Y-88979815D01*
X84882694Y-88966197D01*
X84867563Y-88956405D01*
X84860287Y-88940338D01*
X84848739Y-88927011D01*
X84846174Y-88909173D01*
X84838740Y-88892757D01*
X84839576Y-88863285D01*
X84838795Y-88857853D01*
X84838852Y-88857463D01*
X84839307Y-88854361D01*
X84873000Y-88684979D01*
X84873000Y-88625199D01*
X84874319Y-88616228D01*
X84885293Y-88592397D01*
X84892685Y-88567226D01*
X84902489Y-88555059D01*
X84903546Y-88552765D01*
X84905176Y-88551724D01*
X84909314Y-88546588D01*
X85796537Y-87659365D01*
X85857858Y-87625882D01*
X85927549Y-87630866D01*
X85983483Y-87672738D01*
X85998776Y-87699592D01*
X86006277Y-87717701D01*
X86006282Y-87717710D01*
X86116646Y-87882880D01*
X86116649Y-87882884D01*
X86257115Y-88023350D01*
X86257119Y-88023353D01*
X86422289Y-88133717D01*
X86422295Y-88133720D01*
X86422296Y-88133721D01*
X86605831Y-88209744D01*
X86798152Y-88247999D01*
X86800666Y-88248499D01*
X86800670Y-88248500D01*
X86800671Y-88248500D01*
X86999330Y-88248500D01*
X86999331Y-88248499D01*
X87194169Y-88209744D01*
X87377704Y-88133721D01*
X87378366Y-88133279D01*
X87379924Y-88132237D01*
X87542881Y-88023353D01*
X87683353Y-87882881D01*
X87793721Y-87717704D01*
X87869744Y-87534169D01*
X87908500Y-87339329D01*
X87908500Y-87140716D01*
X88432000Y-87140716D01*
X88432000Y-87339283D01*
X88470735Y-87534015D01*
X88470737Y-87534023D01*
X88546720Y-87717464D01*
X88546725Y-87717473D01*
X88657034Y-87882561D01*
X88657037Y-87882565D01*
X88797434Y-88022962D01*
X88797438Y-88022965D01*
X88962526Y-88133274D01*
X88962535Y-88133279D01*
X89145976Y-88209262D01*
X89145984Y-88209264D01*
X89340716Y-88247999D01*
X89340719Y-88248000D01*
X89539281Y-88248000D01*
X89539283Y-88247999D01*
X89734015Y-88209264D01*
X89734023Y-88209262D01*
X89917464Y-88133279D01*
X89917473Y-88133274D01*
X90082561Y-88022965D01*
X90082565Y-88022962D01*
X90222962Y-87882565D01*
X90222965Y-87882561D01*
X90333274Y-87717473D01*
X90333279Y-87717464D01*
X90409262Y-87534023D01*
X90409264Y-87534015D01*
X90447999Y-87339283D01*
X90448000Y-87339281D01*
X90448000Y-87140717D01*
X90447990Y-87140666D01*
X90971500Y-87140666D01*
X90971500Y-87339333D01*
X91010254Y-87534161D01*
X91010256Y-87534169D01*
X91086277Y-87717701D01*
X91086282Y-87717710D01*
X91196646Y-87882880D01*
X91196649Y-87882884D01*
X91337115Y-88023350D01*
X91337119Y-88023353D01*
X91502289Y-88133717D01*
X91502295Y-88133720D01*
X91502296Y-88133721D01*
X91685831Y-88209744D01*
X91878152Y-88247999D01*
X91880666Y-88248499D01*
X91880670Y-88248500D01*
X91880671Y-88248500D01*
X92079330Y-88248500D01*
X92079331Y-88248499D01*
X92274169Y-88209744D01*
X92457704Y-88133721D01*
X92458366Y-88133279D01*
X92459924Y-88132237D01*
X92622881Y-88023353D01*
X92763353Y-87882881D01*
X92873721Y-87717704D01*
X92949744Y-87534169D01*
X92988500Y-87339329D01*
X92988500Y-87140671D01*
X92988499Y-87140666D01*
X93511500Y-87140666D01*
X93511500Y-87339333D01*
X93550254Y-87534161D01*
X93550256Y-87534169D01*
X93626277Y-87717701D01*
X93626282Y-87717710D01*
X93736646Y-87882880D01*
X93736649Y-87882884D01*
X93877115Y-88023350D01*
X93877119Y-88023353D01*
X94042289Y-88133717D01*
X94042295Y-88133720D01*
X94042296Y-88133721D01*
X94225831Y-88209744D01*
X94418152Y-88247999D01*
X94420666Y-88248499D01*
X94420670Y-88248500D01*
X94420671Y-88248500D01*
X94619330Y-88248500D01*
X94619331Y-88248499D01*
X94814169Y-88209744D01*
X94997704Y-88133721D01*
X94998366Y-88133279D01*
X94999924Y-88132237D01*
X95162881Y-88023353D01*
X95303353Y-87882881D01*
X95413721Y-87717704D01*
X95489744Y-87534169D01*
X95528500Y-87339329D01*
X95528500Y-87140671D01*
X95528499Y-87140666D01*
X96051500Y-87140666D01*
X96051500Y-87339333D01*
X96090254Y-87534161D01*
X96090256Y-87534169D01*
X96166277Y-87717701D01*
X96166282Y-87717710D01*
X96276646Y-87882880D01*
X96276649Y-87882884D01*
X96417115Y-88023350D01*
X96417119Y-88023353D01*
X96582289Y-88133717D01*
X96582295Y-88133720D01*
X96582296Y-88133721D01*
X96765831Y-88209744D01*
X96958152Y-88247999D01*
X96960666Y-88248499D01*
X96960670Y-88248500D01*
X96960671Y-88248500D01*
X97159330Y-88248500D01*
X97159331Y-88248499D01*
X97354169Y-88209744D01*
X97537704Y-88133721D01*
X97538366Y-88133279D01*
X97539924Y-88132237D01*
X97702881Y-88023353D01*
X97843353Y-87882881D01*
X97953721Y-87717704D01*
X98029744Y-87534169D01*
X98068500Y-87339329D01*
X98068500Y-87140671D01*
X98029744Y-86945831D01*
X97953721Y-86762296D01*
X97953720Y-86762295D01*
X97953717Y-86762289D01*
X97843353Y-86597119D01*
X97843350Y-86597115D01*
X97702884Y-86456649D01*
X97702880Y-86456646D01*
X97537710Y-86346282D01*
X97537701Y-86346277D01*
X97354169Y-86270256D01*
X97354161Y-86270254D01*
X97159333Y-86231500D01*
X97159329Y-86231500D01*
X96960671Y-86231500D01*
X96960666Y-86231500D01*
X96765838Y-86270254D01*
X96765830Y-86270256D01*
X96582298Y-86346277D01*
X96582289Y-86346282D01*
X96417119Y-86456646D01*
X96417115Y-86456649D01*
X96276649Y-86597115D01*
X96276646Y-86597119D01*
X96166282Y-86762289D01*
X96166277Y-86762298D01*
X96090256Y-86945830D01*
X96090254Y-86945838D01*
X96051500Y-87140666D01*
X95528499Y-87140666D01*
X95489744Y-86945831D01*
X95413721Y-86762296D01*
X95413720Y-86762295D01*
X95413717Y-86762289D01*
X95303353Y-86597119D01*
X95303350Y-86597115D01*
X95162884Y-86456649D01*
X95162880Y-86456646D01*
X94997710Y-86346282D01*
X94997701Y-86346277D01*
X94814169Y-86270256D01*
X94814161Y-86270254D01*
X94619333Y-86231500D01*
X94619329Y-86231500D01*
X94420671Y-86231500D01*
X94420666Y-86231500D01*
X94225838Y-86270254D01*
X94225830Y-86270256D01*
X94042298Y-86346277D01*
X94042289Y-86346282D01*
X93877119Y-86456646D01*
X93877115Y-86456649D01*
X93736649Y-86597115D01*
X93736646Y-86597119D01*
X93626282Y-86762289D01*
X93626277Y-86762298D01*
X93550256Y-86945830D01*
X93550254Y-86945838D01*
X93511500Y-87140666D01*
X92988499Y-87140666D01*
X92949744Y-86945831D01*
X92873721Y-86762296D01*
X92873720Y-86762295D01*
X92873717Y-86762289D01*
X92763353Y-86597119D01*
X92763350Y-86597115D01*
X92622884Y-86456649D01*
X92622880Y-86456646D01*
X92457710Y-86346282D01*
X92457701Y-86346277D01*
X92274169Y-86270256D01*
X92274161Y-86270254D01*
X92079333Y-86231500D01*
X92079329Y-86231500D01*
X91880671Y-86231500D01*
X91880666Y-86231500D01*
X91685838Y-86270254D01*
X91685830Y-86270256D01*
X91502298Y-86346277D01*
X91502289Y-86346282D01*
X91337119Y-86456646D01*
X91337115Y-86456649D01*
X91196649Y-86597115D01*
X91196646Y-86597119D01*
X91086282Y-86762289D01*
X91086277Y-86762298D01*
X91010256Y-86945830D01*
X91010254Y-86945838D01*
X90971500Y-87140666D01*
X90447990Y-87140666D01*
X90409264Y-86945984D01*
X90409262Y-86945976D01*
X90333279Y-86762535D01*
X90333274Y-86762526D01*
X90222965Y-86597438D01*
X90222962Y-86597434D01*
X90082565Y-86457037D01*
X90082561Y-86457034D01*
X89917473Y-86346725D01*
X89917464Y-86346720D01*
X89734023Y-86270737D01*
X89734015Y-86270735D01*
X89539282Y-86232000D01*
X89340718Y-86232000D01*
X89145984Y-86270735D01*
X89145976Y-86270737D01*
X88962535Y-86346720D01*
X88962526Y-86346725D01*
X88797438Y-86457034D01*
X88797434Y-86457037D01*
X88657037Y-86597434D01*
X88657034Y-86597438D01*
X88546725Y-86762526D01*
X88546720Y-86762535D01*
X88470737Y-86945976D01*
X88470735Y-86945984D01*
X88432000Y-87140716D01*
X87908500Y-87140716D01*
X87908500Y-87140671D01*
X87869744Y-86945831D01*
X87793721Y-86762296D01*
X87793720Y-86762295D01*
X87793717Y-86762289D01*
X87683353Y-86597119D01*
X87683350Y-86597115D01*
X87542884Y-86456649D01*
X87542880Y-86456646D01*
X87377710Y-86346282D01*
X87377701Y-86346277D01*
X87336658Y-86329277D01*
X87282255Y-86285436D01*
X87260190Y-86219142D01*
X87277469Y-86151443D01*
X87281010Y-86145823D01*
X87291800Y-86129675D01*
X87339555Y-86014385D01*
X87363900Y-85891994D01*
X87363900Y-85767207D01*
X87363900Y-79610516D01*
X88191500Y-79610516D01*
X88191500Y-79789483D01*
X88226411Y-79964992D01*
X88226413Y-79965000D01*
X88294896Y-80130332D01*
X88294901Y-80130342D01*
X88394321Y-80279134D01*
X88394324Y-80279138D01*
X88520861Y-80405675D01*
X88520865Y-80405678D01*
X88669657Y-80505098D01*
X88669661Y-80505100D01*
X88669664Y-80505102D01*
X88835000Y-80573587D01*
X89010516Y-80608499D01*
X89010520Y-80608500D01*
X89010521Y-80608500D01*
X89189480Y-80608500D01*
X89189481Y-80608499D01*
X89365000Y-80573587D01*
X89530336Y-80505102D01*
X89679135Y-80405678D01*
X89805678Y-80279135D01*
X89905102Y-80130336D01*
X89973587Y-79965000D01*
X90008500Y-79789479D01*
X90008500Y-79610521D01*
X89973587Y-79435000D01*
X89905102Y-79269664D01*
X89905100Y-79269661D01*
X89905098Y-79269657D01*
X89805678Y-79120865D01*
X89805675Y-79120861D01*
X89679138Y-78994324D01*
X89679134Y-78994321D01*
X89530342Y-78894901D01*
X89530332Y-78894896D01*
X89365000Y-78826413D01*
X89364992Y-78826411D01*
X89189483Y-78791500D01*
X89189479Y-78791500D01*
X89010521Y-78791500D01*
X89010516Y-78791500D01*
X88835007Y-78826411D01*
X88834999Y-78826413D01*
X88669667Y-78894896D01*
X88669657Y-78894901D01*
X88520865Y-78994321D01*
X88520861Y-78994324D01*
X88394324Y-79120861D01*
X88394321Y-79120865D01*
X88294901Y-79269657D01*
X88294896Y-79269667D01*
X88226413Y-79434999D01*
X88226411Y-79435007D01*
X88191500Y-79610516D01*
X87363900Y-79610516D01*
X87363900Y-74810516D01*
X88591500Y-74810516D01*
X88591500Y-74989483D01*
X88626411Y-75164992D01*
X88626413Y-75165000D01*
X88694896Y-75330332D01*
X88694901Y-75330342D01*
X88794321Y-75479134D01*
X88794324Y-75479138D01*
X88920861Y-75605675D01*
X88920865Y-75605678D01*
X89069657Y-75705098D01*
X89069661Y-75705100D01*
X89069664Y-75705102D01*
X89235000Y-75773587D01*
X89410516Y-75808499D01*
X89410520Y-75808500D01*
X89410521Y-75808500D01*
X89589480Y-75808500D01*
X89589481Y-75808499D01*
X89765000Y-75773587D01*
X89930336Y-75705102D01*
X90079135Y-75605678D01*
X90205678Y-75479135D01*
X90305102Y-75330336D01*
X90373587Y-75165000D01*
X90408500Y-74989479D01*
X90408500Y-74810521D01*
X90373587Y-74635000D01*
X90305102Y-74469664D01*
X90305100Y-74469661D01*
X90305098Y-74469657D01*
X90205678Y-74320865D01*
X90205675Y-74320861D01*
X90079138Y-74194324D01*
X90079134Y-74194321D01*
X89930342Y-74094901D01*
X89930332Y-74094896D01*
X89765000Y-74026413D01*
X89764992Y-74026411D01*
X89589483Y-73991500D01*
X89589479Y-73991500D01*
X89410521Y-73991500D01*
X89410516Y-73991500D01*
X89235007Y-74026411D01*
X89234999Y-74026413D01*
X89069667Y-74094896D01*
X89069657Y-74094901D01*
X88920865Y-74194321D01*
X88920861Y-74194324D01*
X88794324Y-74320861D01*
X88794321Y-74320865D01*
X88694901Y-74469657D01*
X88694896Y-74469667D01*
X88626413Y-74634999D01*
X88626411Y-74635007D01*
X88591500Y-74810516D01*
X87363900Y-74810516D01*
X87363900Y-74454275D01*
X87383585Y-74387236D01*
X87400220Y-74366593D01*
X87436075Y-74330738D01*
X87436078Y-74330735D01*
X87535502Y-74181936D01*
X87603987Y-74016600D01*
X87638900Y-73841079D01*
X87638900Y-73662121D01*
X87603987Y-73486600D01*
X87535502Y-73321264D01*
X87535500Y-73321261D01*
X87535498Y-73321257D01*
X87436078Y-73172465D01*
X87436075Y-73172461D01*
X87352320Y-73088706D01*
X87318835Y-73027383D01*
X87323819Y-72957691D01*
X87365691Y-72901758D01*
X87372747Y-72897268D01*
X87372639Y-72897106D01*
X87462997Y-72836730D01*
X87542881Y-72783353D01*
X87683353Y-72642881D01*
X87793721Y-72477704D01*
X87869744Y-72294169D01*
X87908500Y-72099329D01*
X87908500Y-71900671D01*
X87908499Y-71900666D01*
X88431500Y-71900666D01*
X88431500Y-72099333D01*
X88470254Y-72294161D01*
X88470256Y-72294169D01*
X88546277Y-72477701D01*
X88546282Y-72477710D01*
X88656646Y-72642880D01*
X88656649Y-72642884D01*
X88797115Y-72783350D01*
X88797119Y-72783353D01*
X88962289Y-72893717D01*
X88962295Y-72893720D01*
X88962296Y-72893721D01*
X89145831Y-72969744D01*
X89322995Y-73004984D01*
X89340666Y-73008499D01*
X89340670Y-73008500D01*
X89340671Y-73008500D01*
X89539330Y-73008500D01*
X89539331Y-73008499D01*
X89734169Y-72969744D01*
X89917704Y-72893721D01*
X90082881Y-72783353D01*
X90223353Y-72642881D01*
X90333721Y-72477704D01*
X90409744Y-72294169D01*
X90448500Y-72099329D01*
X90448500Y-71900671D01*
X90448499Y-71900666D01*
X90971500Y-71900666D01*
X90971500Y-72099333D01*
X91010254Y-72294161D01*
X91010256Y-72294169D01*
X91086277Y-72477701D01*
X91086282Y-72477710D01*
X91196646Y-72642880D01*
X91196649Y-72642884D01*
X91337115Y-72783350D01*
X91337119Y-72783353D01*
X91502289Y-72893717D01*
X91502295Y-72893720D01*
X91502296Y-72893721D01*
X91685831Y-72969744D01*
X91862995Y-73004984D01*
X91880666Y-73008499D01*
X91880670Y-73008500D01*
X91880671Y-73008500D01*
X92079330Y-73008500D01*
X92079331Y-73008499D01*
X92274169Y-72969744D01*
X92457704Y-72893721D01*
X92457708Y-72893717D01*
X92463079Y-72890848D01*
X92464419Y-72893356D01*
X92519399Y-72876050D01*
X92586807Y-72894433D01*
X92633576Y-72946341D01*
X92645800Y-73000027D01*
X92645800Y-82675824D01*
X92626115Y-82742863D01*
X92609481Y-82763505D01*
X92573624Y-82799361D01*
X92573621Y-82799365D01*
X92474201Y-82948157D01*
X92474196Y-82948167D01*
X92405713Y-83113499D01*
X92405711Y-83113507D01*
X92370800Y-83289016D01*
X92370800Y-83467983D01*
X92405711Y-83643492D01*
X92405713Y-83643500D01*
X92474196Y-83808832D01*
X92474201Y-83808842D01*
X92573621Y-83957634D01*
X92573624Y-83957638D01*
X92700161Y-84084175D01*
X92700165Y-84084178D01*
X92848957Y-84183598D01*
X92848961Y-84183600D01*
X92848964Y-84183602D01*
X93014300Y-84252087D01*
X93189816Y-84286999D01*
X93189820Y-84287000D01*
X93189821Y-84287000D01*
X93368780Y-84287000D01*
X93368781Y-84286999D01*
X93544300Y-84252087D01*
X93709636Y-84183602D01*
X93858435Y-84084178D01*
X93984978Y-83957635D01*
X94084402Y-83808836D01*
X94152887Y-83643500D01*
X94187800Y-83467979D01*
X94187800Y-83289021D01*
X94152887Y-83113500D01*
X94084402Y-82948164D01*
X94084400Y-82948161D01*
X94084398Y-82948157D01*
X93984978Y-82799365D01*
X93984975Y-82799361D01*
X93949119Y-82763505D01*
X93915634Y-82702182D01*
X93912800Y-82675824D01*
X93912800Y-73025120D01*
X93932485Y-72958081D01*
X93985289Y-72912326D01*
X94054447Y-72902382D01*
X94084253Y-72910559D01*
X94225976Y-72969262D01*
X94225984Y-72969264D01*
X94420716Y-73007999D01*
X94420719Y-73008000D01*
X94619281Y-73008000D01*
X94619283Y-73007999D01*
X94814015Y-72969264D01*
X94814023Y-72969262D01*
X94895047Y-72935701D01*
X94964516Y-72928232D01*
X95026995Y-72959507D01*
X95062648Y-73019595D01*
X95066500Y-73050262D01*
X95066500Y-84064098D01*
X95090843Y-84186477D01*
X95090845Y-84186485D01*
X95097061Y-84201491D01*
X95106500Y-84248944D01*
X95106500Y-84406183D01*
X95141411Y-84581692D01*
X95141413Y-84581700D01*
X95209896Y-84747032D01*
X95209901Y-84747042D01*
X95309321Y-84895834D01*
X95309324Y-84895838D01*
X95435861Y-85022375D01*
X95435865Y-85022378D01*
X95584657Y-85121798D01*
X95584661Y-85121800D01*
X95584664Y-85121802D01*
X95750000Y-85190287D01*
X95925516Y-85225199D01*
X95925520Y-85225200D01*
X95925521Y-85225200D01*
X96104480Y-85225200D01*
X96104481Y-85225199D01*
X96280000Y-85190287D01*
X96445336Y-85121802D01*
X96594135Y-85022378D01*
X96720678Y-84895835D01*
X96820102Y-84747036D01*
X96888587Y-84581700D01*
X96923500Y-84406179D01*
X96923500Y-84227221D01*
X96888587Y-84051700D01*
X96849624Y-83957635D01*
X96847241Y-83951882D01*
X96830106Y-83910516D01*
X99691500Y-83910516D01*
X99691500Y-84089483D01*
X99726411Y-84264992D01*
X99726413Y-84265000D01*
X99794896Y-84430332D01*
X99794901Y-84430342D01*
X99894321Y-84579134D01*
X99894324Y-84579138D01*
X100020861Y-84705675D01*
X100020865Y-84705678D01*
X100169657Y-84805098D01*
X100169661Y-84805100D01*
X100169664Y-84805102D01*
X100335000Y-84873587D01*
X100510516Y-84908499D01*
X100510520Y-84908500D01*
X100510521Y-84908500D01*
X100689480Y-84908500D01*
X100689481Y-84908499D01*
X100865000Y-84873587D01*
X101030336Y-84805102D01*
X101179135Y-84705678D01*
X101305678Y-84579135D01*
X101405102Y-84430336D01*
X101473587Y-84265000D01*
X101508500Y-84089479D01*
X101508500Y-83910521D01*
X101473587Y-83735000D01*
X101405102Y-83569664D01*
X101405100Y-83569661D01*
X101405098Y-83569657D01*
X101305678Y-83420865D01*
X101305675Y-83420861D01*
X101179138Y-83294324D01*
X101179134Y-83294321D01*
X101030342Y-83194901D01*
X101030332Y-83194896D01*
X100865000Y-83126413D01*
X100864992Y-83126411D01*
X100689483Y-83091500D01*
X100689479Y-83091500D01*
X100510521Y-83091500D01*
X100510516Y-83091500D01*
X100335007Y-83126411D01*
X100334999Y-83126413D01*
X100169667Y-83194896D01*
X100169657Y-83194901D01*
X100020865Y-83294321D01*
X100020861Y-83294324D01*
X99894324Y-83420861D01*
X99894321Y-83420865D01*
X99794901Y-83569657D01*
X99794896Y-83569667D01*
X99726413Y-83734999D01*
X99726411Y-83735007D01*
X99691500Y-83910516D01*
X96830106Y-83910516D01*
X96820103Y-83886367D01*
X96820102Y-83886364D01*
X96820100Y-83886361D01*
X96820098Y-83886357D01*
X96720678Y-83737565D01*
X96720675Y-83737561D01*
X96594138Y-83611024D01*
X96594134Y-83611021D01*
X96445342Y-83511601D01*
X96445327Y-83511593D01*
X96410046Y-83496979D01*
X96355643Y-83453138D01*
X96333579Y-83386843D01*
X96333500Y-83382419D01*
X96333500Y-74388016D01*
X97852800Y-74388016D01*
X97852800Y-74566983D01*
X97887711Y-74742492D01*
X97887713Y-74742500D01*
X97956196Y-74907832D01*
X97956201Y-74907842D01*
X98055621Y-75056634D01*
X98055624Y-75056638D01*
X98182161Y-75183175D01*
X98182165Y-75183178D01*
X98330957Y-75282598D01*
X98330961Y-75282600D01*
X98330964Y-75282602D01*
X98496300Y-75351087D01*
X98671816Y-75385999D01*
X98671820Y-75386000D01*
X98671821Y-75386000D01*
X98850780Y-75386000D01*
X98850781Y-75385999D01*
X99026300Y-75351087D01*
X99191636Y-75282602D01*
X99340435Y-75183178D01*
X99466978Y-75056635D01*
X99475597Y-75043734D01*
X99529208Y-74998930D01*
X99598533Y-74990221D01*
X99661561Y-75020375D01*
X99698281Y-75079817D01*
X99702700Y-75112625D01*
X99702700Y-76625524D01*
X99683015Y-76692563D01*
X99666381Y-76713205D01*
X99630524Y-76749061D01*
X99630521Y-76749065D01*
X99531101Y-76897857D01*
X99531096Y-76897867D01*
X99462613Y-77063199D01*
X99462611Y-77063207D01*
X99427700Y-77238716D01*
X99427700Y-77417683D01*
X99462611Y-77593192D01*
X99462613Y-77593200D01*
X99531096Y-77758532D01*
X99531101Y-77758542D01*
X99630521Y-77907334D01*
X99630524Y-77907338D01*
X99757061Y-78033875D01*
X99757065Y-78033878D01*
X99905857Y-78133298D01*
X99905861Y-78133300D01*
X99905864Y-78133302D01*
X100071200Y-78201787D01*
X100246716Y-78236699D01*
X100246720Y-78236700D01*
X100246721Y-78236700D01*
X100425680Y-78236700D01*
X100425681Y-78236699D01*
X100601200Y-78201787D01*
X100766536Y-78133302D01*
X100915335Y-78033878D01*
X101041878Y-77907335D01*
X101141302Y-77758536D01*
X101209787Y-77593200D01*
X101244700Y-77417679D01*
X101244700Y-77238721D01*
X101209787Y-77063200D01*
X101141302Y-76897864D01*
X101141300Y-76897861D01*
X101141298Y-76897857D01*
X101041878Y-76749065D01*
X101041875Y-76749061D01*
X101006019Y-76713205D01*
X100972534Y-76651882D01*
X100969700Y-76625524D01*
X100969700Y-71810516D01*
X102491500Y-71810516D01*
X102491500Y-71989483D01*
X102526411Y-72164992D01*
X102526413Y-72165000D01*
X102594896Y-72330332D01*
X102594901Y-72330342D01*
X102694321Y-72479134D01*
X102694324Y-72479138D01*
X102820861Y-72605675D01*
X102820865Y-72605678D01*
X102969657Y-72705098D01*
X102969661Y-72705100D01*
X102969664Y-72705102D01*
X103135000Y-72773587D01*
X103310516Y-72808499D01*
X103310520Y-72808500D01*
X103310521Y-72808500D01*
X103489480Y-72808500D01*
X103489481Y-72808499D01*
X103665000Y-72773587D01*
X103830336Y-72705102D01*
X103979135Y-72605678D01*
X104105678Y-72479135D01*
X104205102Y-72330336D01*
X104273587Y-72165000D01*
X104308500Y-71989479D01*
X104308500Y-71810521D01*
X104273587Y-71635000D01*
X104205102Y-71469664D01*
X104205100Y-71469661D01*
X104205098Y-71469657D01*
X104105678Y-71320865D01*
X104105675Y-71320861D01*
X103979138Y-71194324D01*
X103979134Y-71194321D01*
X103830342Y-71094901D01*
X103830332Y-71094896D01*
X103665000Y-71026413D01*
X103664992Y-71026411D01*
X103489483Y-70991500D01*
X103489479Y-70991500D01*
X103310521Y-70991500D01*
X103310516Y-70991500D01*
X103135007Y-71026411D01*
X103134999Y-71026413D01*
X102969667Y-71094896D01*
X102969657Y-71094901D01*
X102820865Y-71194321D01*
X102820861Y-71194324D01*
X102694324Y-71320861D01*
X102694321Y-71320865D01*
X102594901Y-71469657D01*
X102594896Y-71469667D01*
X102526413Y-71634999D01*
X102526411Y-71635007D01*
X102491500Y-71810516D01*
X100969700Y-71810516D01*
X100969700Y-69982500D01*
X100989385Y-69915461D01*
X101042189Y-69869706D01*
X101093700Y-69858500D01*
X102798638Y-69858500D01*
X102798654Y-69858499D01*
X102825692Y-69855591D01*
X102859201Y-69851989D01*
X102996204Y-69800889D01*
X103113261Y-69713261D01*
X103200889Y-69596204D01*
X103251989Y-69459201D01*
X103255591Y-69425692D01*
X103258499Y-69398654D01*
X103258500Y-69398637D01*
X103258500Y-67601362D01*
X103258499Y-67601345D01*
X103253580Y-67555600D01*
X103251989Y-67540799D01*
X103245956Y-67524625D01*
X103223267Y-67463793D01*
X103200889Y-67403796D01*
X103113261Y-67286739D01*
X102996204Y-67199111D01*
X102955039Y-67183757D01*
X102859203Y-67148011D01*
X102798654Y-67141500D01*
X102798638Y-67141500D01*
X101001362Y-67141500D01*
X101001345Y-67141500D01*
X100940797Y-67148011D01*
X100940795Y-67148011D01*
X100803795Y-67199111D01*
X100686739Y-67286739D01*
X100599111Y-67403795D01*
X100554043Y-67524625D01*
X100512171Y-67580558D01*
X100446707Y-67604974D01*
X100378434Y-67590122D01*
X100350181Y-67568971D01*
X100245006Y-67463796D01*
X100245004Y-67463794D01*
X100072009Y-67338106D01*
X99881483Y-67241027D01*
X99881480Y-67241026D01*
X99678117Y-67174951D01*
X99572516Y-67158225D01*
X99466916Y-67141500D01*
X99253084Y-67141500D01*
X99182684Y-67152650D01*
X99041882Y-67174951D01*
X98838519Y-67241026D01*
X98838516Y-67241027D01*
X98647990Y-67338106D01*
X98474993Y-67463796D01*
X98323796Y-67614993D01*
X98198106Y-67787990D01*
X98101027Y-67978516D01*
X98101026Y-67978519D01*
X98034951Y-68181882D01*
X98001500Y-68393084D01*
X98001500Y-68606915D01*
X98034951Y-68818117D01*
X98101026Y-69021480D01*
X98101027Y-69021483D01*
X98184824Y-69185942D01*
X98198106Y-69212009D01*
X98323794Y-69385004D01*
X98474996Y-69536206D01*
X98647991Y-69661894D01*
X98726499Y-69701896D01*
X98838516Y-69758972D01*
X98838519Y-69758973D01*
X98939913Y-69791917D01*
X99041884Y-69825049D01*
X99253084Y-69858500D01*
X99253085Y-69858500D01*
X99466915Y-69858500D01*
X99466916Y-69858500D01*
X99559303Y-69843867D01*
X99628595Y-69852821D01*
X99682047Y-69897817D01*
X99702687Y-69964569D01*
X99702700Y-69966340D01*
X99702700Y-73842374D01*
X99683015Y-73909413D01*
X99630211Y-73955168D01*
X99561053Y-73965112D01*
X99497497Y-73936087D01*
X99475598Y-73911265D01*
X99466978Y-73898365D01*
X99466975Y-73898361D01*
X99340438Y-73771824D01*
X99340434Y-73771821D01*
X99191642Y-73672401D01*
X99191632Y-73672396D01*
X99026300Y-73603913D01*
X99026292Y-73603911D01*
X98850783Y-73569000D01*
X98850779Y-73569000D01*
X98671821Y-73569000D01*
X98671816Y-73569000D01*
X98496307Y-73603911D01*
X98496299Y-73603913D01*
X98330967Y-73672396D01*
X98330957Y-73672401D01*
X98182165Y-73771821D01*
X98182161Y-73771824D01*
X98055624Y-73898361D01*
X98055621Y-73898365D01*
X97956201Y-74047157D01*
X97956196Y-74047167D01*
X97887713Y-74212499D01*
X97887711Y-74212507D01*
X97852800Y-74388016D01*
X96333500Y-74388016D01*
X96333500Y-72959468D01*
X96353185Y-72892429D01*
X96405989Y-72846674D01*
X96475147Y-72836730D01*
X96526392Y-72856367D01*
X96582287Y-72893716D01*
X96582295Y-72893720D01*
X96582296Y-72893721D01*
X96765831Y-72969744D01*
X96942995Y-73004984D01*
X96960666Y-73008499D01*
X96960670Y-73008500D01*
X96960671Y-73008500D01*
X97159330Y-73008500D01*
X97159331Y-73008499D01*
X97354169Y-72969744D01*
X97537704Y-72893721D01*
X97702881Y-72783353D01*
X97843353Y-72642881D01*
X97953721Y-72477704D01*
X98029744Y-72294169D01*
X98068500Y-72099329D01*
X98068500Y-71900671D01*
X98029744Y-71705831D01*
X97953721Y-71522296D01*
X97953720Y-71522295D01*
X97953717Y-71522289D01*
X97843353Y-71357119D01*
X97843350Y-71357115D01*
X97702884Y-71216649D01*
X97702880Y-71216646D01*
X97537710Y-71106282D01*
X97537701Y-71106277D01*
X97354169Y-71030256D01*
X97354161Y-71030254D01*
X97159333Y-70991500D01*
X97159329Y-70991500D01*
X96960671Y-70991500D01*
X96960666Y-70991500D01*
X96765838Y-71030254D01*
X96765830Y-71030256D01*
X96582298Y-71106277D01*
X96582289Y-71106282D01*
X96526391Y-71143633D01*
X96459713Y-71164511D01*
X96392333Y-71146027D01*
X96345643Y-71094048D01*
X96333500Y-71040531D01*
X96333500Y-69891184D01*
X96353185Y-69824145D01*
X96383189Y-69791917D01*
X96402934Y-69777136D01*
X96488261Y-69713261D01*
X96575889Y-69596204D01*
X96626989Y-69459201D01*
X96630591Y-69425692D01*
X96633499Y-69398654D01*
X96633500Y-69398637D01*
X96633500Y-67601362D01*
X96633499Y-67601345D01*
X96628580Y-67555600D01*
X96626989Y-67540799D01*
X96620956Y-67524625D01*
X96598267Y-67463793D01*
X96575889Y-67403796D01*
X96488261Y-67286739D01*
X96371204Y-67199111D01*
X96330039Y-67183757D01*
X96234203Y-67148011D01*
X96173654Y-67141500D01*
X96173638Y-67141500D01*
X94376362Y-67141500D01*
X94376345Y-67141500D01*
X94315797Y-67148011D01*
X94315795Y-67148011D01*
X94178795Y-67199111D01*
X94061739Y-67286739D01*
X93974111Y-67403795D01*
X93929043Y-67524625D01*
X93887171Y-67580558D01*
X93821707Y-67604974D01*
X93753434Y-67590122D01*
X93725181Y-67568971D01*
X93620006Y-67463796D01*
X93620004Y-67463794D01*
X93447009Y-67338106D01*
X93256483Y-67241027D01*
X93256480Y-67241026D01*
X93053117Y-67174951D01*
X92947516Y-67158225D01*
X92841916Y-67141500D01*
X92628084Y-67141500D01*
X92557684Y-67152650D01*
X92416882Y-67174951D01*
X92213519Y-67241026D01*
X92213516Y-67241027D01*
X92022990Y-67338106D01*
X91849993Y-67463796D01*
X91698796Y-67614993D01*
X91573106Y-67787990D01*
X91476027Y-67978516D01*
X91476026Y-67978519D01*
X91409951Y-68181882D01*
X91376500Y-68393084D01*
X91376500Y-68606915D01*
X91409951Y-68818117D01*
X91476026Y-69021480D01*
X91476027Y-69021483D01*
X91559824Y-69185942D01*
X91573106Y-69212009D01*
X91698794Y-69385004D01*
X91849996Y-69536206D01*
X92022991Y-69661894D01*
X92101499Y-69701896D01*
X92213516Y-69758972D01*
X92213519Y-69758973D01*
X92416883Y-69825049D01*
X92454409Y-69830992D01*
X92541198Y-69844738D01*
X92604332Y-69874667D01*
X92641264Y-69933978D01*
X92645800Y-69967211D01*
X92645800Y-70999972D01*
X92626115Y-71067011D01*
X92573311Y-71112766D01*
X92504153Y-71122710D01*
X92464035Y-71107361D01*
X92463079Y-71109152D01*
X92457701Y-71106277D01*
X92274169Y-71030256D01*
X92274161Y-71030254D01*
X92079333Y-70991500D01*
X92079329Y-70991500D01*
X91880671Y-70991500D01*
X91880666Y-70991500D01*
X91685838Y-71030254D01*
X91685830Y-71030256D01*
X91502298Y-71106277D01*
X91502289Y-71106282D01*
X91337119Y-71216646D01*
X91337115Y-71216649D01*
X91196649Y-71357115D01*
X91196646Y-71357119D01*
X91086282Y-71522289D01*
X91086277Y-71522298D01*
X91010256Y-71705830D01*
X91010254Y-71705838D01*
X90971500Y-71900666D01*
X90448499Y-71900666D01*
X90409744Y-71705831D01*
X90333721Y-71522296D01*
X90333720Y-71522295D01*
X90333717Y-71522289D01*
X90223353Y-71357119D01*
X90223350Y-71357115D01*
X90082884Y-71216649D01*
X90082880Y-71216646D01*
X89917710Y-71106282D01*
X89917701Y-71106277D01*
X89734169Y-71030256D01*
X89734161Y-71030254D01*
X89539333Y-70991500D01*
X89539329Y-70991500D01*
X89340671Y-70991500D01*
X89340666Y-70991500D01*
X89145838Y-71030254D01*
X89145830Y-71030256D01*
X88962298Y-71106277D01*
X88962289Y-71106282D01*
X88797119Y-71216646D01*
X88797115Y-71216649D01*
X88656649Y-71357115D01*
X88656646Y-71357119D01*
X88546282Y-71522289D01*
X88546277Y-71522298D01*
X88470256Y-71705830D01*
X88470254Y-71705838D01*
X88431500Y-71900666D01*
X87908499Y-71900666D01*
X87869744Y-71705831D01*
X87793721Y-71522296D01*
X87793720Y-71522295D01*
X87793717Y-71522289D01*
X87683353Y-71357119D01*
X87683350Y-71357115D01*
X87542884Y-71216649D01*
X87542880Y-71216646D01*
X87377710Y-71106282D01*
X87377701Y-71106277D01*
X87194169Y-71030256D01*
X87194161Y-71030254D01*
X86999333Y-70991500D01*
X86999329Y-70991500D01*
X86800671Y-70991500D01*
X86800666Y-70991500D01*
X86605838Y-71030254D01*
X86605830Y-71030256D01*
X86422298Y-71106277D01*
X86422289Y-71106282D01*
X86257119Y-71216646D01*
X86257115Y-71216649D01*
X86116649Y-71357115D01*
X86116646Y-71357119D01*
X86006282Y-71522289D01*
X86006277Y-71522298D01*
X85930256Y-71705830D01*
X85930254Y-71705838D01*
X85891500Y-71900666D01*
X85891500Y-72099333D01*
X85930254Y-72294161D01*
X85930256Y-72294169D01*
X86006277Y-72477701D01*
X86006282Y-72477710D01*
X86116646Y-72642880D01*
X86116649Y-72642884D01*
X86261426Y-72787661D01*
X86260505Y-72788581D01*
X86296058Y-72840772D01*
X86297931Y-72910616D01*
X86261745Y-72970386D01*
X86246952Y-72981985D01*
X86151261Y-73045924D01*
X86024724Y-73172461D01*
X86024721Y-73172465D01*
X85925301Y-73321257D01*
X85925296Y-73321267D01*
X85856813Y-73486599D01*
X85856811Y-73486607D01*
X85821900Y-73662116D01*
X85821900Y-73841083D01*
X85856811Y-74016592D01*
X85856813Y-74016600D01*
X85925296Y-74181932D01*
X85925301Y-74181942D01*
X86024721Y-74330734D01*
X86024724Y-74330738D01*
X86060580Y-74366593D01*
X86094066Y-74427915D01*
X86096900Y-74454275D01*
X86096900Y-85515834D01*
X86077215Y-85582873D01*
X86060581Y-85603515D01*
X85192846Y-86471249D01*
X85131523Y-86504734D01*
X85061831Y-86499750D01*
X85017484Y-86471249D01*
X85002884Y-86456649D01*
X85002880Y-86456646D01*
X84837710Y-86346282D01*
X84837701Y-86346277D01*
X84654169Y-86270256D01*
X84654161Y-86270254D01*
X84459333Y-86231500D01*
X84459329Y-86231500D01*
X84260671Y-86231500D01*
X84260666Y-86231500D01*
X84065838Y-86270254D01*
X84065830Y-86270256D01*
X83882298Y-86346277D01*
X83882289Y-86346282D01*
X83717119Y-86456646D01*
X83717115Y-86456649D01*
X83576649Y-86597115D01*
X83576646Y-86597119D01*
X83466282Y-86762289D01*
X83466277Y-86762298D01*
X83390256Y-86945830D01*
X83390254Y-86945838D01*
X83351500Y-87140666D01*
X83351500Y-87339333D01*
X83390254Y-87534161D01*
X83390256Y-87534169D01*
X83465634Y-87716148D01*
X83473103Y-87785618D01*
X83441828Y-87848097D01*
X83419964Y-87866703D01*
X83385365Y-87889821D01*
X83385361Y-87889824D01*
X83258824Y-88016361D01*
X83258821Y-88016365D01*
X83159401Y-88165157D01*
X83159396Y-88165167D01*
X83090913Y-88330499D01*
X83090911Y-88330507D01*
X83056000Y-88506016D01*
X83056000Y-88684983D01*
X83089084Y-88851309D01*
X83082857Y-88920901D01*
X83039993Y-88976078D01*
X82974104Y-88999322D01*
X82967467Y-88999500D01*
X58124500Y-88999500D01*
X58057461Y-88979815D01*
X58011706Y-88927011D01*
X58000500Y-88875500D01*
X58000500Y-87140666D01*
X60491500Y-87140666D01*
X60491500Y-87339333D01*
X60530254Y-87534161D01*
X60530256Y-87534169D01*
X60606277Y-87717701D01*
X60606282Y-87717710D01*
X60716646Y-87882880D01*
X60716649Y-87882884D01*
X60857115Y-88023350D01*
X60857119Y-88023353D01*
X61022289Y-88133717D01*
X61022295Y-88133720D01*
X61022296Y-88133721D01*
X61205831Y-88209744D01*
X61398152Y-88247999D01*
X61400666Y-88248499D01*
X61400670Y-88248500D01*
X61400671Y-88248500D01*
X61599330Y-88248500D01*
X61599331Y-88248499D01*
X61794169Y-88209744D01*
X61977704Y-88133721D01*
X61978366Y-88133279D01*
X61979924Y-88132237D01*
X62142881Y-88023353D01*
X62283353Y-87882881D01*
X62393721Y-87717704D01*
X62469744Y-87534169D01*
X62508500Y-87339329D01*
X62508500Y-87140671D01*
X62508499Y-87140666D01*
X63031500Y-87140666D01*
X63031500Y-87339333D01*
X63070254Y-87534161D01*
X63070256Y-87534169D01*
X63146277Y-87717701D01*
X63146282Y-87717710D01*
X63256646Y-87882880D01*
X63256649Y-87882884D01*
X63397115Y-88023350D01*
X63397119Y-88023353D01*
X63562289Y-88133717D01*
X63562295Y-88133720D01*
X63562296Y-88133721D01*
X63745831Y-88209744D01*
X63938152Y-88247999D01*
X63940666Y-88248499D01*
X63940670Y-88248500D01*
X63940671Y-88248500D01*
X64139330Y-88248500D01*
X64139331Y-88248499D01*
X64334169Y-88209744D01*
X64517704Y-88133721D01*
X64518366Y-88133279D01*
X64519924Y-88132237D01*
X64682881Y-88023353D01*
X64823353Y-87882881D01*
X64933721Y-87717704D01*
X65009744Y-87534169D01*
X65048500Y-87339329D01*
X65048500Y-87140671D01*
X65048499Y-87140666D01*
X65571500Y-87140666D01*
X65571500Y-87339333D01*
X65610254Y-87534161D01*
X65610256Y-87534169D01*
X65686277Y-87717701D01*
X65686282Y-87717710D01*
X65796646Y-87882880D01*
X65796649Y-87882884D01*
X65937115Y-88023350D01*
X65937119Y-88023353D01*
X66102289Y-88133717D01*
X66102295Y-88133720D01*
X66102296Y-88133721D01*
X66285831Y-88209744D01*
X66478152Y-88247999D01*
X66480666Y-88248499D01*
X66480670Y-88248500D01*
X66480671Y-88248500D01*
X66679330Y-88248500D01*
X66679331Y-88248499D01*
X66874169Y-88209744D01*
X67057704Y-88133721D01*
X67058366Y-88133279D01*
X67059924Y-88132237D01*
X67222881Y-88023353D01*
X67363353Y-87882881D01*
X67473721Y-87717704D01*
X67549744Y-87534169D01*
X67588500Y-87339329D01*
X67588500Y-87140671D01*
X67588499Y-87140666D01*
X68111500Y-87140666D01*
X68111500Y-87339333D01*
X68150254Y-87534161D01*
X68150256Y-87534169D01*
X68226277Y-87717701D01*
X68226282Y-87717710D01*
X68336646Y-87882880D01*
X68336649Y-87882884D01*
X68477115Y-88023350D01*
X68477119Y-88023353D01*
X68642289Y-88133717D01*
X68642295Y-88133720D01*
X68642296Y-88133721D01*
X68825831Y-88209744D01*
X69018152Y-88247999D01*
X69020666Y-88248499D01*
X69020670Y-88248500D01*
X69020671Y-88248500D01*
X69219330Y-88248500D01*
X69219331Y-88248499D01*
X69414169Y-88209744D01*
X69597704Y-88133721D01*
X69598366Y-88133279D01*
X69599924Y-88132237D01*
X69762881Y-88023353D01*
X69903353Y-87882881D01*
X70013721Y-87717704D01*
X70089744Y-87534169D01*
X70128500Y-87339329D01*
X70128500Y-87140671D01*
X70128499Y-87140666D01*
X70651500Y-87140666D01*
X70651500Y-87339333D01*
X70690254Y-87534161D01*
X70690256Y-87534169D01*
X70766277Y-87717701D01*
X70766282Y-87717710D01*
X70876646Y-87882880D01*
X70876649Y-87882884D01*
X71017115Y-88023350D01*
X71017119Y-88023353D01*
X71182289Y-88133717D01*
X71182295Y-88133720D01*
X71182296Y-88133721D01*
X71365831Y-88209744D01*
X71558152Y-88247999D01*
X71560666Y-88248499D01*
X71560670Y-88248500D01*
X71560671Y-88248500D01*
X71759330Y-88248500D01*
X71759331Y-88248499D01*
X71954169Y-88209744D01*
X72137704Y-88133721D01*
X72138366Y-88133279D01*
X72139924Y-88132237D01*
X72302881Y-88023353D01*
X72443353Y-87882881D01*
X72553721Y-87717704D01*
X72629744Y-87534169D01*
X72668500Y-87339329D01*
X72668500Y-87140671D01*
X72668499Y-87140666D01*
X73191500Y-87140666D01*
X73191500Y-87339333D01*
X73230254Y-87534161D01*
X73230256Y-87534169D01*
X73306277Y-87717701D01*
X73306282Y-87717710D01*
X73416646Y-87882880D01*
X73416649Y-87882884D01*
X73557115Y-88023350D01*
X73557119Y-88023353D01*
X73722289Y-88133717D01*
X73722295Y-88133720D01*
X73722296Y-88133721D01*
X73905831Y-88209744D01*
X74098152Y-88247999D01*
X74100666Y-88248499D01*
X74100670Y-88248500D01*
X74100671Y-88248500D01*
X74299330Y-88248500D01*
X74299331Y-88248499D01*
X74494169Y-88209744D01*
X74677704Y-88133721D01*
X74678366Y-88133279D01*
X74679924Y-88132237D01*
X74842881Y-88023353D01*
X74983353Y-87882881D01*
X75093721Y-87717704D01*
X75169744Y-87534169D01*
X75208500Y-87339329D01*
X75208500Y-87140671D01*
X75208499Y-87140666D01*
X75731500Y-87140666D01*
X75731500Y-87339333D01*
X75770254Y-87534161D01*
X75770256Y-87534169D01*
X75846277Y-87717701D01*
X75846282Y-87717710D01*
X75956646Y-87882880D01*
X75956649Y-87882884D01*
X76097115Y-88023350D01*
X76097119Y-88023353D01*
X76262289Y-88133717D01*
X76262295Y-88133720D01*
X76262296Y-88133721D01*
X76445831Y-88209744D01*
X76638152Y-88247999D01*
X76640666Y-88248499D01*
X76640670Y-88248500D01*
X76640671Y-88248500D01*
X76839330Y-88248500D01*
X76839331Y-88248499D01*
X77034169Y-88209744D01*
X77217704Y-88133721D01*
X77218366Y-88133279D01*
X77219924Y-88132237D01*
X77382881Y-88023353D01*
X77523353Y-87882881D01*
X77633721Y-87717704D01*
X77709744Y-87534169D01*
X77748500Y-87339329D01*
X77748500Y-87140671D01*
X77748499Y-87140666D01*
X78271500Y-87140666D01*
X78271500Y-87339333D01*
X78310254Y-87534161D01*
X78310256Y-87534169D01*
X78386277Y-87717701D01*
X78386282Y-87717710D01*
X78496646Y-87882880D01*
X78496649Y-87882884D01*
X78637115Y-88023350D01*
X78637119Y-88023353D01*
X78802289Y-88133717D01*
X78802295Y-88133720D01*
X78802296Y-88133721D01*
X78985831Y-88209744D01*
X79178152Y-88247999D01*
X79180666Y-88248499D01*
X79180670Y-88248500D01*
X79180671Y-88248500D01*
X79379330Y-88248500D01*
X79379331Y-88248499D01*
X79574169Y-88209744D01*
X79757704Y-88133721D01*
X79758366Y-88133279D01*
X79759924Y-88132237D01*
X79922881Y-88023353D01*
X80063353Y-87882881D01*
X80173721Y-87717704D01*
X80249744Y-87534169D01*
X80288500Y-87339329D01*
X80288500Y-87140671D01*
X80288499Y-87140666D01*
X80811500Y-87140666D01*
X80811500Y-87339333D01*
X80850254Y-87534161D01*
X80850256Y-87534169D01*
X80926277Y-87717701D01*
X80926282Y-87717710D01*
X81036646Y-87882880D01*
X81036649Y-87882884D01*
X81177115Y-88023350D01*
X81177119Y-88023353D01*
X81342289Y-88133717D01*
X81342295Y-88133720D01*
X81342296Y-88133721D01*
X81525831Y-88209744D01*
X81718152Y-88247999D01*
X81720666Y-88248499D01*
X81720670Y-88248500D01*
X81720671Y-88248500D01*
X81919330Y-88248500D01*
X81919331Y-88248499D01*
X82114169Y-88209744D01*
X82297704Y-88133721D01*
X82298366Y-88133279D01*
X82299924Y-88132237D01*
X82462881Y-88023353D01*
X82603353Y-87882881D01*
X82713721Y-87717704D01*
X82789744Y-87534169D01*
X82828500Y-87339329D01*
X82828500Y-87140671D01*
X82789744Y-86945831D01*
X82713721Y-86762296D01*
X82713720Y-86762295D01*
X82713717Y-86762289D01*
X82603353Y-86597119D01*
X82603350Y-86597115D01*
X82462884Y-86456649D01*
X82462880Y-86456646D01*
X82297710Y-86346282D01*
X82297701Y-86346277D01*
X82114169Y-86270256D01*
X82114161Y-86270254D01*
X81919333Y-86231500D01*
X81919329Y-86231500D01*
X81720671Y-86231500D01*
X81720666Y-86231500D01*
X81525838Y-86270254D01*
X81525830Y-86270256D01*
X81342298Y-86346277D01*
X81342289Y-86346282D01*
X81177119Y-86456646D01*
X81177115Y-86456649D01*
X81036649Y-86597115D01*
X81036646Y-86597119D01*
X80926282Y-86762289D01*
X80926277Y-86762298D01*
X80850256Y-86945830D01*
X80850254Y-86945838D01*
X80811500Y-87140666D01*
X80288499Y-87140666D01*
X80249744Y-86945831D01*
X80173721Y-86762296D01*
X80173720Y-86762295D01*
X80173717Y-86762289D01*
X80063353Y-86597119D01*
X80063350Y-86597115D01*
X79922884Y-86456649D01*
X79922880Y-86456646D01*
X79757710Y-86346282D01*
X79757701Y-86346277D01*
X79574169Y-86270256D01*
X79574161Y-86270254D01*
X79379333Y-86231500D01*
X79379329Y-86231500D01*
X79180671Y-86231500D01*
X79180666Y-86231500D01*
X78985838Y-86270254D01*
X78985830Y-86270256D01*
X78802298Y-86346277D01*
X78802289Y-86346282D01*
X78637119Y-86456646D01*
X78637115Y-86456649D01*
X78496649Y-86597115D01*
X78496646Y-86597119D01*
X78386282Y-86762289D01*
X78386277Y-86762298D01*
X78310256Y-86945830D01*
X78310254Y-86945838D01*
X78271500Y-87140666D01*
X77748499Y-87140666D01*
X77709744Y-86945831D01*
X77633721Y-86762296D01*
X77633720Y-86762295D01*
X77633717Y-86762289D01*
X77523353Y-86597119D01*
X77523350Y-86597115D01*
X77382884Y-86456649D01*
X77382880Y-86456646D01*
X77217710Y-86346282D01*
X77217701Y-86346277D01*
X77034169Y-86270256D01*
X77034161Y-86270254D01*
X76839333Y-86231500D01*
X76839329Y-86231500D01*
X76640671Y-86231500D01*
X76640666Y-86231500D01*
X76445838Y-86270254D01*
X76445830Y-86270256D01*
X76262298Y-86346277D01*
X76262289Y-86346282D01*
X76097119Y-86456646D01*
X76097115Y-86456649D01*
X75956649Y-86597115D01*
X75956646Y-86597119D01*
X75846282Y-86762289D01*
X75846277Y-86762298D01*
X75770256Y-86945830D01*
X75770254Y-86945838D01*
X75731500Y-87140666D01*
X75208499Y-87140666D01*
X75169744Y-86945831D01*
X75093721Y-86762296D01*
X75093720Y-86762295D01*
X75093717Y-86762289D01*
X74983353Y-86597119D01*
X74983350Y-86597115D01*
X74842884Y-86456649D01*
X74842880Y-86456646D01*
X74677710Y-86346282D01*
X74677701Y-86346277D01*
X74494169Y-86270256D01*
X74494161Y-86270254D01*
X74299333Y-86231500D01*
X74299329Y-86231500D01*
X74100671Y-86231500D01*
X74100666Y-86231500D01*
X73905838Y-86270254D01*
X73905830Y-86270256D01*
X73722298Y-86346277D01*
X73722289Y-86346282D01*
X73557119Y-86456646D01*
X73557115Y-86456649D01*
X73416649Y-86597115D01*
X73416646Y-86597119D01*
X73306282Y-86762289D01*
X73306277Y-86762298D01*
X73230256Y-86945830D01*
X73230254Y-86945838D01*
X73191500Y-87140666D01*
X72668499Y-87140666D01*
X72629744Y-86945831D01*
X72553721Y-86762296D01*
X72553720Y-86762295D01*
X72553717Y-86762289D01*
X72443353Y-86597119D01*
X72443350Y-86597115D01*
X72302884Y-86456649D01*
X72302880Y-86456646D01*
X72137710Y-86346282D01*
X72137701Y-86346277D01*
X71954169Y-86270256D01*
X71954161Y-86270254D01*
X71759333Y-86231500D01*
X71759329Y-86231500D01*
X71560671Y-86231500D01*
X71560666Y-86231500D01*
X71365838Y-86270254D01*
X71365830Y-86270256D01*
X71182298Y-86346277D01*
X71182289Y-86346282D01*
X71017119Y-86456646D01*
X71017115Y-86456649D01*
X70876649Y-86597115D01*
X70876646Y-86597119D01*
X70766282Y-86762289D01*
X70766277Y-86762298D01*
X70690256Y-86945830D01*
X70690254Y-86945838D01*
X70651500Y-87140666D01*
X70128499Y-87140666D01*
X70089744Y-86945831D01*
X70013721Y-86762296D01*
X70013720Y-86762295D01*
X70013717Y-86762289D01*
X69903353Y-86597119D01*
X69903350Y-86597115D01*
X69762884Y-86456649D01*
X69762880Y-86456646D01*
X69597710Y-86346282D01*
X69597701Y-86346277D01*
X69414169Y-86270256D01*
X69414161Y-86270254D01*
X69219333Y-86231500D01*
X69219329Y-86231500D01*
X69020671Y-86231500D01*
X69020666Y-86231500D01*
X68825838Y-86270254D01*
X68825830Y-86270256D01*
X68642298Y-86346277D01*
X68642289Y-86346282D01*
X68477119Y-86456646D01*
X68477115Y-86456649D01*
X68336649Y-86597115D01*
X68336646Y-86597119D01*
X68226282Y-86762289D01*
X68226277Y-86762298D01*
X68150256Y-86945830D01*
X68150254Y-86945838D01*
X68111500Y-87140666D01*
X67588499Y-87140666D01*
X67549744Y-86945831D01*
X67473721Y-86762296D01*
X67473720Y-86762295D01*
X67473717Y-86762289D01*
X67363353Y-86597119D01*
X67363350Y-86597115D01*
X67222884Y-86456649D01*
X67222880Y-86456646D01*
X67057710Y-86346282D01*
X67057701Y-86346277D01*
X66874169Y-86270256D01*
X66874161Y-86270254D01*
X66679333Y-86231500D01*
X66679329Y-86231500D01*
X66480671Y-86231500D01*
X66480666Y-86231500D01*
X66285838Y-86270254D01*
X66285830Y-86270256D01*
X66102298Y-86346277D01*
X66102289Y-86346282D01*
X65937119Y-86456646D01*
X65937115Y-86456649D01*
X65796649Y-86597115D01*
X65796646Y-86597119D01*
X65686282Y-86762289D01*
X65686277Y-86762298D01*
X65610256Y-86945830D01*
X65610254Y-86945838D01*
X65571500Y-87140666D01*
X65048499Y-87140666D01*
X65009744Y-86945831D01*
X64933721Y-86762296D01*
X64933720Y-86762295D01*
X64933717Y-86762289D01*
X64823353Y-86597119D01*
X64823350Y-86597115D01*
X64682884Y-86456649D01*
X64682880Y-86456646D01*
X64517710Y-86346282D01*
X64517701Y-86346277D01*
X64334169Y-86270256D01*
X64334161Y-86270254D01*
X64139333Y-86231500D01*
X64139329Y-86231500D01*
X63940671Y-86231500D01*
X63940666Y-86231500D01*
X63745838Y-86270254D01*
X63745830Y-86270256D01*
X63562298Y-86346277D01*
X63562289Y-86346282D01*
X63397119Y-86456646D01*
X63397115Y-86456649D01*
X63256649Y-86597115D01*
X63256646Y-86597119D01*
X63146282Y-86762289D01*
X63146277Y-86762298D01*
X63070256Y-86945830D01*
X63070254Y-86945838D01*
X63031500Y-87140666D01*
X62508499Y-87140666D01*
X62469744Y-86945831D01*
X62393721Y-86762296D01*
X62393720Y-86762295D01*
X62393717Y-86762289D01*
X62283353Y-86597119D01*
X62283350Y-86597115D01*
X62142884Y-86456649D01*
X62142880Y-86456646D01*
X61977710Y-86346282D01*
X61977701Y-86346277D01*
X61794169Y-86270256D01*
X61794161Y-86270254D01*
X61599333Y-86231500D01*
X61599329Y-86231500D01*
X61400671Y-86231500D01*
X61400666Y-86231500D01*
X61205838Y-86270254D01*
X61205830Y-86270256D01*
X61022298Y-86346277D01*
X61022289Y-86346282D01*
X60857119Y-86456646D01*
X60857115Y-86456649D01*
X60716649Y-86597115D01*
X60716646Y-86597119D01*
X60606282Y-86762289D01*
X60606277Y-86762298D01*
X60530256Y-86945830D01*
X60530254Y-86945838D01*
X60491500Y-87140666D01*
X58000500Y-87140666D01*
X58000500Y-77922116D01*
X73368100Y-77922116D01*
X73368100Y-78101083D01*
X73403011Y-78276592D01*
X73403013Y-78276600D01*
X73471496Y-78441932D01*
X73471501Y-78441942D01*
X73570921Y-78590734D01*
X73570924Y-78590738D01*
X73606780Y-78626593D01*
X73640266Y-78687915D01*
X73643100Y-78714275D01*
X73643100Y-80061124D01*
X73623415Y-80128163D01*
X73606781Y-80148805D01*
X73570924Y-80184661D01*
X73570921Y-80184665D01*
X73471501Y-80333457D01*
X73471496Y-80333467D01*
X73403013Y-80498799D01*
X73403011Y-80498807D01*
X73368100Y-80674316D01*
X73368100Y-80853283D01*
X73403011Y-81028792D01*
X73403013Y-81028800D01*
X73471496Y-81194132D01*
X73471501Y-81194142D01*
X73570921Y-81342934D01*
X73570924Y-81342938D01*
X73697461Y-81469475D01*
X73697465Y-81469478D01*
X73846257Y-81568898D01*
X73846261Y-81568900D01*
X73846264Y-81568902D01*
X74011600Y-81637387D01*
X74187116Y-81672299D01*
X74187120Y-81672300D01*
X74187121Y-81672300D01*
X74366080Y-81672300D01*
X74366081Y-81672299D01*
X74541600Y-81637387D01*
X74706936Y-81568902D01*
X74855735Y-81469478D01*
X74982278Y-81342935D01*
X75081702Y-81194136D01*
X75150187Y-81028800D01*
X75185100Y-80853279D01*
X75185100Y-80674321D01*
X75150187Y-80498800D01*
X75081702Y-80333464D01*
X75081700Y-80333461D01*
X75081698Y-80333457D01*
X74982278Y-80184665D01*
X74982275Y-80184661D01*
X74946419Y-80148805D01*
X74912934Y-80087482D01*
X74910100Y-80061124D01*
X74910100Y-78714275D01*
X74929785Y-78647236D01*
X74946420Y-78626593D01*
X74982275Y-78590738D01*
X74982278Y-78590735D01*
X75081702Y-78441936D01*
X75150187Y-78276600D01*
X75185100Y-78101079D01*
X75185100Y-77922121D01*
X75150187Y-77746600D01*
X75081702Y-77581264D01*
X75081700Y-77581261D01*
X75081698Y-77581257D01*
X74982278Y-77432465D01*
X74982275Y-77432461D01*
X74855738Y-77305924D01*
X74855734Y-77305921D01*
X74706942Y-77206501D01*
X74706932Y-77206496D01*
X74541600Y-77138013D01*
X74541592Y-77138011D01*
X74366083Y-77103100D01*
X74366079Y-77103100D01*
X74187121Y-77103100D01*
X74187116Y-77103100D01*
X74011607Y-77138011D01*
X74011599Y-77138013D01*
X73846267Y-77206496D01*
X73846257Y-77206501D01*
X73697465Y-77305921D01*
X73697461Y-77305924D01*
X73570924Y-77432461D01*
X73570921Y-77432465D01*
X73471501Y-77581257D01*
X73471496Y-77581267D01*
X73403013Y-77746599D01*
X73403011Y-77746607D01*
X73368100Y-77922116D01*
X58000500Y-77922116D01*
X58000500Y-76800816D01*
X77069200Y-76800816D01*
X77069200Y-76979783D01*
X77104111Y-77155292D01*
X77104113Y-77155300D01*
X77172596Y-77320632D01*
X77172601Y-77320642D01*
X77272021Y-77469434D01*
X77272024Y-77469438D01*
X77398561Y-77595975D01*
X77398565Y-77595978D01*
X77547357Y-77695398D01*
X77547361Y-77695400D01*
X77547364Y-77695402D01*
X77712700Y-77763887D01*
X77888216Y-77798799D01*
X77888220Y-77798800D01*
X77888221Y-77798800D01*
X78067180Y-77798800D01*
X78067181Y-77798799D01*
X78242700Y-77763887D01*
X78408036Y-77695402D01*
X78556835Y-77595978D01*
X78683378Y-77469435D01*
X78782802Y-77320636D01*
X78851287Y-77155300D01*
X78886200Y-76979779D01*
X78886200Y-76800821D01*
X78851287Y-76625300D01*
X78782802Y-76459964D01*
X78782800Y-76459961D01*
X78782798Y-76459957D01*
X78683378Y-76311165D01*
X78683375Y-76311161D01*
X78556838Y-76184624D01*
X78556834Y-76184621D01*
X78408042Y-76085201D01*
X78408032Y-76085196D01*
X78242700Y-76016713D01*
X78242692Y-76016711D01*
X78067183Y-75981800D01*
X78067179Y-75981800D01*
X77888221Y-75981800D01*
X77888216Y-75981800D01*
X77712707Y-76016711D01*
X77712699Y-76016713D01*
X77547367Y-76085196D01*
X77547357Y-76085201D01*
X77398565Y-76184621D01*
X77398561Y-76184624D01*
X77272024Y-76311161D01*
X77272021Y-76311165D01*
X77172601Y-76459957D01*
X77172596Y-76459967D01*
X77104113Y-76625299D01*
X77104111Y-76625307D01*
X77069200Y-76800816D01*
X58000500Y-76800816D01*
X58000500Y-74160516D01*
X68849600Y-74160516D01*
X68849600Y-74339483D01*
X68884511Y-74514992D01*
X68884513Y-74515000D01*
X68952996Y-74680332D01*
X68953001Y-74680342D01*
X69052421Y-74829134D01*
X69052424Y-74829138D01*
X69178961Y-74955675D01*
X69178965Y-74955678D01*
X69327757Y-75055098D01*
X69327761Y-75055100D01*
X69327764Y-75055102D01*
X69493100Y-75123587D01*
X69668616Y-75158499D01*
X69668620Y-75158500D01*
X69668621Y-75158500D01*
X69847580Y-75158500D01*
X69847581Y-75158499D01*
X70023100Y-75123587D01*
X70188436Y-75055102D01*
X70337235Y-74955678D01*
X70463778Y-74829135D01*
X70563202Y-74680336D01*
X70631687Y-74515000D01*
X70666600Y-74339479D01*
X70666600Y-74160521D01*
X70631687Y-73985000D01*
X70563202Y-73819664D01*
X70563200Y-73819661D01*
X70563198Y-73819657D01*
X70463778Y-73670865D01*
X70463775Y-73670861D01*
X70337238Y-73544324D01*
X70337234Y-73544321D01*
X70188442Y-73444901D01*
X70188432Y-73444896D01*
X70023100Y-73376413D01*
X70023092Y-73376411D01*
X69847583Y-73341500D01*
X69847579Y-73341500D01*
X69668621Y-73341500D01*
X69668616Y-73341500D01*
X69493107Y-73376411D01*
X69493099Y-73376413D01*
X69327767Y-73444896D01*
X69327757Y-73444901D01*
X69178965Y-73544321D01*
X69178961Y-73544324D01*
X69052424Y-73670861D01*
X69052421Y-73670865D01*
X68953001Y-73819657D01*
X68952996Y-73819667D01*
X68884513Y-73984999D01*
X68884511Y-73985007D01*
X68849600Y-74160516D01*
X58000500Y-74160516D01*
X58000500Y-71900666D01*
X60491500Y-71900666D01*
X60491500Y-72099333D01*
X60530254Y-72294161D01*
X60530256Y-72294169D01*
X60606277Y-72477701D01*
X60606282Y-72477710D01*
X60716646Y-72642880D01*
X60716649Y-72642884D01*
X60857115Y-72783350D01*
X60857119Y-72783353D01*
X61022289Y-72893717D01*
X61022295Y-72893720D01*
X61022296Y-72893721D01*
X61205831Y-72969744D01*
X61382995Y-73004984D01*
X61400666Y-73008499D01*
X61400670Y-73008500D01*
X61400671Y-73008500D01*
X61599330Y-73008500D01*
X61599331Y-73008499D01*
X61794169Y-72969744D01*
X61977704Y-72893721D01*
X62142881Y-72783353D01*
X62283353Y-72642881D01*
X62393721Y-72477704D01*
X62469744Y-72294169D01*
X62508500Y-72099329D01*
X62508500Y-71900671D01*
X62508499Y-71900666D01*
X63031500Y-71900666D01*
X63031500Y-72099333D01*
X63070254Y-72294161D01*
X63070256Y-72294169D01*
X63146277Y-72477701D01*
X63146282Y-72477710D01*
X63256646Y-72642880D01*
X63256649Y-72642884D01*
X63397115Y-72783350D01*
X63397119Y-72783353D01*
X63562289Y-72893717D01*
X63562295Y-72893720D01*
X63562296Y-72893721D01*
X63745831Y-72969744D01*
X63922995Y-73004984D01*
X63940666Y-73008499D01*
X63940670Y-73008500D01*
X63940671Y-73008500D01*
X64139330Y-73008500D01*
X64139331Y-73008499D01*
X64334169Y-72969744D01*
X64517704Y-72893721D01*
X64682881Y-72783353D01*
X64823353Y-72642881D01*
X64933721Y-72477704D01*
X65009744Y-72294169D01*
X65048500Y-72099329D01*
X65048500Y-71900671D01*
X65048499Y-71900666D01*
X65571500Y-71900666D01*
X65571500Y-72099333D01*
X65610254Y-72294161D01*
X65610256Y-72294169D01*
X65686277Y-72477701D01*
X65686282Y-72477710D01*
X65796646Y-72642880D01*
X65796649Y-72642884D01*
X65937115Y-72783350D01*
X65937119Y-72783353D01*
X66102289Y-72893717D01*
X66102295Y-72893720D01*
X66102296Y-72893721D01*
X66285831Y-72969744D01*
X66462995Y-73004984D01*
X66480666Y-73008499D01*
X66480670Y-73008500D01*
X66480671Y-73008500D01*
X66679330Y-73008500D01*
X66679331Y-73008499D01*
X66874169Y-72969744D01*
X67057704Y-72893721D01*
X67222881Y-72783353D01*
X67363353Y-72642881D01*
X67473721Y-72477704D01*
X67549744Y-72294169D01*
X67588500Y-72099329D01*
X67588500Y-71900671D01*
X67588499Y-71900666D01*
X68111500Y-71900666D01*
X68111500Y-72099333D01*
X68150254Y-72294161D01*
X68150256Y-72294169D01*
X68226277Y-72477701D01*
X68226282Y-72477710D01*
X68336646Y-72642880D01*
X68336649Y-72642884D01*
X68477115Y-72783350D01*
X68477119Y-72783353D01*
X68642289Y-72893717D01*
X68642295Y-72893720D01*
X68642296Y-72893721D01*
X68825831Y-72969744D01*
X69002995Y-73004984D01*
X69020666Y-73008499D01*
X69020670Y-73008500D01*
X69020671Y-73008500D01*
X69219330Y-73008500D01*
X69219331Y-73008499D01*
X69414169Y-72969744D01*
X69597704Y-72893721D01*
X69762881Y-72783353D01*
X69903353Y-72642881D01*
X70013721Y-72477704D01*
X70089744Y-72294169D01*
X70128500Y-72099329D01*
X70128500Y-71900671D01*
X70089744Y-71705831D01*
X70013721Y-71522296D01*
X70013720Y-71522295D01*
X70013717Y-71522289D01*
X69903353Y-71357119D01*
X69903350Y-71357115D01*
X69762884Y-71216649D01*
X69762880Y-71216646D01*
X69597710Y-71106282D01*
X69597701Y-71106277D01*
X69414169Y-71030256D01*
X69414161Y-71030254D01*
X69219333Y-70991500D01*
X69219329Y-70991500D01*
X69020671Y-70991500D01*
X69020666Y-70991500D01*
X68825838Y-71030254D01*
X68825830Y-71030256D01*
X68642298Y-71106277D01*
X68642289Y-71106282D01*
X68477119Y-71216646D01*
X68477115Y-71216649D01*
X68336649Y-71357115D01*
X68336646Y-71357119D01*
X68226282Y-71522289D01*
X68226277Y-71522298D01*
X68150256Y-71705830D01*
X68150254Y-71705838D01*
X68111500Y-71900666D01*
X67588499Y-71900666D01*
X67549744Y-71705831D01*
X67473721Y-71522296D01*
X67473720Y-71522295D01*
X67473717Y-71522289D01*
X67363353Y-71357119D01*
X67363350Y-71357115D01*
X67222884Y-71216649D01*
X67222880Y-71216646D01*
X67057710Y-71106282D01*
X67057701Y-71106277D01*
X66874169Y-71030256D01*
X66874161Y-71030254D01*
X66679333Y-70991500D01*
X66679329Y-70991500D01*
X66480671Y-70991500D01*
X66480666Y-70991500D01*
X66285838Y-71030254D01*
X66285830Y-71030256D01*
X66102298Y-71106277D01*
X66102289Y-71106282D01*
X65937119Y-71216646D01*
X65937115Y-71216649D01*
X65796649Y-71357115D01*
X65796646Y-71357119D01*
X65686282Y-71522289D01*
X65686277Y-71522298D01*
X65610256Y-71705830D01*
X65610254Y-71705838D01*
X65571500Y-71900666D01*
X65048499Y-71900666D01*
X65009744Y-71705831D01*
X64933721Y-71522296D01*
X64933720Y-71522295D01*
X64933717Y-71522289D01*
X64823353Y-71357119D01*
X64823350Y-71357115D01*
X64682884Y-71216649D01*
X64682880Y-71216646D01*
X64517710Y-71106282D01*
X64517701Y-71106277D01*
X64334169Y-71030256D01*
X64334161Y-71030254D01*
X64139333Y-70991500D01*
X64139329Y-70991500D01*
X63940671Y-70991500D01*
X63940666Y-70991500D01*
X63745838Y-71030254D01*
X63745830Y-71030256D01*
X63562298Y-71106277D01*
X63562289Y-71106282D01*
X63397119Y-71216646D01*
X63397115Y-71216649D01*
X63256649Y-71357115D01*
X63256646Y-71357119D01*
X63146282Y-71522289D01*
X63146277Y-71522298D01*
X63070256Y-71705830D01*
X63070254Y-71705838D01*
X63031500Y-71900666D01*
X62508499Y-71900666D01*
X62469744Y-71705831D01*
X62393721Y-71522296D01*
X62393720Y-71522295D01*
X62393717Y-71522289D01*
X62283353Y-71357119D01*
X62283350Y-71357115D01*
X62142884Y-71216649D01*
X62142880Y-71216646D01*
X61977710Y-71106282D01*
X61977701Y-71106277D01*
X61794169Y-71030256D01*
X61794161Y-71030254D01*
X61599333Y-70991500D01*
X61599329Y-70991500D01*
X61400671Y-70991500D01*
X61400666Y-70991500D01*
X61205838Y-71030254D01*
X61205830Y-71030256D01*
X61022298Y-71106277D01*
X61022289Y-71106282D01*
X60857119Y-71216646D01*
X60857115Y-71216649D01*
X60716649Y-71357115D01*
X60716646Y-71357119D01*
X60606282Y-71522289D01*
X60606277Y-71522298D01*
X60530256Y-71705830D01*
X60530254Y-71705838D01*
X60491500Y-71900666D01*
X58000500Y-71900666D01*
X58000500Y-68038226D01*
X58020185Y-67971187D01*
X58072989Y-67925432D01*
X58142147Y-67915488D01*
X58205703Y-67944513D01*
X58242430Y-67999906D01*
X58246508Y-68012458D01*
X58248444Y-68018414D01*
X58344951Y-68207820D01*
X58469890Y-68379786D01*
X58620213Y-68530109D01*
X58792179Y-68655048D01*
X58792181Y-68655049D01*
X58792184Y-68655051D01*
X58981588Y-68751557D01*
X59183757Y-68817246D01*
X59393713Y-68850500D01*
X59393714Y-68850500D01*
X59606286Y-68850500D01*
X59606287Y-68850500D01*
X59816243Y-68817246D01*
X60018412Y-68751557D01*
X60207816Y-68655051D01*
X60330625Y-68565826D01*
X60379786Y-68530109D01*
X60379788Y-68530106D01*
X60379792Y-68530104D01*
X60530104Y-68379792D01*
X60530106Y-68379788D01*
X60530109Y-68379786D01*
X60655048Y-68207820D01*
X60655047Y-68207820D01*
X60655051Y-68207816D01*
X60751557Y-68018412D01*
X60817246Y-67816243D01*
X60850500Y-67606287D01*
X60850500Y-67601345D01*
X63611500Y-67601345D01*
X63611500Y-69398654D01*
X63618011Y-69459202D01*
X63618011Y-69459204D01*
X63669111Y-69596204D01*
X63756739Y-69713261D01*
X63873796Y-69800889D01*
X63980567Y-69840713D01*
X63991358Y-69844738D01*
X64010799Y-69851989D01*
X64038050Y-69854918D01*
X64071345Y-69858499D01*
X64071362Y-69858500D01*
X65868638Y-69858500D01*
X65868654Y-69858499D01*
X65895692Y-69855591D01*
X65929201Y-69851989D01*
X66066204Y-69800889D01*
X66183261Y-69713261D01*
X66270889Y-69596204D01*
X66315957Y-69475371D01*
X66357827Y-69419442D01*
X66423291Y-69395025D01*
X66491564Y-69409877D01*
X66519818Y-69431028D01*
X66624996Y-69536206D01*
X66797991Y-69661894D01*
X66876499Y-69701896D01*
X66988516Y-69758972D01*
X66988519Y-69758973D01*
X67089913Y-69791917D01*
X67191884Y-69825049D01*
X67403084Y-69858500D01*
X67403085Y-69858500D01*
X67616915Y-69858500D01*
X67616916Y-69858500D01*
X67828116Y-69825049D01*
X68031483Y-69758972D01*
X68222009Y-69661894D01*
X68395004Y-69536206D01*
X68546206Y-69385004D01*
X68671894Y-69212009D01*
X68671896Y-69212004D01*
X68674270Y-69208132D01*
X68726080Y-69161254D01*
X68795009Y-69149829D01*
X68859173Y-69177483D01*
X68885730Y-69208132D01*
X68888103Y-69212005D01*
X68888106Y-69212009D01*
X69013794Y-69385004D01*
X69164996Y-69536206D01*
X69337991Y-69661894D01*
X69416499Y-69701896D01*
X69528516Y-69758972D01*
X69528519Y-69758973D01*
X69629913Y-69791917D01*
X69731884Y-69825049D01*
X69943084Y-69858500D01*
X69943085Y-69858500D01*
X70156915Y-69858500D01*
X70156916Y-69858500D01*
X70368116Y-69825049D01*
X70571483Y-69758972D01*
X70762009Y-69661894D01*
X70935004Y-69536206D01*
X71086206Y-69385004D01*
X71211894Y-69212009D01*
X71211896Y-69212004D01*
X71214270Y-69208132D01*
X71238794Y-69185942D01*
X71262616Y-69162994D01*
X71264588Y-69162603D01*
X71266080Y-69161254D01*
X71298712Y-69155845D01*
X71331155Y-69149420D01*
X71333025Y-69150157D01*
X71335009Y-69149829D01*
X71365376Y-69162916D01*
X71396152Y-69175055D01*
X71397790Y-69176887D01*
X71399173Y-69177483D01*
X71420638Y-69200474D01*
X71426082Y-69208036D01*
X71428106Y-69212009D01*
X71518721Y-69336731D01*
X71518893Y-69336969D01*
X71530411Y-69369704D01*
X71542053Y-69402333D01*
X71541988Y-69402609D01*
X71542083Y-69402878D01*
X71534098Y-69436542D01*
X71526228Y-69470387D01*
X71526023Y-69470586D01*
X71525958Y-69470861D01*
X71501080Y-69494826D01*
X71476122Y-69519082D01*
X71475691Y-69519283D01*
X71475639Y-69519335D01*
X71475542Y-69519354D01*
X71465712Y-69523971D01*
X71437171Y-69535793D01*
X71437157Y-69535801D01*
X71288365Y-69635221D01*
X71288361Y-69635224D01*
X71161824Y-69761761D01*
X71161821Y-69761765D01*
X71062401Y-69910557D01*
X71062396Y-69910567D01*
X70993913Y-70075899D01*
X70993911Y-70075907D01*
X70959000Y-70251416D01*
X70959000Y-70430383D01*
X70993911Y-70605892D01*
X70993913Y-70605900D01*
X71062396Y-70771232D01*
X71062401Y-70771242D01*
X71161821Y-70920034D01*
X71161824Y-70920038D01*
X71174827Y-70933041D01*
X71208312Y-70994364D01*
X71203328Y-71064056D01*
X71161456Y-71119989D01*
X71156037Y-71123824D01*
X71017119Y-71216646D01*
X71017115Y-71216649D01*
X70876649Y-71357115D01*
X70876646Y-71357119D01*
X70766282Y-71522289D01*
X70766277Y-71522298D01*
X70690256Y-71705830D01*
X70690254Y-71705838D01*
X70651500Y-71900666D01*
X70651500Y-72099333D01*
X70690254Y-72294161D01*
X70690256Y-72294169D01*
X70766277Y-72477701D01*
X70766282Y-72477710D01*
X70876646Y-72642880D01*
X70876649Y-72642884D01*
X71017115Y-72783350D01*
X71017119Y-72783353D01*
X71182289Y-72893717D01*
X71182295Y-72893720D01*
X71182296Y-72893721D01*
X71365831Y-72969744D01*
X71542995Y-73004984D01*
X71560666Y-73008499D01*
X71560670Y-73008500D01*
X71560671Y-73008500D01*
X71759330Y-73008500D01*
X71759331Y-73008499D01*
X71954169Y-72969744D01*
X72137704Y-72893721D01*
X72302881Y-72783353D01*
X72443353Y-72642881D01*
X72553721Y-72477704D01*
X72629744Y-72294169D01*
X72668500Y-72099329D01*
X72668500Y-71900671D01*
X72668499Y-71900666D01*
X73191500Y-71900666D01*
X73191500Y-72099333D01*
X73230254Y-72294161D01*
X73230256Y-72294169D01*
X73306277Y-72477701D01*
X73306282Y-72477710D01*
X73416646Y-72642880D01*
X73416649Y-72642884D01*
X73557115Y-72783350D01*
X73557119Y-72783353D01*
X73722289Y-72893717D01*
X73722295Y-72893720D01*
X73722296Y-72893721D01*
X73905831Y-72969744D01*
X74082995Y-73004984D01*
X74100666Y-73008499D01*
X74100670Y-73008500D01*
X74100671Y-73008500D01*
X74299330Y-73008500D01*
X74299331Y-73008499D01*
X74494169Y-72969744D01*
X74677704Y-72893721D01*
X74842881Y-72783353D01*
X74983353Y-72642881D01*
X75093721Y-72477704D01*
X75169744Y-72294169D01*
X75208500Y-72099329D01*
X75208500Y-71900671D01*
X75208499Y-71900666D01*
X75731500Y-71900666D01*
X75731500Y-72099333D01*
X75770254Y-72294161D01*
X75770256Y-72294169D01*
X75846277Y-72477701D01*
X75846282Y-72477710D01*
X75956646Y-72642880D01*
X75956649Y-72642884D01*
X76097115Y-72783350D01*
X76097119Y-72783353D01*
X76262289Y-72893717D01*
X76262295Y-72893720D01*
X76262296Y-72893721D01*
X76445831Y-72969744D01*
X76622995Y-73004984D01*
X76640666Y-73008499D01*
X76640670Y-73008500D01*
X76640671Y-73008500D01*
X76839330Y-73008500D01*
X76839331Y-73008499D01*
X77034169Y-72969744D01*
X77217704Y-72893721D01*
X77382881Y-72783353D01*
X77523353Y-72642881D01*
X77633721Y-72477704D01*
X77709744Y-72294169D01*
X77748500Y-72099329D01*
X77748500Y-71900671D01*
X77748499Y-71900666D01*
X78271500Y-71900666D01*
X78271500Y-72099333D01*
X78310254Y-72294161D01*
X78310256Y-72294169D01*
X78386277Y-72477701D01*
X78386282Y-72477710D01*
X78496646Y-72642880D01*
X78496649Y-72642884D01*
X78637115Y-72783350D01*
X78637119Y-72783353D01*
X78802289Y-72893717D01*
X78802295Y-72893720D01*
X78802296Y-72893721D01*
X78985831Y-72969744D01*
X79162995Y-73004984D01*
X79180666Y-73008499D01*
X79180670Y-73008500D01*
X79180671Y-73008500D01*
X79379330Y-73008500D01*
X79379331Y-73008499D01*
X79574169Y-72969744D01*
X79757704Y-72893721D01*
X79922881Y-72783353D01*
X80063353Y-72642881D01*
X80173721Y-72477704D01*
X80249744Y-72294169D01*
X80288500Y-72099329D01*
X80288500Y-71900671D01*
X80249744Y-71705831D01*
X80173721Y-71522296D01*
X80173720Y-71522295D01*
X80173717Y-71522289D01*
X80063353Y-71357119D01*
X80063350Y-71357115D01*
X79922884Y-71216649D01*
X79922880Y-71216646D01*
X79757710Y-71106282D01*
X79757701Y-71106277D01*
X79574169Y-71030256D01*
X79574161Y-71030254D01*
X79379333Y-70991500D01*
X79379329Y-70991500D01*
X79180671Y-70991500D01*
X79180666Y-70991500D01*
X78985838Y-71030254D01*
X78985830Y-71030256D01*
X78802298Y-71106277D01*
X78802289Y-71106282D01*
X78637119Y-71216646D01*
X78637115Y-71216649D01*
X78496649Y-71357115D01*
X78496646Y-71357119D01*
X78386282Y-71522289D01*
X78386277Y-71522298D01*
X78310256Y-71705830D01*
X78310254Y-71705838D01*
X78271500Y-71900666D01*
X77748499Y-71900666D01*
X77709744Y-71705831D01*
X77633721Y-71522296D01*
X77633720Y-71522295D01*
X77633717Y-71522289D01*
X77523353Y-71357119D01*
X77523350Y-71357115D01*
X77382884Y-71216649D01*
X77382880Y-71216646D01*
X77217710Y-71106282D01*
X77217701Y-71106277D01*
X77034169Y-71030256D01*
X77034161Y-71030254D01*
X76839333Y-70991500D01*
X76839329Y-70991500D01*
X76640671Y-70991500D01*
X76640666Y-70991500D01*
X76445838Y-71030254D01*
X76445830Y-71030256D01*
X76262298Y-71106277D01*
X76262289Y-71106282D01*
X76097119Y-71216646D01*
X76097115Y-71216649D01*
X75956649Y-71357115D01*
X75956646Y-71357119D01*
X75846282Y-71522289D01*
X75846277Y-71522298D01*
X75770256Y-71705830D01*
X75770254Y-71705838D01*
X75731500Y-71900666D01*
X75208499Y-71900666D01*
X75169744Y-71705831D01*
X75093721Y-71522296D01*
X75093720Y-71522295D01*
X75093717Y-71522289D01*
X74983353Y-71357119D01*
X74983350Y-71357115D01*
X74842884Y-71216649D01*
X74842880Y-71216646D01*
X74677710Y-71106282D01*
X74677701Y-71106277D01*
X74494169Y-71030256D01*
X74494161Y-71030254D01*
X74299333Y-70991500D01*
X74299329Y-70991500D01*
X74100671Y-70991500D01*
X74100666Y-70991500D01*
X73905838Y-71030254D01*
X73905830Y-71030256D01*
X73722298Y-71106277D01*
X73722289Y-71106282D01*
X73557119Y-71216646D01*
X73557115Y-71216649D01*
X73416649Y-71357115D01*
X73416646Y-71357119D01*
X73306282Y-71522289D01*
X73306277Y-71522298D01*
X73230256Y-71705830D01*
X73230254Y-71705838D01*
X73191500Y-71900666D01*
X72668499Y-71900666D01*
X72629744Y-71705831D01*
X72553721Y-71522296D01*
X72553720Y-71522295D01*
X72553717Y-71522289D01*
X72443353Y-71357119D01*
X72443350Y-71357115D01*
X72365352Y-71279117D01*
X72331867Y-71217794D01*
X72336851Y-71148102D01*
X72378723Y-71092169D01*
X72384125Y-71088345D01*
X72446635Y-71046578D01*
X72573178Y-70920035D01*
X72672602Y-70771236D01*
X72741087Y-70605900D01*
X72776000Y-70430379D01*
X72776000Y-70251421D01*
X72741087Y-70075900D01*
X72714053Y-70010636D01*
X72706585Y-69941171D01*
X72737859Y-69878691D01*
X72797948Y-69843038D01*
X72809213Y-69840713D01*
X72908116Y-69825049D01*
X73111483Y-69758972D01*
X73302009Y-69661894D01*
X73475004Y-69536206D01*
X73626206Y-69385004D01*
X73751894Y-69212009D01*
X73751896Y-69212004D01*
X73754270Y-69208132D01*
X73806080Y-69161254D01*
X73875009Y-69149829D01*
X73939173Y-69177483D01*
X73965730Y-69208132D01*
X73968103Y-69212005D01*
X73968106Y-69212009D01*
X74093794Y-69385004D01*
X74244996Y-69536206D01*
X74417991Y-69661894D01*
X74496499Y-69701896D01*
X74608516Y-69758972D01*
X74608519Y-69758973D01*
X74709913Y-69791917D01*
X74811884Y-69825049D01*
X75023084Y-69858500D01*
X75023085Y-69858500D01*
X75236915Y-69858500D01*
X75236916Y-69858500D01*
X75448116Y-69825049D01*
X75651483Y-69758972D01*
X75842009Y-69661894D01*
X76015004Y-69536206D01*
X76166206Y-69385004D01*
X76291894Y-69212009D01*
X76291896Y-69212004D01*
X76294270Y-69208132D01*
X76346080Y-69161254D01*
X76415009Y-69149829D01*
X76479173Y-69177483D01*
X76505730Y-69208132D01*
X76508103Y-69212005D01*
X76508106Y-69212009D01*
X76633794Y-69385004D01*
X76784996Y-69536206D01*
X76957991Y-69661894D01*
X77036499Y-69701896D01*
X77148516Y-69758972D01*
X77148519Y-69758973D01*
X77249913Y-69791917D01*
X77351884Y-69825049D01*
X77563084Y-69858500D01*
X77563085Y-69858500D01*
X77776915Y-69858500D01*
X77776916Y-69858500D01*
X77988116Y-69825049D01*
X78191483Y-69758972D01*
X78382009Y-69661894D01*
X78555004Y-69536206D01*
X78706206Y-69385004D01*
X78831894Y-69212009D01*
X78831896Y-69212004D01*
X78834270Y-69208132D01*
X78886080Y-69161254D01*
X78955009Y-69149829D01*
X79019173Y-69177483D01*
X79045730Y-69208132D01*
X79048103Y-69212005D01*
X79048106Y-69212009D01*
X79173794Y-69385004D01*
X79324996Y-69536206D01*
X79497991Y-69661894D01*
X79576499Y-69701896D01*
X79688516Y-69758972D01*
X79688519Y-69758973D01*
X79789913Y-69791917D01*
X79891884Y-69825049D01*
X80103084Y-69858500D01*
X80103085Y-69858500D01*
X80316915Y-69858500D01*
X80316916Y-69858500D01*
X80528116Y-69825049D01*
X80731483Y-69758972D01*
X80922009Y-69661894D01*
X81095004Y-69536206D01*
X81246206Y-69385004D01*
X81371894Y-69212009D01*
X81371896Y-69212004D01*
X81374270Y-69208132D01*
X81426080Y-69161254D01*
X81495009Y-69149829D01*
X81559173Y-69177483D01*
X81585730Y-69208132D01*
X81588103Y-69212005D01*
X81588106Y-69212009D01*
X81713794Y-69385004D01*
X81864996Y-69536206D01*
X82037991Y-69661894D01*
X82048794Y-69667398D01*
X82099590Y-69715371D01*
X82116500Y-69777883D01*
X82116500Y-70879625D01*
X82096815Y-70946664D01*
X82044011Y-70992419D01*
X81974853Y-71002363D01*
X81968309Y-71001242D01*
X81919333Y-70991500D01*
X81919329Y-70991500D01*
X81720671Y-70991500D01*
X81720666Y-70991500D01*
X81525838Y-71030254D01*
X81525830Y-71030256D01*
X81342298Y-71106277D01*
X81342289Y-71106282D01*
X81177119Y-71216646D01*
X81177115Y-71216649D01*
X81036649Y-71357115D01*
X81036646Y-71357119D01*
X80926282Y-71522289D01*
X80926277Y-71522298D01*
X80850256Y-71705830D01*
X80850254Y-71705838D01*
X80811500Y-71900666D01*
X80811500Y-72099333D01*
X80850254Y-72294161D01*
X80850256Y-72294169D01*
X80926277Y-72477701D01*
X80926282Y-72477710D01*
X81036646Y-72642880D01*
X81036649Y-72642884D01*
X81177115Y-72783350D01*
X81177119Y-72783353D01*
X81342289Y-72893717D01*
X81342295Y-72893720D01*
X81342296Y-72893721D01*
X81525831Y-72969744D01*
X81702995Y-73004984D01*
X81720666Y-73008499D01*
X81720670Y-73008500D01*
X81720671Y-73008500D01*
X81919329Y-73008500D01*
X81968309Y-72998757D01*
X82037899Y-73004984D01*
X82093077Y-73047846D01*
X82116322Y-73113735D01*
X82116500Y-73120374D01*
X82116500Y-79446598D01*
X82140843Y-79568977D01*
X82140845Y-79568985D01*
X82188598Y-79684272D01*
X82188603Y-79684281D01*
X82257928Y-79788032D01*
X82257931Y-79788036D01*
X83520981Y-81051085D01*
X83554466Y-81112408D01*
X83557300Y-81138766D01*
X83557300Y-81189483D01*
X83592211Y-81364992D01*
X83592213Y-81365000D01*
X83660696Y-81530332D01*
X83660701Y-81530342D01*
X83760121Y-81679134D01*
X83760124Y-81679138D01*
X83886661Y-81805675D01*
X83886665Y-81805678D01*
X84035457Y-81905098D01*
X84035461Y-81905100D01*
X84035464Y-81905102D01*
X84200800Y-81973587D01*
X84376316Y-82008499D01*
X84376320Y-82008500D01*
X84376321Y-82008500D01*
X84555280Y-82008500D01*
X84555281Y-82008499D01*
X84730800Y-81973587D01*
X84896136Y-81905102D01*
X85044935Y-81805678D01*
X85171478Y-81679135D01*
X85270902Y-81530336D01*
X85339387Y-81365000D01*
X85374300Y-81189479D01*
X85374300Y-81010521D01*
X85339387Y-80835000D01*
X85270902Y-80669664D01*
X85270900Y-80669661D01*
X85270898Y-80669657D01*
X85171478Y-80520865D01*
X85171475Y-80520861D01*
X85044938Y-80394324D01*
X85044934Y-80394321D01*
X84896142Y-80294901D01*
X84896132Y-80294896D01*
X84730800Y-80226413D01*
X84730792Y-80226411D01*
X84555283Y-80191500D01*
X84555279Y-80191500D01*
X84504567Y-80191500D01*
X84437528Y-80171815D01*
X84416886Y-80155181D01*
X83419819Y-79158114D01*
X83386334Y-79096791D01*
X83383500Y-79070433D01*
X83383500Y-72749097D01*
X83403185Y-72682058D01*
X83455989Y-72636303D01*
X83525147Y-72626359D01*
X83588703Y-72655384D01*
X83595181Y-72661416D01*
X83717115Y-72783350D01*
X83717119Y-72783353D01*
X83882289Y-72893717D01*
X83882295Y-72893720D01*
X83882296Y-72893721D01*
X84065831Y-72969744D01*
X84242995Y-73004984D01*
X84260666Y-73008499D01*
X84260670Y-73008500D01*
X84260671Y-73008500D01*
X84459330Y-73008500D01*
X84459331Y-73008499D01*
X84654169Y-72969744D01*
X84837704Y-72893721D01*
X85002881Y-72783353D01*
X85143353Y-72642881D01*
X85253721Y-72477704D01*
X85329744Y-72294169D01*
X85368500Y-72099329D01*
X85368500Y-71900671D01*
X85329744Y-71705831D01*
X85253721Y-71522296D01*
X85253720Y-71522295D01*
X85253717Y-71522289D01*
X85143353Y-71357119D01*
X85143350Y-71357115D01*
X85002884Y-71216649D01*
X85002880Y-71216646D01*
X84837710Y-71106282D01*
X84837701Y-71106277D01*
X84654169Y-71030256D01*
X84654161Y-71030254D01*
X84459333Y-70991500D01*
X84459329Y-70991500D01*
X84260671Y-70991500D01*
X84260666Y-70991500D01*
X84065838Y-71030254D01*
X84065830Y-71030256D01*
X83882298Y-71106277D01*
X83882289Y-71106282D01*
X83717119Y-71216646D01*
X83717115Y-71216649D01*
X83595181Y-71338584D01*
X83533858Y-71372069D01*
X83464166Y-71367085D01*
X83408233Y-71325213D01*
X83383816Y-71259749D01*
X83383500Y-71250903D01*
X83383500Y-69777883D01*
X83403185Y-69710844D01*
X83451204Y-69667398D01*
X83462009Y-69661894D01*
X83635004Y-69536206D01*
X83786206Y-69385004D01*
X83911894Y-69212009D01*
X83911896Y-69212004D01*
X83914270Y-69208132D01*
X83966080Y-69161254D01*
X84035009Y-69149829D01*
X84099173Y-69177483D01*
X84125730Y-69208132D01*
X84128103Y-69212005D01*
X84128106Y-69212009D01*
X84253794Y-69385004D01*
X84404996Y-69536206D01*
X84577991Y-69661894D01*
X84656499Y-69701896D01*
X84768516Y-69758972D01*
X84768519Y-69758973D01*
X84869913Y-69791917D01*
X84971884Y-69825049D01*
X85183084Y-69858500D01*
X85183085Y-69858500D01*
X85396915Y-69858500D01*
X85396916Y-69858500D01*
X85608116Y-69825049D01*
X85811483Y-69758972D01*
X86002009Y-69661894D01*
X86175004Y-69536206D01*
X86326206Y-69385004D01*
X86451894Y-69212009D01*
X86454283Y-69207319D01*
X86502254Y-69156522D01*
X86570074Y-69139724D01*
X86636210Y-69162258D01*
X86672196Y-69203783D01*
X86672829Y-69203396D01*
X86675167Y-69207211D01*
X86675251Y-69207308D01*
X86675371Y-69207545D01*
X86675373Y-69207547D01*
X86714728Y-69261716D01*
X87347037Y-68629408D01*
X87364075Y-68692993D01*
X87429901Y-68807007D01*
X87522993Y-68900099D01*
X87637007Y-68965925D01*
X87700590Y-68982962D01*
X87068282Y-69615269D01*
X87068282Y-69615270D01*
X87122449Y-69654624D01*
X87311782Y-69751095D01*
X87513870Y-69816757D01*
X87723754Y-69850000D01*
X87936246Y-69850000D01*
X88146127Y-69816757D01*
X88146130Y-69816757D01*
X88348217Y-69751095D01*
X88537554Y-69654622D01*
X88591716Y-69615270D01*
X88591717Y-69615270D01*
X87959408Y-68982962D01*
X88022993Y-68965925D01*
X88137007Y-68900099D01*
X88230099Y-68807007D01*
X88295925Y-68692993D01*
X88312962Y-68629408D01*
X88945270Y-69261717D01*
X88945270Y-69261716D01*
X88984622Y-69207554D01*
X89081095Y-69018217D01*
X89146757Y-68816130D01*
X89146757Y-68816127D01*
X89180000Y-68606246D01*
X89180000Y-68393753D01*
X89146757Y-68183872D01*
X89146757Y-68183869D01*
X89081095Y-67981782D01*
X88984624Y-67792449D01*
X88945270Y-67738282D01*
X88945269Y-67738282D01*
X88312962Y-68370590D01*
X88295925Y-68307007D01*
X88230099Y-68192993D01*
X88137007Y-68099901D01*
X88022993Y-68034075D01*
X87959409Y-68017037D01*
X88591716Y-67384728D01*
X88537550Y-67345375D01*
X88348217Y-67248904D01*
X88146129Y-67183242D01*
X87936246Y-67150000D01*
X87723754Y-67150000D01*
X87513872Y-67183242D01*
X87513869Y-67183242D01*
X87311782Y-67248904D01*
X87122439Y-67345380D01*
X87068282Y-67384727D01*
X87068282Y-67384728D01*
X87700591Y-68017037D01*
X87637007Y-68034075D01*
X87522993Y-68099901D01*
X87429901Y-68192993D01*
X87364075Y-68307007D01*
X87347037Y-68370591D01*
X86714728Y-67738282D01*
X86714727Y-67738282D01*
X86675380Y-67792440D01*
X86675374Y-67792449D01*
X86675246Y-67792702D01*
X86675172Y-67792780D01*
X86672838Y-67796590D01*
X86672036Y-67796099D01*
X86627264Y-67843490D01*
X86559441Y-67860275D01*
X86493309Y-67837728D01*
X86454283Y-67792680D01*
X86451894Y-67787991D01*
X86326206Y-67614996D01*
X86175004Y-67463794D01*
X86002009Y-67338106D01*
X85811483Y-67241027D01*
X85811480Y-67241026D01*
X85608117Y-67174951D01*
X85502516Y-67158225D01*
X85396916Y-67141500D01*
X85183084Y-67141500D01*
X85112684Y-67152650D01*
X84971882Y-67174951D01*
X84768519Y-67241026D01*
X84768516Y-67241027D01*
X84577990Y-67338106D01*
X84404993Y-67463796D01*
X84253796Y-67614993D01*
X84128105Y-67787991D01*
X84125727Y-67791873D01*
X84073914Y-67838748D01*
X84004984Y-67850169D01*
X83940822Y-67822512D01*
X83914273Y-67791873D01*
X83911894Y-67787991D01*
X83875778Y-67738282D01*
X83786206Y-67614996D01*
X83635004Y-67463794D01*
X83462009Y-67338106D01*
X83271483Y-67241027D01*
X83271480Y-67241026D01*
X83068117Y-67174951D01*
X82962516Y-67158225D01*
X82856916Y-67141500D01*
X82643084Y-67141500D01*
X82572684Y-67152650D01*
X82431882Y-67174951D01*
X82228519Y-67241026D01*
X82228516Y-67241027D01*
X82037990Y-67338106D01*
X81864993Y-67463796D01*
X81713796Y-67614993D01*
X81588105Y-67787991D01*
X81585727Y-67791873D01*
X81533914Y-67838748D01*
X81464984Y-67850169D01*
X81400822Y-67822512D01*
X81374273Y-67791873D01*
X81371894Y-67787991D01*
X81335778Y-67738282D01*
X81246206Y-67614996D01*
X81095004Y-67463794D01*
X80922009Y-67338106D01*
X80731483Y-67241027D01*
X80731480Y-67241026D01*
X80528117Y-67174951D01*
X80422516Y-67158225D01*
X80316916Y-67141500D01*
X80103084Y-67141500D01*
X80032684Y-67152650D01*
X79891882Y-67174951D01*
X79688519Y-67241026D01*
X79688516Y-67241027D01*
X79497990Y-67338106D01*
X79324993Y-67463796D01*
X79173796Y-67614993D01*
X79048105Y-67787991D01*
X79045727Y-67791873D01*
X78993914Y-67838748D01*
X78924984Y-67850169D01*
X78860822Y-67822512D01*
X78834273Y-67791873D01*
X78831894Y-67787991D01*
X78795778Y-67738282D01*
X78706206Y-67614996D01*
X78555004Y-67463794D01*
X78382009Y-67338106D01*
X78191483Y-67241027D01*
X78191480Y-67241026D01*
X77988117Y-67174951D01*
X77882516Y-67158225D01*
X77776916Y-67141500D01*
X77563084Y-67141500D01*
X77492684Y-67152650D01*
X77351882Y-67174951D01*
X77148519Y-67241026D01*
X77148516Y-67241027D01*
X76957990Y-67338106D01*
X76784993Y-67463796D01*
X76633796Y-67614993D01*
X76508105Y-67787991D01*
X76505727Y-67791873D01*
X76453914Y-67838748D01*
X76384984Y-67850169D01*
X76320822Y-67822512D01*
X76294273Y-67791873D01*
X76291894Y-67787991D01*
X76255778Y-67738282D01*
X76166206Y-67614996D01*
X76015004Y-67463794D01*
X75842009Y-67338106D01*
X75651483Y-67241027D01*
X75651480Y-67241026D01*
X75448117Y-67174951D01*
X75342516Y-67158225D01*
X75236916Y-67141500D01*
X75023084Y-67141500D01*
X74952684Y-67152650D01*
X74811882Y-67174951D01*
X74608519Y-67241026D01*
X74608516Y-67241027D01*
X74417990Y-67338106D01*
X74244993Y-67463796D01*
X74093796Y-67614993D01*
X73968105Y-67787991D01*
X73965727Y-67791873D01*
X73913914Y-67838748D01*
X73844984Y-67850169D01*
X73780822Y-67822512D01*
X73754273Y-67791873D01*
X73751894Y-67787991D01*
X73715778Y-67738282D01*
X73626206Y-67614996D01*
X73475004Y-67463794D01*
X73302009Y-67338106D01*
X73111483Y-67241027D01*
X73111480Y-67241026D01*
X72908117Y-67174951D01*
X72802516Y-67158225D01*
X72696916Y-67141500D01*
X72483084Y-67141500D01*
X72412684Y-67152650D01*
X72271882Y-67174951D01*
X72068519Y-67241026D01*
X72068516Y-67241027D01*
X71877990Y-67338106D01*
X71704993Y-67463796D01*
X71553796Y-67614993D01*
X71428105Y-67787991D01*
X71425727Y-67791873D01*
X71373914Y-67838748D01*
X71304984Y-67850169D01*
X71240822Y-67822512D01*
X71214273Y-67791873D01*
X71211894Y-67787991D01*
X71175778Y-67738282D01*
X71086206Y-67614996D01*
X70935004Y-67463794D01*
X70762009Y-67338106D01*
X70571483Y-67241027D01*
X70571480Y-67241026D01*
X70368117Y-67174951D01*
X70262516Y-67158225D01*
X70156916Y-67141500D01*
X69943084Y-67141500D01*
X69872684Y-67152650D01*
X69731882Y-67174951D01*
X69528519Y-67241026D01*
X69528516Y-67241027D01*
X69337990Y-67338106D01*
X69164993Y-67463796D01*
X69013796Y-67614993D01*
X68888105Y-67787991D01*
X68885727Y-67791873D01*
X68833914Y-67838748D01*
X68764984Y-67850169D01*
X68700822Y-67822512D01*
X68674273Y-67791873D01*
X68671894Y-67787991D01*
X68635778Y-67738282D01*
X68546206Y-67614996D01*
X68395004Y-67463794D01*
X68222009Y-67338106D01*
X68031483Y-67241027D01*
X68031480Y-67241026D01*
X67828117Y-67174951D01*
X67722516Y-67158225D01*
X67616916Y-67141500D01*
X67403084Y-67141500D01*
X67332684Y-67152650D01*
X67191882Y-67174951D01*
X66988519Y-67241026D01*
X66988516Y-67241027D01*
X66797990Y-67338106D01*
X66624997Y-67463793D01*
X66519818Y-67568972D01*
X66458495Y-67602456D01*
X66388803Y-67597472D01*
X66332870Y-67555600D01*
X66315956Y-67524625D01*
X66270889Y-67403796D01*
X66183261Y-67286739D01*
X66066204Y-67199111D01*
X66025039Y-67183757D01*
X65929203Y-67148011D01*
X65868654Y-67141500D01*
X65868638Y-67141500D01*
X64071362Y-67141500D01*
X64071345Y-67141500D01*
X64010797Y-67148011D01*
X64010795Y-67148011D01*
X63873795Y-67199111D01*
X63756739Y-67286739D01*
X63669111Y-67403795D01*
X63618011Y-67540795D01*
X63618011Y-67540797D01*
X63611500Y-67601345D01*
X60850500Y-67601345D01*
X60850500Y-67393713D01*
X60817246Y-67183757D01*
X60751557Y-66981588D01*
X60655051Y-66792184D01*
X60655049Y-66792181D01*
X60655048Y-66792179D01*
X60530109Y-66620213D01*
X60379786Y-66469890D01*
X60207820Y-66344951D01*
X60018414Y-66248444D01*
X60018413Y-66248443D01*
X60018412Y-66248443D01*
X59999907Y-66242430D01*
X59942232Y-66202994D01*
X59915034Y-66138635D01*
X59926949Y-66069789D01*
X59974193Y-66018313D01*
X60038226Y-66000500D01*
X103875500Y-66000500D01*
X103942539Y-66020185D01*
G37*
%TD.AperFunction*%
%TD*%
M02*
