%TF.GenerationSoftware,KiCad,Pcbnew,9.0.7*%
%TF.CreationDate,2026-04-02T12:18:53-05:00*%
%TF.ProjectId,WindTurbineController,57696e64-5475-4726-9269-6e65436f6e74,rev?*%
%TF.SameCoordinates,Original*%
%TF.FileFunction,Soldermask,Bot*%
%TF.FilePolarity,Negative*%
%FSLAX46Y46*%
G04 Gerber Fmt 4.6, Leading zero omitted, Abs format (unit mm)*
G04 Created by KiCad (PCBNEW 9.0.7) date 2026-04-02 12:18:53*
%MOMM*%
%LPD*%
G01*
G04 APERTURE LIST*
%ADD10R,1.700000X1.700000*%
%ADD11C,1.700000*%
%ADD12C,2.200000*%
%ADD13R,1.600000X1.600000*%
%ADD14O,1.600000X1.600000*%
G04 APERTURE END LIST*
D10*
%TO.C,J1*%
X101900000Y-68500000D03*
D11*
X99360000Y-68500000D03*
%TD*%
D10*
%TO.C,J2*%
X95275000Y-68500000D03*
D11*
X92735000Y-68500000D03*
%TD*%
D10*
%TO.C,J3*%
X64970000Y-68500000D03*
D11*
X67510000Y-68500000D03*
X70050000Y-68500000D03*
X72590000Y-68500000D03*
X75130000Y-68500000D03*
X77670000Y-68500000D03*
X80210000Y-68500000D03*
X82750000Y-68500000D03*
X85290000Y-68500000D03*
X87830000Y-68500000D03*
%TD*%
D12*
%TO.C,J6*%
X114500000Y-71500000D03*
%TD*%
%TO.C,J7*%
X59500000Y-67500000D03*
%TD*%
D13*
%TO.C,U1*%
X61500000Y-72000000D03*
D14*
X64040000Y-72000000D03*
X66580000Y-72000000D03*
X69120000Y-72000000D03*
X71660000Y-72000000D03*
X74200000Y-72000000D03*
X76740000Y-72000000D03*
X79280000Y-72000000D03*
X81820000Y-72000000D03*
X84360000Y-72000000D03*
X86900000Y-72000000D03*
X89440000Y-72000000D03*
X91980000Y-72000000D03*
X94520000Y-72000000D03*
X97060000Y-72000000D03*
X97060000Y-87240000D03*
X94520000Y-87240000D03*
X91980000Y-87240000D03*
X89440000Y-87240000D03*
X86900000Y-87240000D03*
X84360000Y-87240000D03*
X81820000Y-87240000D03*
X79280000Y-87240000D03*
X76740000Y-87240000D03*
X74200000Y-87240000D03*
X71660000Y-87240000D03*
X69120000Y-87240000D03*
X66580000Y-87240000D03*
X64040000Y-87240000D03*
X61500000Y-87240000D03*
%TD*%
M02*
