%TF.GenerationSoftware,KiCad,Pcbnew,9.0.7*%
%TF.CreationDate,2026-04-02T12:18:53-05:00*%
%TF.ProjectId,WindTurbineController,57696e64-5475-4726-9269-6e65436f6e74,rev?*%
%TF.SameCoordinates,Original*%
%TF.FileFunction,Copper,L4,Bot*%
%TF.FilePolarity,Positive*%
%FSLAX46Y46*%
G04 Gerber Fmt 4.6, Leading zero omitted, Abs format (unit mm)*
G04 Created by KiCad (PCBNEW 9.0.7) date 2026-04-02 12:18:53*
%MOMM*%
%LPD*%
G01*
G04 APERTURE LIST*
%TA.AperFunction,ComponentPad*%
%ADD10R,1.700000X1.700000*%
%TD*%
%TA.AperFunction,ComponentPad*%
%ADD11C,1.700000*%
%TD*%
%TA.AperFunction,ComponentPad*%
%ADD12R,1.600000X1.600000*%
%TD*%
%TA.AperFunction,ComponentPad*%
%ADD13O,1.600000X1.600000*%
%TD*%
%TA.AperFunction,ViaPad*%
%ADD14C,0.800000*%
%TD*%
%TA.AperFunction,Conductor*%
%ADD15C,0.250000*%
%TD*%
G04 APERTURE END LIST*
D10*
%TO.P,J1,1,Pin_1*%
%TO.N,Net-(IC1-OUT2)*%
X101900000Y-68500000D03*
D11*
%TO.P,J1,2,Pin_2*%
%TO.N,Net-(IC1-OUT1)*%
X99360000Y-68500000D03*
%TD*%
D10*
%TO.P,J2,1,Pin_1*%
%TO.N,Net-(IC2-OUT2)*%
X95275000Y-68500000D03*
D11*
%TO.P,J2,2,Pin_2*%
%TO.N,Net-(IC2-OUT1)*%
X92735000Y-68500000D03*
%TD*%
D10*
%TO.P,J3,1,Pin_1*%
%TO.N,/~D11*%
X64970000Y-68500000D03*
D11*
%TO.P,J3,2,Pin_2*%
%TO.N,/~D10*%
X67510000Y-68500000D03*
%TO.P,J3,3,Pin_3*%
%TO.N,/D14*%
X70050000Y-68500000D03*
%TO.P,J3,4,Pin_4*%
%TO.N,/D15*%
X72590000Y-68500000D03*
%TO.P,J3,5,Pin_5*%
%TO.N,/D16*%
X75130000Y-68500000D03*
%TO.P,J3,6,Pin_6*%
%TO.N,/D17*%
X77670000Y-68500000D03*
%TO.P,J3,7,Pin_7*%
%TO.N,/SDA*%
X80210000Y-68500000D03*
%TO.P,J3,8,Pin_8*%
%TO.N,/SCL*%
X82750000Y-68500000D03*
%TO.P,J3,9,Pin_9*%
%TO.N,+5V*%
X85290000Y-68500000D03*
%TO.P,J3,10,Pin_10*%
%TO.N,GND*%
X87830000Y-68500000D03*
%TD*%
D12*
%TO.P,U1,1,D13*%
%TO.N,unconnected-(U1-D13-Pad1)*%
X61500000Y-72000000D03*
D13*
%TO.P,U1,2,+3V3*%
%TO.N,+3V3*%
X64040000Y-72000000D03*
%TO.P,U1,3,AREF*%
%TO.N,unconnected-(U1-AREF-Pad3)*%
X66580000Y-72000000D03*
%TO.P,U1,4,D14*%
%TO.N,/D14*%
X69120000Y-72000000D03*
%TO.P,U1,5,D15*%
%TO.N,/D15*%
X71660000Y-72000000D03*
%TO.P,U1,6,D16*%
%TO.N,/D16*%
X74200000Y-72000000D03*
%TO.P,U1,7,D17*%
%TO.N,/D17*%
X76740000Y-72000000D03*
%TO.P,U1,8,D18*%
%TO.N,/SDA*%
X79280000Y-72000000D03*
%TO.P,U1,9,D19*%
%TO.N,/SCL*%
X81820000Y-72000000D03*
%TO.P,U1,10,A6*%
%TO.N,unconnected-(U1-A6-Pad10)*%
X84360000Y-72000000D03*
%TO.P,U1,11,A7*%
%TO.N,unconnected-(U1-A7-Pad11)*%
X86900000Y-72000000D03*
%TO.P,U1,12,+5V*%
%TO.N,+5V*%
X89440000Y-72000000D03*
%TO.P,U1,13,RESET*%
%TO.N,unconnected-(U1-RESET-Pad13)*%
X91980000Y-72000000D03*
%TO.P,U1,14,GND*%
%TO.N,GND*%
X94520000Y-72000000D03*
%TO.P,U1,15,VIN*%
%TO.N,unconnected-(U1-VIN-Pad15)*%
X97060000Y-72000000D03*
%TO.P,U1,16,D1/TX*%
%TO.N,unconnected-(U1-D1{slash}TX-Pad16)*%
X97060000Y-87240000D03*
%TO.P,U1,17,D0/RX*%
%TO.N,unconnected-(U1-D0{slash}RX-Pad17)*%
X94520000Y-87240000D03*
%TO.P,U1,18,RESET*%
%TO.N,unconnected-(U1-RESET-Pad18)*%
X91980000Y-87240000D03*
%TO.P,U1,19,GND*%
%TO.N,GND*%
X89440000Y-87240000D03*
%TO.P,U1,20,D2*%
%TO.N,/M0_EN0*%
X86900000Y-87240000D03*
%TO.P,U1,21,~D3*%
%TO.N,/M0_EN1*%
X84360000Y-87240000D03*
%TO.P,U1,22,D4*%
%TO.N,/M0_SLEEP*%
X81820000Y-87240000D03*
%TO.P,U1,23,~D5*%
%TO.N,/M1_EN0*%
X79280000Y-87240000D03*
%TO.P,U1,24,~D6*%
%TO.N,/M1_EN1*%
X76740000Y-87240000D03*
%TO.P,U1,25,D7*%
%TO.N,/M1_SLEEP*%
X74200000Y-87240000D03*
%TO.P,U1,26,D8*%
%TO.N,/HS_N*%
X71660000Y-87240000D03*
%TO.P,U1,27,~D9*%
%TO.N,/HS_S*%
X69120000Y-87240000D03*
%TO.P,U1,28,~D10*%
%TO.N,/~D10*%
X66580000Y-87240000D03*
%TO.P,U1,29,~D11*%
%TO.N,/~D11*%
X64040000Y-87240000D03*
%TO.P,U1,30,D12*%
%TO.N,unconnected-(U1-D12-Pad30)*%
X61500000Y-87240000D03*
%TD*%
D14*
%TO.N,+5V*%
X100600000Y-84000000D03*
%TO.N,Net-(IC2-OUT1)*%
X93279300Y-83378500D03*
%TO.N,Net-(IC2-OUT2)*%
X96015000Y-84316700D03*
%TO.N,Net-(IC1-OUT1)*%
X100336200Y-77328200D03*
%TO.N,/HS_N*%
X71867500Y-70340900D03*
X107693800Y-70402300D03*
%TO.N,/HS_S*%
X69758100Y-74250000D03*
X111100000Y-70700000D03*
%TO.N,/M0_SLEEP*%
X98761300Y-74477500D03*
%TO.N,/M0_EN1*%
X86730400Y-73751600D03*
X83964500Y-88595500D03*
%TO.N,/M0_EN0*%
X103400000Y-71900000D03*
%TO.N,+3V3*%
X74276600Y-80763800D03*
X74276600Y-78011600D03*
%TO.N,/SCL*%
X84465800Y-81100000D03*
%TO.N,/SDA*%
X77977700Y-76890300D03*
%TO.N,+5V*%
X89100000Y-79700000D03*
X89500000Y-74900000D03*
%TO.N,GND*%
X61464000Y-81174100D03*
X104508800Y-80311500D03*
X108510500Y-86876700D03*
X84873100Y-77729100D03*
X63175500Y-77985100D03*
X108263000Y-83966700D03*
X100023800Y-82303200D03*
X88954300Y-81705000D03*
X111681300Y-74175000D03*
X101353800Y-74993200D03*
X107496000Y-82020000D03*
%TD*%
D15*
%TO.N,/M0_EN0*%
X86900000Y-86800000D02*
X86900000Y-87240000D01*
X98596500Y-75103500D02*
X86900000Y-86800000D01*
X99020598Y-75103500D02*
X98596500Y-75103500D01*
X99387300Y-74312700D02*
X99387300Y-74736798D01*
X102347500Y-72552500D02*
X101147500Y-72552500D01*
X103400000Y-71900000D02*
X103000000Y-71900000D01*
X103000000Y-71900000D02*
X102347500Y-72552500D01*
X101147500Y-72552500D02*
X99387300Y-74312700D01*
X99387300Y-74736798D02*
X99020598Y-75103500D01*
%TO.N,/M0_SLEEP*%
X86610000Y-86190000D02*
X98322500Y-74477500D01*
X83920000Y-86190000D02*
X86610000Y-86190000D01*
X98322500Y-74477500D02*
X98761300Y-74477500D01*
X81820000Y-87240000D02*
X82870000Y-87240000D01*
X82870000Y-87240000D02*
X83920000Y-86190000D01*
%TO.N,/D16*%
X75130000Y-70020000D02*
X74200000Y-70950000D01*
X75130000Y-68500000D02*
X75130000Y-70020000D01*
X74200000Y-72000000D02*
X74200000Y-70950000D01*
%TO.N,/D17*%
X77670000Y-70020000D02*
X76740000Y-70950000D01*
X77670000Y-68500000D02*
X77670000Y-70020000D01*
X76740000Y-72000000D02*
X76740000Y-70950000D01*
%TO.N,/~D10*%
X67629900Y-85140100D02*
X66580000Y-86190000D01*
X67629900Y-68619900D02*
X67629900Y-85140100D01*
X67510000Y-68500000D02*
X67629900Y-68619900D01*
X66580000Y-87240000D02*
X66580000Y-86190000D01*
%TO.N,/~D11*%
X65089900Y-85140100D02*
X64040000Y-86190000D01*
X65089900Y-69719900D02*
X65089900Y-85140100D01*
X64970000Y-69600000D02*
X65089900Y-69719900D01*
X64970000Y-68500000D02*
X64970000Y-69600000D01*
X64040000Y-87240000D02*
X64040000Y-86190000D01*
%TO.N,/D15*%
X71240800Y-71580800D02*
X71660000Y-72000000D01*
X71240800Y-69849200D02*
X71240800Y-71580800D01*
X72590000Y-68500000D02*
X71240800Y-69849200D01*
%TO.N,/D14*%
X69120000Y-69430000D02*
X70050000Y-68500000D01*
X69120000Y-72000000D02*
X69120000Y-69430000D01*
%TO.N,/HS_N*%
X72715700Y-71189100D02*
X71867500Y-70340900D01*
X72715700Y-85134300D02*
X72715700Y-71189100D01*
X71660000Y-86190000D02*
X72715700Y-85134300D01*
X71660000Y-87240000D02*
X71660000Y-86190000D01*
%TO.N,/HS_S*%
X69758100Y-85551900D02*
X69758100Y-74250000D01*
X69120000Y-86190000D02*
X69758100Y-85551900D01*
X69120000Y-87240000D02*
X69120000Y-86190000D01*
%TO.N,/SCL*%
X81820000Y-69430000D02*
X82750000Y-68500000D01*
X81820000Y-72000000D02*
X81820000Y-69430000D01*
%TO.N,/SDA*%
X79280000Y-69430000D02*
X80210000Y-68500000D01*
X79280000Y-72000000D02*
X79280000Y-69430000D01*
X79280000Y-75588000D02*
X79280000Y-72000000D01*
X77977700Y-76890300D02*
X79280000Y-75588000D01*
%TD*%
%TA.AperFunction,Conductor*%
%TO.N,GND*%
G36*
X103941621Y-66020502D02*
G01*
X103988114Y-66074158D01*
X103999500Y-66126500D01*
X103999500Y-69098544D01*
X104037949Y-69291835D01*
X104037950Y-69291838D01*
X104076541Y-69385006D01*
X104113368Y-69473914D01*
X104222861Y-69637782D01*
X104362218Y-69777139D01*
X104526086Y-69886632D01*
X104708165Y-69962051D01*
X104901459Y-70000500D01*
X106693893Y-70000500D01*
X106762014Y-70020502D01*
X106808507Y-70074158D01*
X106818611Y-70144432D01*
X106817472Y-70151082D01*
X106785300Y-70312818D01*
X106785300Y-70312821D01*
X106785300Y-70491779D01*
X106820213Y-70667300D01*
X106888698Y-70832636D01*
X106988122Y-70981435D01*
X107114665Y-71107978D01*
X107263464Y-71207402D01*
X107428800Y-71275887D01*
X107604321Y-71310800D01*
X107604322Y-71310800D01*
X107783278Y-71310800D01*
X107783279Y-71310800D01*
X107958800Y-71275887D01*
X108124136Y-71207402D01*
X108272935Y-71107978D01*
X108399478Y-70981435D01*
X108498902Y-70832636D01*
X108567387Y-70667300D01*
X108602300Y-70491779D01*
X108602300Y-70312821D01*
X108570128Y-70151080D01*
X108576456Y-70080368D01*
X108620010Y-70024300D01*
X108686963Y-70000681D01*
X108693707Y-70000500D01*
X110239018Y-70000500D01*
X110307139Y-70020502D01*
X110353632Y-70074158D01*
X110363736Y-70144432D01*
X110343783Y-70196501D01*
X110294900Y-70269659D01*
X110294899Y-70269660D01*
X110226414Y-70434996D01*
X110191500Y-70610518D01*
X110191500Y-70789481D01*
X110202626Y-70845412D01*
X110224184Y-70953796D01*
X110226414Y-70965003D01*
X110241870Y-71002317D01*
X110294898Y-71130336D01*
X110394322Y-71279135D01*
X110520865Y-71405678D01*
X110669664Y-71505102D01*
X110835000Y-71573587D01*
X111010521Y-71608500D01*
X111010522Y-71608500D01*
X111189478Y-71608500D01*
X111189479Y-71608500D01*
X111365000Y-71573587D01*
X111530336Y-71505102D01*
X111679135Y-71405678D01*
X111805678Y-71279135D01*
X111905102Y-71130336D01*
X111973587Y-70965000D01*
X112008500Y-70789479D01*
X112008500Y-70610521D01*
X111973587Y-70435000D01*
X111905102Y-70269664D01*
X111905101Y-70269662D01*
X111905100Y-70269660D01*
X111905099Y-70269659D01*
X111856217Y-70196501D01*
X111835002Y-70128749D01*
X111853785Y-70060282D01*
X111906603Y-70012839D01*
X111960982Y-70000500D01*
X113949147Y-70000500D01*
X114017268Y-70020502D01*
X114063761Y-70074158D01*
X114073865Y-70144432D01*
X114044371Y-70209012D01*
X113988082Y-70246333D01*
X113981595Y-70248440D01*
X113981586Y-70248444D01*
X113792180Y-70344951D01*
X113620205Y-70469898D01*
X113620202Y-70469900D01*
X113469900Y-70620202D01*
X113469898Y-70620205D01*
X113344951Y-70792180D01*
X113248444Y-70981586D01*
X113248443Y-70981588D01*
X113193284Y-71151350D01*
X113182754Y-71183757D01*
X113149500Y-71393713D01*
X113149500Y-71606287D01*
X113182754Y-71816243D01*
X113248443Y-72018412D01*
X113344949Y-72207816D01*
X113469896Y-72379792D01*
X113469898Y-72379794D01*
X113469900Y-72379797D01*
X113620202Y-72530099D01*
X113620205Y-72530101D01*
X113620208Y-72530104D01*
X113792184Y-72655051D01*
X113981588Y-72751557D01*
X114183757Y-72817246D01*
X114393713Y-72850500D01*
X114393716Y-72850500D01*
X114606284Y-72850500D01*
X114606287Y-72850500D01*
X114816243Y-72817246D01*
X115018412Y-72751557D01*
X115207816Y-72655051D01*
X115379792Y-72530104D01*
X115530104Y-72379792D01*
X115655051Y-72207816D01*
X115751557Y-72018412D01*
X115753667Y-72011917D01*
X115793740Y-71953312D01*
X115859136Y-71925674D01*
X115929093Y-71937780D01*
X115981400Y-71985786D01*
X115999500Y-72050853D01*
X115999500Y-88873500D01*
X115979498Y-88941621D01*
X115925842Y-88988114D01*
X115873500Y-88999500D01*
X84963969Y-88999500D01*
X84895848Y-88979498D01*
X84849355Y-88925842D01*
X84839251Y-88855568D01*
X84840385Y-88848946D01*
X84873000Y-88684979D01*
X84873000Y-88524389D01*
X84893002Y-88456268D01*
X84941794Y-88412123D01*
X85045803Y-88359129D01*
X85212430Y-88238068D01*
X85358068Y-88092430D01*
X85479129Y-87925803D01*
X85517734Y-87850034D01*
X85566481Y-87798422D01*
X85635396Y-87781356D01*
X85702598Y-87804257D01*
X85742264Y-87850034D01*
X85780871Y-87925803D01*
X85901932Y-88092430D01*
X85901934Y-88092432D01*
X85901936Y-88092435D01*
X86047564Y-88238063D01*
X86047567Y-88238065D01*
X86047570Y-88238068D01*
X86214197Y-88359129D01*
X86397710Y-88452634D01*
X86593592Y-88516280D01*
X86797019Y-88548500D01*
X86797022Y-88548500D01*
X87002978Y-88548500D01*
X87002981Y-88548500D01*
X87206408Y-88516280D01*
X87402290Y-88452634D01*
X87585803Y-88359129D01*
X87752430Y-88238068D01*
X87898068Y-88092430D01*
X88019129Y-87925803D01*
X88058014Y-87849486D01*
X88106759Y-87797874D01*
X88175674Y-87780807D01*
X88242876Y-87803707D01*
X88282545Y-87849487D01*
X88321298Y-87925542D01*
X88442315Y-88092107D01*
X88442317Y-88092110D01*
X88587889Y-88237682D01*
X88587892Y-88237684D01*
X88754454Y-88358699D01*
X88937900Y-88452170D01*
X88937906Y-88452173D01*
X89133705Y-88515791D01*
X89133717Y-88515794D01*
X89185999Y-88524074D01*
X89186000Y-88524074D01*
X89186000Y-87670702D01*
X89247007Y-87705925D01*
X89374174Y-87740000D01*
X89505826Y-87740000D01*
X89632993Y-87705925D01*
X89694000Y-87670702D01*
X89694000Y-88524074D01*
X89746282Y-88515794D01*
X89746294Y-88515791D01*
X89942093Y-88452173D01*
X89942099Y-88452170D01*
X90125545Y-88358699D01*
X90292107Y-88237684D01*
X90292110Y-88237682D01*
X90437682Y-88092110D01*
X90437684Y-88092107D01*
X90558699Y-87925545D01*
X90597453Y-87849488D01*
X90646201Y-87797873D01*
X90715116Y-87780807D01*
X90782318Y-87803708D01*
X90821985Y-87849486D01*
X90860871Y-87925803D01*
X90981932Y-88092430D01*
X90981934Y-88092432D01*
X90981936Y-88092435D01*
X91127564Y-88238063D01*
X91127567Y-88238065D01*
X91127570Y-88238068D01*
X91294197Y-88359129D01*
X91477710Y-88452634D01*
X91673592Y-88516280D01*
X91877019Y-88548500D01*
X91877022Y-88548500D01*
X92082978Y-88548500D01*
X92082981Y-88548500D01*
X92286408Y-88516280D01*
X92482290Y-88452634D01*
X92665803Y-88359129D01*
X92832430Y-88238068D01*
X92978068Y-88092430D01*
X93099129Y-87925803D01*
X93137734Y-87850034D01*
X93186481Y-87798422D01*
X93255396Y-87781356D01*
X93322598Y-87804257D01*
X93362264Y-87850034D01*
X93400871Y-87925803D01*
X93521932Y-88092430D01*
X93521934Y-88092432D01*
X93521936Y-88092435D01*
X93667564Y-88238063D01*
X93667567Y-88238065D01*
X93667570Y-88238068D01*
X93834197Y-88359129D01*
X94017710Y-88452634D01*
X94213592Y-88516280D01*
X94417019Y-88548500D01*
X94417022Y-88548500D01*
X94622978Y-88548500D01*
X94622981Y-88548500D01*
X94826408Y-88516280D01*
X95022290Y-88452634D01*
X95205803Y-88359129D01*
X95372430Y-88238068D01*
X95518068Y-88092430D01*
X95639129Y-87925803D01*
X95677734Y-87850034D01*
X95726481Y-87798422D01*
X95795396Y-87781356D01*
X95862598Y-87804257D01*
X95902264Y-87850034D01*
X95940871Y-87925803D01*
X96061932Y-88092430D01*
X96061934Y-88092432D01*
X96061936Y-88092435D01*
X96207564Y-88238063D01*
X96207567Y-88238065D01*
X96207570Y-88238068D01*
X96374197Y-88359129D01*
X96557710Y-88452634D01*
X96753592Y-88516280D01*
X96957019Y-88548500D01*
X96957022Y-88548500D01*
X97162978Y-88548500D01*
X97162981Y-88548500D01*
X97366408Y-88516280D01*
X97562290Y-88452634D01*
X97745803Y-88359129D01*
X97912430Y-88238068D01*
X98058068Y-88092430D01*
X98179129Y-87925803D01*
X98272634Y-87742290D01*
X98336280Y-87546408D01*
X98368500Y-87342981D01*
X98368500Y-87137019D01*
X98336280Y-86933592D01*
X98272634Y-86737710D01*
X98179129Y-86554197D01*
X98058068Y-86387570D01*
X98058065Y-86387567D01*
X98058063Y-86387564D01*
X97912435Y-86241936D01*
X97912432Y-86241934D01*
X97912430Y-86241932D01*
X97783977Y-86148606D01*
X97745806Y-86120873D01*
X97745805Y-86120872D01*
X97745803Y-86120871D01*
X97562290Y-86027366D01*
X97562287Y-86027365D01*
X97562285Y-86027364D01*
X97366412Y-85963721D01*
X97366410Y-85963720D01*
X97366408Y-85963720D01*
X97162981Y-85931500D01*
X96957019Y-85931500D01*
X96753592Y-85963720D01*
X96753590Y-85963720D01*
X96753587Y-85963721D01*
X96557714Y-86027364D01*
X96557708Y-86027367D01*
X96374193Y-86120873D01*
X96207567Y-86241934D01*
X96207564Y-86241936D01*
X96061936Y-86387564D01*
X96061934Y-86387567D01*
X95940873Y-86554193D01*
X95902267Y-86629962D01*
X95853518Y-86681577D01*
X95784603Y-86698643D01*
X95717402Y-86675742D01*
X95677733Y-86629962D01*
X95646749Y-86569153D01*
X95639129Y-86554197D01*
X95518068Y-86387570D01*
X95518065Y-86387567D01*
X95518063Y-86387564D01*
X95372435Y-86241936D01*
X95372432Y-86241934D01*
X95372430Y-86241932D01*
X95243977Y-86148606D01*
X95205806Y-86120873D01*
X95205805Y-86120872D01*
X95205803Y-86120871D01*
X95022290Y-86027366D01*
X95022287Y-86027365D01*
X95022285Y-86027364D01*
X94826412Y-85963721D01*
X94826410Y-85963720D01*
X94826408Y-85963720D01*
X94622981Y-85931500D01*
X94417019Y-85931500D01*
X94213592Y-85963720D01*
X94213590Y-85963720D01*
X94213587Y-85963721D01*
X94017714Y-86027364D01*
X94017708Y-86027367D01*
X93834193Y-86120873D01*
X93667567Y-86241934D01*
X93667564Y-86241936D01*
X93521936Y-86387564D01*
X93521934Y-86387567D01*
X93400873Y-86554193D01*
X93362267Y-86629962D01*
X93313518Y-86681577D01*
X93244603Y-86698643D01*
X93177402Y-86675742D01*
X93137733Y-86629962D01*
X93106749Y-86569153D01*
X93099129Y-86554197D01*
X92978068Y-86387570D01*
X92978065Y-86387567D01*
X92978063Y-86387564D01*
X92832435Y-86241936D01*
X92832432Y-86241934D01*
X92832430Y-86241932D01*
X92703977Y-86148606D01*
X92665806Y-86120873D01*
X92665805Y-86120872D01*
X92665803Y-86120871D01*
X92482290Y-86027366D01*
X92482287Y-86027365D01*
X92482285Y-86027364D01*
X92286412Y-85963721D01*
X92286410Y-85963720D01*
X92286408Y-85963720D01*
X92082981Y-85931500D01*
X91877019Y-85931500D01*
X91673592Y-85963720D01*
X91673590Y-85963720D01*
X91673587Y-85963721D01*
X91477714Y-86027364D01*
X91477708Y-86027367D01*
X91294193Y-86120873D01*
X91127567Y-86241934D01*
X91127564Y-86241936D01*
X90981936Y-86387564D01*
X90981934Y-86387567D01*
X90860872Y-86554193D01*
X90821987Y-86630511D01*
X90773238Y-86682126D01*
X90704323Y-86699192D01*
X90637122Y-86676291D01*
X90597453Y-86630511D01*
X90558700Y-86554455D01*
X90437684Y-86387892D01*
X90437682Y-86387889D01*
X90292110Y-86242317D01*
X90292107Y-86242315D01*
X90125545Y-86121300D01*
X89942099Y-86027829D01*
X89942093Y-86027826D01*
X89746294Y-85964208D01*
X89746296Y-85964208D01*
X89694000Y-85955925D01*
X89694000Y-86809297D01*
X89632993Y-86774075D01*
X89505826Y-86740000D01*
X89374174Y-86740000D01*
X89247007Y-86774075D01*
X89186000Y-86809297D01*
X89186000Y-85955925D01*
X89133704Y-85964208D01*
X88937906Y-86027826D01*
X88937894Y-86027831D01*
X88892704Y-86050857D01*
X88822927Y-86063961D01*
X88757143Y-86037260D01*
X88716237Y-85979232D01*
X88713197Y-85908301D01*
X88746405Y-85849497D01*
X91306885Y-83289018D01*
X92370800Y-83289018D01*
X92370800Y-83289021D01*
X92370800Y-83467979D01*
X92405713Y-83643500D01*
X92474198Y-83808836D01*
X92573622Y-83957635D01*
X92700165Y-84084178D01*
X92848964Y-84183602D01*
X93014300Y-84252087D01*
X93189821Y-84287000D01*
X93189822Y-84287000D01*
X93368778Y-84287000D01*
X93368779Y-84287000D01*
X93544300Y-84252087D01*
X93604339Y-84227218D01*
X95106500Y-84227218D01*
X95106500Y-84227221D01*
X95106500Y-84406179D01*
X95141413Y-84581700D01*
X95209898Y-84747036D01*
X95309322Y-84895835D01*
X95435865Y-85022378D01*
X95584664Y-85121802D01*
X95750000Y-85190287D01*
X95925521Y-85225200D01*
X95925522Y-85225200D01*
X96104478Y-85225200D01*
X96104479Y-85225200D01*
X96280000Y-85190287D01*
X96445336Y-85121802D01*
X96594135Y-85022378D01*
X96720678Y-84895835D01*
X96820102Y-84747036D01*
X96888587Y-84581700D01*
X96923500Y-84406179D01*
X96923500Y-84227221D01*
X96888587Y-84051700D01*
X96849624Y-83957637D01*
X96847537Y-83952597D01*
X96847517Y-83952550D01*
X96830107Y-83910518D01*
X99691500Y-83910518D01*
X99691500Y-83910521D01*
X99691500Y-84089479D01*
X99726413Y-84265000D01*
X99794898Y-84430336D01*
X99894322Y-84579135D01*
X100020865Y-84705678D01*
X100169664Y-84805102D01*
X100335000Y-84873587D01*
X100510521Y-84908500D01*
X100510522Y-84908500D01*
X100689478Y-84908500D01*
X100689479Y-84908500D01*
X100865000Y-84873587D01*
X101030336Y-84805102D01*
X101179135Y-84705678D01*
X101305678Y-84579135D01*
X101405102Y-84430336D01*
X101473587Y-84265000D01*
X101508500Y-84089479D01*
X101508500Y-83910521D01*
X101473587Y-83735000D01*
X101405102Y-83569664D01*
X101305678Y-83420865D01*
X101179135Y-83294322D01*
X101030336Y-83194898D01*
X100913429Y-83146473D01*
X100865003Y-83126414D01*
X100865001Y-83126413D01*
X100865000Y-83126413D01*
X100776645Y-83108838D01*
X100689481Y-83091500D01*
X100689479Y-83091500D01*
X100510521Y-83091500D01*
X100510518Y-83091500D01*
X100379771Y-83117507D01*
X100335000Y-83126413D01*
X100334999Y-83126413D01*
X100334996Y-83126414D01*
X100203902Y-83180716D01*
X100172470Y-83193736D01*
X100169662Y-83194899D01*
X100020869Y-83294319D01*
X100020862Y-83294324D01*
X99894324Y-83420862D01*
X99894319Y-83420869D01*
X99794899Y-83569662D01*
X99726414Y-83734996D01*
X99726413Y-83734999D01*
X99726413Y-83735000D01*
X99725903Y-83737565D01*
X99691500Y-83910518D01*
X96830107Y-83910518D01*
X96820102Y-83886364D01*
X96720678Y-83737565D01*
X96594135Y-83611022D01*
X96445336Y-83511598D01*
X96328429Y-83463173D01*
X96280003Y-83443114D01*
X96280001Y-83443113D01*
X96280000Y-83443113D01*
X96168136Y-83420862D01*
X96104481Y-83408200D01*
X96104479Y-83408200D01*
X95925521Y-83408200D01*
X95925518Y-83408200D01*
X95794771Y-83434207D01*
X95750000Y-83443113D01*
X95749999Y-83443113D01*
X95749996Y-83443114D01*
X95584662Y-83511599D01*
X95435869Y-83611019D01*
X95435862Y-83611024D01*
X95309324Y-83737562D01*
X95309319Y-83737569D01*
X95209899Y-83886362D01*
X95141414Y-84051696D01*
X95106500Y-84227218D01*
X93604339Y-84227218D01*
X93709636Y-84183602D01*
X93858435Y-84084178D01*
X93984978Y-83957635D01*
X94084402Y-83808836D01*
X94152887Y-83643500D01*
X94187800Y-83467979D01*
X94187800Y-83289021D01*
X94152887Y-83113500D01*
X94084402Y-82948164D01*
X93984978Y-82799365D01*
X93858435Y-82672822D01*
X93709636Y-82573398D01*
X93592729Y-82524973D01*
X93544303Y-82504914D01*
X93544301Y-82504913D01*
X93544300Y-82504913D01*
X93455945Y-82487338D01*
X93368781Y-82470000D01*
X93368779Y-82470000D01*
X93189821Y-82470000D01*
X93189818Y-82470000D01*
X93059071Y-82496007D01*
X93014300Y-82504913D01*
X93014299Y-82504913D01*
X93014296Y-82504914D01*
X92848962Y-82573399D01*
X92700169Y-82672819D01*
X92700162Y-82672824D01*
X92573624Y-82799362D01*
X92573619Y-82799369D01*
X92474199Y-82948162D01*
X92405714Y-83113496D01*
X92405713Y-83113499D01*
X92405713Y-83113500D01*
X92403144Y-83126414D01*
X92370800Y-83289018D01*
X91306885Y-83289018D01*
X97357186Y-77238718D01*
X99427700Y-77238718D01*
X99427700Y-77417681D01*
X99437994Y-77469430D01*
X99460238Y-77581262D01*
X99462614Y-77593203D01*
X99482673Y-77641629D01*
X99531098Y-77758536D01*
X99630522Y-77907335D01*
X99757065Y-78033878D01*
X99905864Y-78133302D01*
X100071200Y-78201787D01*
X100246721Y-78236700D01*
X100246722Y-78236700D01*
X100425678Y-78236700D01*
X100425679Y-78236700D01*
X100601200Y-78201787D01*
X100766536Y-78133302D01*
X100915335Y-78033878D01*
X101041878Y-77907335D01*
X101141302Y-77758536D01*
X101209787Y-77593200D01*
X101244700Y-77417679D01*
X101244700Y-77238721D01*
X101209787Y-77063200D01*
X101141302Y-76897864D01*
X101041878Y-76749065D01*
X100915335Y-76622522D01*
X100766536Y-76523098D01*
X100649629Y-76474673D01*
X100601203Y-76454614D01*
X100601201Y-76454613D01*
X100601200Y-76454613D01*
X100512845Y-76437038D01*
X100425681Y-76419700D01*
X100425679Y-76419700D01*
X100246721Y-76419700D01*
X100246718Y-76419700D01*
X100115971Y-76445707D01*
X100071200Y-76454613D01*
X100071199Y-76454613D01*
X100071196Y-76454614D01*
X99905862Y-76523099D01*
X99757069Y-76622519D01*
X99757062Y-76622524D01*
X99630524Y-76749062D01*
X99630519Y-76749069D01*
X99531099Y-76897862D01*
X99462614Y-77063196D01*
X99427700Y-77238718D01*
X97357186Y-77238718D01*
X98821999Y-75773905D01*
X98884311Y-75739879D01*
X98911094Y-75737000D01*
X99082991Y-75737000D01*
X99082992Y-75737000D01*
X99205383Y-75712655D01*
X99320673Y-75664900D01*
X99424431Y-75595571D01*
X99879371Y-75140631D01*
X99948700Y-75036873D01*
X99996455Y-74921583D01*
X100020800Y-74799192D01*
X100020800Y-74674404D01*
X100020800Y-74627294D01*
X100040802Y-74559173D01*
X100057705Y-74538199D01*
X101373000Y-73222905D01*
X101435312Y-73188879D01*
X101462095Y-73186000D01*
X102409893Y-73186000D01*
X102409894Y-73186000D01*
X102532285Y-73161655D01*
X102647575Y-73113900D01*
X102751333Y-73044571D01*
X102995790Y-72800112D01*
X103058100Y-72766089D01*
X103128916Y-72771153D01*
X103133064Y-72772785D01*
X103135000Y-72773587D01*
X103310521Y-72808500D01*
X103310522Y-72808500D01*
X103489478Y-72808500D01*
X103489479Y-72808500D01*
X103665000Y-72773587D01*
X103830336Y-72705102D01*
X103979135Y-72605678D01*
X104105678Y-72479135D01*
X104205102Y-72330336D01*
X104273587Y-72165000D01*
X104308500Y-71989479D01*
X104308500Y-71810521D01*
X104273587Y-71635000D01*
X104205102Y-71469664D01*
X104105678Y-71320865D01*
X103979135Y-71194322D01*
X103830336Y-71094898D01*
X103708352Y-71044370D01*
X103665003Y-71026414D01*
X103665001Y-71026413D01*
X103665000Y-71026413D01*
X103553905Y-71004315D01*
X103489481Y-70991500D01*
X103489479Y-70991500D01*
X103310521Y-70991500D01*
X103310518Y-70991500D01*
X103180980Y-71017267D01*
X103135000Y-71026413D01*
X103134999Y-71026413D01*
X103134996Y-71026414D01*
X103044837Y-71063760D01*
X102979570Y-71090795D01*
X102969662Y-71094899D01*
X102820869Y-71194319D01*
X102820867Y-71194320D01*
X102694323Y-71320863D01*
X102694321Y-71320865D01*
X102682315Y-71338833D01*
X102647557Y-71373590D01*
X102596166Y-71407929D01*
X102596165Y-71407930D01*
X102470021Y-71534075D01*
X102121999Y-71882096D01*
X102059689Y-71916120D01*
X102032906Y-71919000D01*
X101085100Y-71919000D01*
X100962717Y-71943344D01*
X100962709Y-71943346D01*
X100928947Y-71957330D01*
X100928947Y-71957331D01*
X100860252Y-71985786D01*
X100847425Y-71991099D01*
X100743671Y-72060425D01*
X100743664Y-72060430D01*
X99208785Y-73595309D01*
X99146473Y-73629335D01*
X99075657Y-73624270D01*
X99071473Y-73622623D01*
X99026310Y-73603916D01*
X99026300Y-73603913D01*
X98850781Y-73569000D01*
X98850779Y-73569000D01*
X98671821Y-73569000D01*
X98671818Y-73569000D01*
X98541071Y-73595007D01*
X98496300Y-73603913D01*
X98496299Y-73603913D01*
X98496296Y-73603914D01*
X98365202Y-73658216D01*
X98334656Y-73670869D01*
X98330962Y-73672399D01*
X98182169Y-73771819D01*
X98182167Y-73771820D01*
X98066542Y-73887444D01*
X98025674Y-73914753D01*
X98022428Y-73916097D01*
X98022424Y-73916099D01*
X97918671Y-73985425D01*
X97918664Y-73985431D01*
X86384501Y-85519595D01*
X86322189Y-85553621D01*
X86295406Y-85556500D01*
X83857603Y-85556500D01*
X83784568Y-85571028D01*
X83735215Y-85580845D01*
X83735213Y-85580845D01*
X83735212Y-85580846D01*
X83619923Y-85628601D01*
X83516171Y-85697926D01*
X83516169Y-85697927D01*
X82911391Y-86302703D01*
X82849079Y-86336728D01*
X82778263Y-86331663D01*
X82733201Y-86302702D01*
X82672435Y-86241936D01*
X82672432Y-86241934D01*
X82672430Y-86241932D01*
X82543977Y-86148606D01*
X82505806Y-86120873D01*
X82505805Y-86120872D01*
X82505803Y-86120871D01*
X82322290Y-86027366D01*
X82322287Y-86027365D01*
X82322285Y-86027364D01*
X82126412Y-85963721D01*
X82126410Y-85963720D01*
X82126408Y-85963720D01*
X81922981Y-85931500D01*
X81717019Y-85931500D01*
X81513592Y-85963720D01*
X81513590Y-85963720D01*
X81513587Y-85963721D01*
X81317714Y-86027364D01*
X81317708Y-86027367D01*
X81134193Y-86120873D01*
X80967567Y-86241934D01*
X80967564Y-86241936D01*
X80821936Y-86387564D01*
X80821934Y-86387567D01*
X80700873Y-86554193D01*
X80662267Y-86629962D01*
X80613518Y-86681577D01*
X80544603Y-86698643D01*
X80477402Y-86675742D01*
X80437733Y-86629962D01*
X80406749Y-86569153D01*
X80399129Y-86554197D01*
X80278068Y-86387570D01*
X80278065Y-86387567D01*
X80278063Y-86387564D01*
X80132435Y-86241936D01*
X80132432Y-86241934D01*
X80132430Y-86241932D01*
X80003977Y-86148606D01*
X79965806Y-86120873D01*
X79965805Y-86120872D01*
X79965803Y-86120871D01*
X79782290Y-86027366D01*
X79782287Y-86027365D01*
X79782285Y-86027364D01*
X79586412Y-85963721D01*
X79586410Y-85963720D01*
X79586408Y-85963720D01*
X79382981Y-85931500D01*
X79177019Y-85931500D01*
X78973592Y-85963720D01*
X78973590Y-85963720D01*
X78973587Y-85963721D01*
X78777714Y-86027364D01*
X78777708Y-86027367D01*
X78594193Y-86120873D01*
X78427567Y-86241934D01*
X78427564Y-86241936D01*
X78281936Y-86387564D01*
X78281934Y-86387567D01*
X78160873Y-86554193D01*
X78122267Y-86629962D01*
X78073518Y-86681577D01*
X78004603Y-86698643D01*
X77937402Y-86675742D01*
X77897733Y-86629962D01*
X77866749Y-86569153D01*
X77859129Y-86554197D01*
X77738068Y-86387570D01*
X77738065Y-86387567D01*
X77738063Y-86387564D01*
X77592435Y-86241936D01*
X77592432Y-86241934D01*
X77592430Y-86241932D01*
X77463977Y-86148606D01*
X77425806Y-86120873D01*
X77425805Y-86120872D01*
X77425803Y-86120871D01*
X77242290Y-86027366D01*
X77242287Y-86027365D01*
X77242285Y-86027364D01*
X77046412Y-85963721D01*
X77046410Y-85963720D01*
X77046408Y-85963720D01*
X76842981Y-85931500D01*
X76637019Y-85931500D01*
X76433592Y-85963720D01*
X76433590Y-85963720D01*
X76433587Y-85963721D01*
X76237714Y-86027364D01*
X76237708Y-86027367D01*
X76054193Y-86120873D01*
X75887567Y-86241934D01*
X75887564Y-86241936D01*
X75741936Y-86387564D01*
X75741934Y-86387567D01*
X75620873Y-86554193D01*
X75582267Y-86629962D01*
X75533518Y-86681577D01*
X75464603Y-86698643D01*
X75397402Y-86675742D01*
X75357733Y-86629962D01*
X75326749Y-86569153D01*
X75319129Y-86554197D01*
X75198068Y-86387570D01*
X75198065Y-86387567D01*
X75198063Y-86387564D01*
X75052435Y-86241936D01*
X75052432Y-86241934D01*
X75052430Y-86241932D01*
X74923977Y-86148606D01*
X74885806Y-86120873D01*
X74885805Y-86120872D01*
X74885803Y-86120871D01*
X74702290Y-86027366D01*
X74702287Y-86027365D01*
X74702285Y-86027364D01*
X74506412Y-85963721D01*
X74506410Y-85963720D01*
X74506408Y-85963720D01*
X74302981Y-85931500D01*
X74097019Y-85931500D01*
X73893592Y-85963720D01*
X73893590Y-85963720D01*
X73893587Y-85963721D01*
X73697714Y-86027364D01*
X73697708Y-86027367D01*
X73514193Y-86120873D01*
X73347567Y-86241934D01*
X73347564Y-86241936D01*
X73201936Y-86387564D01*
X73201934Y-86387567D01*
X73080873Y-86554193D01*
X73042267Y-86629962D01*
X72993518Y-86681577D01*
X72924603Y-86698643D01*
X72857402Y-86675742D01*
X72817733Y-86629962D01*
X72786749Y-86569153D01*
X72779129Y-86554197D01*
X72658068Y-86387570D01*
X72658065Y-86387567D01*
X72658063Y-86387564D01*
X72597296Y-86326797D01*
X72563270Y-86264485D01*
X72568335Y-86193670D01*
X72597293Y-86148609D01*
X73207771Y-85538133D01*
X73277100Y-85434375D01*
X73324855Y-85319085D01*
X73349200Y-85196694D01*
X73349200Y-85071906D01*
X73349200Y-81424911D01*
X73369202Y-81356790D01*
X73422858Y-81310297D01*
X73493132Y-81300193D01*
X73557712Y-81329687D01*
X73566445Y-81338657D01*
X73566545Y-81338558D01*
X73570922Y-81342935D01*
X73697465Y-81469478D01*
X73846264Y-81568902D01*
X74011600Y-81637387D01*
X74187121Y-81672300D01*
X74187122Y-81672300D01*
X74366078Y-81672300D01*
X74366079Y-81672300D01*
X74541600Y-81637387D01*
X74706936Y-81568902D01*
X74855735Y-81469478D01*
X74982278Y-81342935D01*
X75081702Y-81194136D01*
X75150187Y-81028800D01*
X75153823Y-81010518D01*
X83557300Y-81010518D01*
X83557300Y-81189481D01*
X83574638Y-81276645D01*
X83592213Y-81365000D01*
X83660698Y-81530336D01*
X83760122Y-81679135D01*
X83886665Y-81805678D01*
X84035464Y-81905102D01*
X84200800Y-81973587D01*
X84376321Y-82008500D01*
X84376322Y-82008500D01*
X84555278Y-82008500D01*
X84555279Y-82008500D01*
X84730800Y-81973587D01*
X84896136Y-81905102D01*
X85044935Y-81805678D01*
X85171478Y-81679135D01*
X85270902Y-81530336D01*
X85339387Y-81365000D01*
X85374300Y-81189479D01*
X85374300Y-81010521D01*
X85339387Y-80835000D01*
X85270902Y-80669664D01*
X85171478Y-80520865D01*
X85044935Y-80394322D01*
X84896136Y-80294898D01*
X84779229Y-80246473D01*
X84730803Y-80226414D01*
X84730801Y-80226413D01*
X84730800Y-80226413D01*
X84642445Y-80208838D01*
X84555281Y-80191500D01*
X84555279Y-80191500D01*
X84376321Y-80191500D01*
X84376318Y-80191500D01*
X84245571Y-80217507D01*
X84200800Y-80226413D01*
X84200799Y-80226413D01*
X84200796Y-80226414D01*
X84035462Y-80294899D01*
X83886669Y-80394319D01*
X83886662Y-80394324D01*
X83760124Y-80520862D01*
X83760119Y-80520869D01*
X83660699Y-80669662D01*
X83592214Y-80834996D01*
X83557300Y-81010518D01*
X75153823Y-81010518D01*
X75185100Y-80853279D01*
X75185100Y-80674321D01*
X75150187Y-80498800D01*
X75081702Y-80333464D01*
X74982278Y-80184665D01*
X74855735Y-80058122D01*
X74706936Y-79958698D01*
X74590029Y-79910273D01*
X74541603Y-79890214D01*
X74541601Y-79890213D01*
X74541600Y-79890213D01*
X74453245Y-79872638D01*
X74366081Y-79855300D01*
X74366079Y-79855300D01*
X74187121Y-79855300D01*
X74187118Y-79855300D01*
X74056371Y-79881307D01*
X74011600Y-79890213D01*
X74011599Y-79890213D01*
X74011596Y-79890214D01*
X73846262Y-79958699D01*
X73697469Y-80058119D01*
X73697462Y-80058124D01*
X73566545Y-80189042D01*
X73565181Y-80187678D01*
X73513909Y-80222595D01*
X73442937Y-80224487D01*
X73382209Y-80187710D01*
X73351005Y-80123938D01*
X73349200Y-80102688D01*
X73349200Y-79610518D01*
X88191500Y-79610518D01*
X88191500Y-79610521D01*
X88191500Y-79789479D01*
X88226413Y-79965000D01*
X88294898Y-80130336D01*
X88394322Y-80279135D01*
X88520865Y-80405678D01*
X88669664Y-80505102D01*
X88835000Y-80573587D01*
X89010521Y-80608500D01*
X89010522Y-80608500D01*
X89189478Y-80608500D01*
X89189479Y-80608500D01*
X89365000Y-80573587D01*
X89530336Y-80505102D01*
X89679135Y-80405678D01*
X89805678Y-80279135D01*
X89905102Y-80130336D01*
X89973587Y-79965000D01*
X90008500Y-79789479D01*
X90008500Y-79610521D01*
X89973587Y-79435000D01*
X89905102Y-79269664D01*
X89805678Y-79120865D01*
X89679135Y-78994322D01*
X89530336Y-78894898D01*
X89413429Y-78846473D01*
X89365003Y-78826414D01*
X89365001Y-78826413D01*
X89365000Y-78826413D01*
X89276645Y-78808838D01*
X89189481Y-78791500D01*
X89189479Y-78791500D01*
X89010521Y-78791500D01*
X89010518Y-78791500D01*
X88883831Y-78816700D01*
X88835000Y-78826413D01*
X88834999Y-78826413D01*
X88834996Y-78826414D01*
X88669662Y-78894899D01*
X88520869Y-78994319D01*
X88520862Y-78994324D01*
X88394324Y-79120862D01*
X88394319Y-79120869D01*
X88294899Y-79269662D01*
X88226414Y-79434996D01*
X88191500Y-79610518D01*
X73349200Y-79610518D01*
X73349200Y-78672711D01*
X73369202Y-78604590D01*
X73422858Y-78558097D01*
X73493132Y-78547993D01*
X73557712Y-78577487D01*
X73566445Y-78586457D01*
X73566545Y-78586358D01*
X73570922Y-78590735D01*
X73697465Y-78717278D01*
X73846264Y-78816702D01*
X74011600Y-78885187D01*
X74187121Y-78920100D01*
X74187122Y-78920100D01*
X74366078Y-78920100D01*
X74366079Y-78920100D01*
X74541600Y-78885187D01*
X74706936Y-78816702D01*
X74855735Y-78717278D01*
X74982278Y-78590735D01*
X75081702Y-78441936D01*
X75150187Y-78276600D01*
X75185100Y-78101079D01*
X75185100Y-77922121D01*
X75150187Y-77746600D01*
X75081702Y-77581264D01*
X74982278Y-77432465D01*
X74855735Y-77305922D01*
X74706936Y-77206498D01*
X74583334Y-77155300D01*
X74541603Y-77138014D01*
X74541601Y-77138013D01*
X74541600Y-77138013D01*
X74453245Y-77120438D01*
X74366081Y-77103100D01*
X74366079Y-77103100D01*
X74187121Y-77103100D01*
X74187118Y-77103100D01*
X74056371Y-77129107D01*
X74011600Y-77138013D01*
X74011599Y-77138013D01*
X74011596Y-77138014D01*
X73846262Y-77206499D01*
X73697469Y-77305919D01*
X73697462Y-77305924D01*
X73566545Y-77436842D01*
X73565181Y-77435478D01*
X73513909Y-77470395D01*
X73442937Y-77472287D01*
X73382209Y-77435510D01*
X73351005Y-77371738D01*
X73349200Y-77350488D01*
X73349200Y-73240671D01*
X73369202Y-73172550D01*
X73422858Y-73126057D01*
X73493132Y-73115953D01*
X73532398Y-73128403D01*
X73697710Y-73212634D01*
X73893592Y-73276280D01*
X74097019Y-73308500D01*
X74097022Y-73308500D01*
X74302978Y-73308500D01*
X74302981Y-73308500D01*
X74506408Y-73276280D01*
X74702290Y-73212634D01*
X74885803Y-73119129D01*
X75052430Y-72998068D01*
X75198068Y-72852430D01*
X75319129Y-72685803D01*
X75357734Y-72610034D01*
X75406481Y-72558422D01*
X75475396Y-72541356D01*
X75542598Y-72564257D01*
X75582264Y-72610034D01*
X75620871Y-72685803D01*
X75741932Y-72852430D01*
X75741934Y-72852432D01*
X75741936Y-72852435D01*
X75887564Y-72998063D01*
X75887567Y-72998065D01*
X75887570Y-72998068D01*
X76054197Y-73119129D01*
X76237710Y-73212634D01*
X76433592Y-73276280D01*
X76637019Y-73308500D01*
X76637022Y-73308500D01*
X76842978Y-73308500D01*
X76842981Y-73308500D01*
X77046408Y-73276280D01*
X77242290Y-73212634D01*
X77425803Y-73119129D01*
X77592430Y-72998068D01*
X77738068Y-72852430D01*
X77859129Y-72685803D01*
X77897734Y-72610034D01*
X77946481Y-72558422D01*
X78015396Y-72541356D01*
X78082598Y-72564257D01*
X78122264Y-72610034D01*
X78160871Y-72685803D01*
X78281932Y-72852430D01*
X78281934Y-72852432D01*
X78281936Y-72852435D01*
X78427564Y-72998063D01*
X78427567Y-72998065D01*
X78427570Y-72998068D01*
X78594197Y-73119129D01*
X78594204Y-73119133D01*
X78594560Y-73119391D01*
X78637915Y-73175613D01*
X78646500Y-73221328D01*
X78646500Y-75273406D01*
X78626498Y-75341527D01*
X78609595Y-75362501D01*
X78027201Y-75944895D01*
X77964889Y-75978921D01*
X77938106Y-75981800D01*
X77888218Y-75981800D01*
X77757471Y-76007807D01*
X77712700Y-76016713D01*
X77712699Y-76016713D01*
X77712696Y-76016714D01*
X77547362Y-76085199D01*
X77398569Y-76184619D01*
X77398562Y-76184624D01*
X77272024Y-76311162D01*
X77272019Y-76311169D01*
X77172599Y-76459962D01*
X77104114Y-76625296D01*
X77069200Y-76800818D01*
X77069200Y-76800821D01*
X77069200Y-76979779D01*
X77104113Y-77155300D01*
X77172598Y-77320636D01*
X77272022Y-77469435D01*
X77398565Y-77595978D01*
X77547364Y-77695402D01*
X77712700Y-77763887D01*
X77888221Y-77798800D01*
X77888222Y-77798800D01*
X78067178Y-77798800D01*
X78067179Y-77798800D01*
X78242700Y-77763887D01*
X78408036Y-77695402D01*
X78556835Y-77595978D01*
X78683378Y-77469435D01*
X78782802Y-77320636D01*
X78851287Y-77155300D01*
X78886200Y-76979779D01*
X78886200Y-76929894D01*
X78906202Y-76861773D01*
X78923105Y-76840799D01*
X79344204Y-76419700D01*
X79772071Y-75991833D01*
X79841400Y-75888075D01*
X79889155Y-75772785D01*
X79913500Y-75650394D01*
X79913500Y-75525607D01*
X79913500Y-74810518D01*
X88591500Y-74810518D01*
X88591500Y-74810521D01*
X88591500Y-74989479D01*
X88626413Y-75165000D01*
X88694898Y-75330336D01*
X88794322Y-75479135D01*
X88920865Y-75605678D01*
X89069664Y-75705102D01*
X89235000Y-75773587D01*
X89410521Y-75808500D01*
X89410522Y-75808500D01*
X89589478Y-75808500D01*
X89589479Y-75808500D01*
X89765000Y-75773587D01*
X89930336Y-75705102D01*
X90079135Y-75605678D01*
X90205678Y-75479135D01*
X90305102Y-75330336D01*
X90373587Y-75165000D01*
X90408500Y-74989479D01*
X90408500Y-74810521D01*
X90373587Y-74635000D01*
X90305102Y-74469664D01*
X90205678Y-74320865D01*
X90079135Y-74194322D01*
X89930336Y-74094898D01*
X89813429Y-74046473D01*
X89765003Y-74026414D01*
X89765001Y-74026413D01*
X89765000Y-74026413D01*
X89676645Y-74008838D01*
X89589481Y-73991500D01*
X89589479Y-73991500D01*
X89410521Y-73991500D01*
X89410518Y-73991500D01*
X89284334Y-74016600D01*
X89235000Y-74026413D01*
X89234999Y-74026413D01*
X89234996Y-74026414D01*
X89069662Y-74094899D01*
X88920869Y-74194319D01*
X88920862Y-74194324D01*
X88794324Y-74320862D01*
X88794319Y-74320869D01*
X88694899Y-74469662D01*
X88626414Y-74634996D01*
X88591500Y-74810518D01*
X79913500Y-74810518D01*
X79913500Y-73221328D01*
X79933502Y-73153207D01*
X79965440Y-73119391D01*
X79965795Y-73119133D01*
X79965803Y-73119129D01*
X80132430Y-72998068D01*
X80278068Y-72852430D01*
X80399129Y-72685803D01*
X80437734Y-72610034D01*
X80486481Y-72558422D01*
X80555396Y-72541356D01*
X80622598Y-72564257D01*
X80662264Y-72610034D01*
X80700871Y-72685803D01*
X80821932Y-72852430D01*
X80821934Y-72852432D01*
X80821936Y-72852435D01*
X80967564Y-72998063D01*
X80967567Y-72998065D01*
X80967570Y-72998068D01*
X81134197Y-73119129D01*
X81317710Y-73212634D01*
X81513592Y-73276280D01*
X81717019Y-73308500D01*
X81717022Y-73308500D01*
X81922978Y-73308500D01*
X81922981Y-73308500D01*
X82126408Y-73276280D01*
X82322290Y-73212634D01*
X82505803Y-73119129D01*
X82672430Y-72998068D01*
X82818068Y-72852430D01*
X82939129Y-72685803D01*
X82977734Y-72610034D01*
X83026481Y-72558422D01*
X83095396Y-72541356D01*
X83162598Y-72564257D01*
X83202264Y-72610034D01*
X83240871Y-72685803D01*
X83361932Y-72852430D01*
X83361934Y-72852432D01*
X83361936Y-72852435D01*
X83507564Y-72998063D01*
X83507567Y-72998065D01*
X83507570Y-72998068D01*
X83674197Y-73119129D01*
X83857710Y-73212634D01*
X84053592Y-73276280D01*
X84257019Y-73308500D01*
X84257022Y-73308500D01*
X84462978Y-73308500D01*
X84462981Y-73308500D01*
X84666408Y-73276280D01*
X84862290Y-73212634D01*
X85045803Y-73119129D01*
X85212430Y-72998068D01*
X85358068Y-72852430D01*
X85479129Y-72685803D01*
X85517734Y-72610034D01*
X85566481Y-72558422D01*
X85635396Y-72541356D01*
X85702598Y-72564257D01*
X85742264Y-72610034D01*
X85780871Y-72685803D01*
X85901932Y-72852430D01*
X85901934Y-72852432D01*
X85901936Y-72852435D01*
X86034248Y-72984747D01*
X86068274Y-73047059D01*
X86063209Y-73117874D01*
X86034252Y-73162934D01*
X86024725Y-73172461D01*
X86024723Y-73172463D01*
X86024722Y-73172465D01*
X85992073Y-73221328D01*
X85925299Y-73321262D01*
X85856814Y-73486596D01*
X85821900Y-73662118D01*
X85821900Y-73841081D01*
X85836822Y-73916097D01*
X85856813Y-74016600D01*
X85925298Y-74181936D01*
X86024722Y-74330735D01*
X86151265Y-74457278D01*
X86300064Y-74556702D01*
X86465400Y-74625187D01*
X86640921Y-74660100D01*
X86640922Y-74660100D01*
X86819878Y-74660100D01*
X86819879Y-74660100D01*
X86995400Y-74625187D01*
X87160736Y-74556702D01*
X87309535Y-74457278D01*
X87436078Y-74330735D01*
X87535502Y-74181936D01*
X87603987Y-74016600D01*
X87638900Y-73841079D01*
X87638900Y-73662121D01*
X87603987Y-73486600D01*
X87535502Y-73321264D01*
X87526294Y-73307484D01*
X87505079Y-73239733D01*
X87523861Y-73171266D01*
X87573859Y-73125214D01*
X87585803Y-73119129D01*
X87752430Y-72998068D01*
X87898068Y-72852430D01*
X88019129Y-72685803D01*
X88057734Y-72610034D01*
X88106481Y-72558422D01*
X88175396Y-72541356D01*
X88242598Y-72564257D01*
X88282264Y-72610034D01*
X88320871Y-72685803D01*
X88441932Y-72852430D01*
X88441934Y-72852432D01*
X88441936Y-72852435D01*
X88587564Y-72998063D01*
X88587567Y-72998065D01*
X88587570Y-72998068D01*
X88754197Y-73119129D01*
X88937710Y-73212634D01*
X89133592Y-73276280D01*
X89337019Y-73308500D01*
X89337022Y-73308500D01*
X89542978Y-73308500D01*
X89542981Y-73308500D01*
X89746408Y-73276280D01*
X89942290Y-73212634D01*
X90125803Y-73119129D01*
X90292430Y-72998068D01*
X90438068Y-72852430D01*
X90559129Y-72685803D01*
X90597734Y-72610034D01*
X90646481Y-72558422D01*
X90715396Y-72541356D01*
X90782598Y-72564257D01*
X90822264Y-72610034D01*
X90860871Y-72685803D01*
X90981932Y-72852430D01*
X90981934Y-72852432D01*
X90981936Y-72852435D01*
X91127564Y-72998063D01*
X91127567Y-72998065D01*
X91127570Y-72998068D01*
X91294197Y-73119129D01*
X91477710Y-73212634D01*
X91673592Y-73276280D01*
X91877019Y-73308500D01*
X91877022Y-73308500D01*
X92082978Y-73308500D01*
X92082981Y-73308500D01*
X92286408Y-73276280D01*
X92482290Y-73212634D01*
X92665803Y-73119129D01*
X92832430Y-72998068D01*
X92978068Y-72852430D01*
X93099129Y-72685803D01*
X93138014Y-72609486D01*
X93186759Y-72557874D01*
X93255674Y-72540807D01*
X93322876Y-72563707D01*
X93362545Y-72609487D01*
X93401298Y-72685542D01*
X93522315Y-72852107D01*
X93522317Y-72852110D01*
X93667889Y-72997682D01*
X93667892Y-72997684D01*
X93834454Y-73118699D01*
X94017900Y-73212170D01*
X94017906Y-73212173D01*
X94213705Y-73275791D01*
X94213717Y-73275794D01*
X94265999Y-73284074D01*
X94266000Y-73284074D01*
X94266000Y-72430702D01*
X94327007Y-72465925D01*
X94454174Y-72500000D01*
X94585826Y-72500000D01*
X94712993Y-72465925D01*
X94774000Y-72430702D01*
X94774000Y-73284074D01*
X94826282Y-73275794D01*
X94826294Y-73275791D01*
X95022093Y-73212173D01*
X95022099Y-73212170D01*
X95205545Y-73118699D01*
X95372107Y-72997684D01*
X95372110Y-72997682D01*
X95517682Y-72852110D01*
X95517684Y-72852107D01*
X95638699Y-72685545D01*
X95677453Y-72609488D01*
X95726201Y-72557873D01*
X95795116Y-72540807D01*
X95862318Y-72563708D01*
X95901985Y-72609486D01*
X95940871Y-72685803D01*
X96061932Y-72852430D01*
X96061934Y-72852432D01*
X96061936Y-72852435D01*
X96207564Y-72998063D01*
X96207567Y-72998065D01*
X96207570Y-72998068D01*
X96374197Y-73119129D01*
X96557710Y-73212634D01*
X96753592Y-73276280D01*
X96957019Y-73308500D01*
X96957022Y-73308500D01*
X97162978Y-73308500D01*
X97162981Y-73308500D01*
X97366408Y-73276280D01*
X97562290Y-73212634D01*
X97745803Y-73119129D01*
X97912430Y-72998068D01*
X98058068Y-72852430D01*
X98179129Y-72685803D01*
X98272634Y-72502290D01*
X98336280Y-72306408D01*
X98368500Y-72102981D01*
X98368500Y-71897019D01*
X98336280Y-71693592D01*
X98272634Y-71497710D01*
X98179129Y-71314197D01*
X98058068Y-71147570D01*
X98058065Y-71147567D01*
X98058063Y-71147564D01*
X97912435Y-71001936D01*
X97912432Y-71001934D01*
X97912430Y-71001932D01*
X97755139Y-70887654D01*
X97745806Y-70880873D01*
X97745805Y-70880872D01*
X97745803Y-70880871D01*
X97562290Y-70787366D01*
X97562287Y-70787365D01*
X97562285Y-70787364D01*
X97366412Y-70723721D01*
X97366410Y-70723720D01*
X97366408Y-70723720D01*
X97162981Y-70691500D01*
X96957019Y-70691500D01*
X96753592Y-70723720D01*
X96753590Y-70723720D01*
X96753587Y-70723721D01*
X96557714Y-70787364D01*
X96557708Y-70787367D01*
X96374193Y-70880873D01*
X96207567Y-71001934D01*
X96207564Y-71001936D01*
X96061936Y-71147564D01*
X96061934Y-71147567D01*
X95940872Y-71314193D01*
X95905860Y-71382908D01*
X95901988Y-71390510D01*
X95901987Y-71390511D01*
X95853238Y-71442126D01*
X95784323Y-71459192D01*
X95717122Y-71436291D01*
X95677453Y-71390511D01*
X95638700Y-71314455D01*
X95517684Y-71147892D01*
X95517682Y-71147889D01*
X95372110Y-71002317D01*
X95372107Y-71002315D01*
X95205545Y-70881300D01*
X95022099Y-70787829D01*
X95022093Y-70787826D01*
X94826294Y-70724208D01*
X94826296Y-70724208D01*
X94774000Y-70715925D01*
X94774000Y-71569297D01*
X94712993Y-71534075D01*
X94585826Y-71500000D01*
X94454174Y-71500000D01*
X94327007Y-71534075D01*
X94266000Y-71569297D01*
X94266000Y-70715925D01*
X94213704Y-70724208D01*
X94017906Y-70787826D01*
X94017900Y-70787829D01*
X93834454Y-70881300D01*
X93667892Y-71002315D01*
X93667889Y-71002317D01*
X93522317Y-71147889D01*
X93522315Y-71147892D01*
X93401299Y-71314455D01*
X93362545Y-71390513D01*
X93313796Y-71442127D01*
X93244881Y-71459192D01*
X93177680Y-71436290D01*
X93138013Y-71390511D01*
X93099129Y-71314197D01*
X92978068Y-71147570D01*
X92978065Y-71147567D01*
X92978063Y-71147564D01*
X92832435Y-71001936D01*
X92832432Y-71001934D01*
X92832430Y-71001932D01*
X92675139Y-70887654D01*
X92665806Y-70880873D01*
X92665805Y-70880872D01*
X92665803Y-70880871D01*
X92482290Y-70787366D01*
X92482287Y-70787365D01*
X92482285Y-70787364D01*
X92286412Y-70723721D01*
X92286410Y-70723720D01*
X92286408Y-70723720D01*
X92082981Y-70691500D01*
X91877019Y-70691500D01*
X91673592Y-70723720D01*
X91673590Y-70723720D01*
X91673587Y-70723721D01*
X91477714Y-70787364D01*
X91477708Y-70787367D01*
X91294193Y-70880873D01*
X91127567Y-71001934D01*
X91127564Y-71001936D01*
X90981936Y-71147564D01*
X90981934Y-71147567D01*
X90860873Y-71314193D01*
X90822267Y-71389962D01*
X90773518Y-71441577D01*
X90704603Y-71458643D01*
X90637402Y-71435742D01*
X90597733Y-71389962D01*
X90582297Y-71359667D01*
X90559129Y-71314197D01*
X90438068Y-71147570D01*
X90438065Y-71147567D01*
X90438063Y-71147564D01*
X90292435Y-71001936D01*
X90292432Y-71001934D01*
X90292430Y-71001932D01*
X90135139Y-70887654D01*
X90125806Y-70880873D01*
X90125805Y-70880872D01*
X90125803Y-70880871D01*
X89942290Y-70787366D01*
X89942287Y-70787365D01*
X89942285Y-70787364D01*
X89746412Y-70723721D01*
X89746410Y-70723720D01*
X89746408Y-70723720D01*
X89542981Y-70691500D01*
X89337019Y-70691500D01*
X89133592Y-70723720D01*
X89133590Y-70723720D01*
X89133587Y-70723721D01*
X88937714Y-70787364D01*
X88937708Y-70787367D01*
X88754193Y-70880873D01*
X88587567Y-71001934D01*
X88587564Y-71001936D01*
X88441936Y-71147564D01*
X88441934Y-71147567D01*
X88320873Y-71314193D01*
X88282267Y-71389962D01*
X88233518Y-71441577D01*
X88164603Y-71458643D01*
X88097402Y-71435742D01*
X88057733Y-71389962D01*
X88042297Y-71359667D01*
X88019129Y-71314197D01*
X87898068Y-71147570D01*
X87898065Y-71147567D01*
X87898063Y-71147564D01*
X87752435Y-71001936D01*
X87752432Y-71001934D01*
X87752430Y-71001932D01*
X87595139Y-70887654D01*
X87585806Y-70880873D01*
X87585805Y-70880872D01*
X87585803Y-70880871D01*
X87402290Y-70787366D01*
X87402287Y-70787365D01*
X87402285Y-70787364D01*
X87206412Y-70723721D01*
X87206410Y-70723720D01*
X87206408Y-70723720D01*
X87002981Y-70691500D01*
X86797019Y-70691500D01*
X86593592Y-70723720D01*
X86593590Y-70723720D01*
X86593587Y-70723721D01*
X86397714Y-70787364D01*
X86397708Y-70787367D01*
X86214193Y-70880873D01*
X86047567Y-71001934D01*
X86047564Y-71001936D01*
X85901936Y-71147564D01*
X85901934Y-71147567D01*
X85780873Y-71314193D01*
X85742267Y-71389962D01*
X85693518Y-71441577D01*
X85624603Y-71458643D01*
X85557402Y-71435742D01*
X85517733Y-71389962D01*
X85502297Y-71359667D01*
X85479129Y-71314197D01*
X85358068Y-71147570D01*
X85358065Y-71147567D01*
X85358063Y-71147564D01*
X85212435Y-71001936D01*
X85212432Y-71001934D01*
X85212430Y-71001932D01*
X85055139Y-70887654D01*
X85045806Y-70880873D01*
X85045805Y-70880872D01*
X85045803Y-70880871D01*
X84862290Y-70787366D01*
X84862287Y-70787365D01*
X84862285Y-70787364D01*
X84666412Y-70723721D01*
X84666410Y-70723720D01*
X84666408Y-70723720D01*
X84462981Y-70691500D01*
X84257019Y-70691500D01*
X84053592Y-70723720D01*
X84053590Y-70723720D01*
X84053587Y-70723721D01*
X83857714Y-70787364D01*
X83857708Y-70787367D01*
X83674193Y-70880873D01*
X83507567Y-71001934D01*
X83507564Y-71001936D01*
X83361936Y-71147564D01*
X83361934Y-71147567D01*
X83240873Y-71314193D01*
X83202267Y-71389962D01*
X83153518Y-71441577D01*
X83084603Y-71458643D01*
X83017402Y-71435742D01*
X82977733Y-71389962D01*
X82962297Y-71359667D01*
X82939129Y-71314197D01*
X82818068Y-71147570D01*
X82818065Y-71147567D01*
X82818063Y-71147564D01*
X82672435Y-71001936D01*
X82672432Y-71001934D01*
X82672430Y-71001932D01*
X82519109Y-70890538D01*
X82505439Y-70880606D01*
X82462085Y-70824384D01*
X82453500Y-70778670D01*
X82453500Y-69975999D01*
X82473502Y-69907878D01*
X82527158Y-69861385D01*
X82597432Y-69851281D01*
X82599165Y-69851543D01*
X82621287Y-69855047D01*
X82643082Y-69858500D01*
X82643084Y-69858500D01*
X82856913Y-69858500D01*
X82856916Y-69858500D01*
X83068116Y-69825049D01*
X83271483Y-69758972D01*
X83462009Y-69661894D01*
X83635004Y-69536206D01*
X83786206Y-69385004D01*
X83911894Y-69212009D01*
X83911899Y-69211997D01*
X83912561Y-69210920D01*
X83912924Y-69210591D01*
X83914804Y-69208004D01*
X83915347Y-69208398D01*
X83965204Y-69163283D01*
X84035244Y-69151670D01*
X84100445Y-69179766D01*
X84125021Y-69208130D01*
X84125196Y-69208004D01*
X84126668Y-69210030D01*
X84127439Y-69210920D01*
X84128105Y-69212007D01*
X84128106Y-69212009D01*
X84253794Y-69385004D01*
X84253796Y-69385006D01*
X84253798Y-69385009D01*
X84404990Y-69536201D01*
X84404993Y-69536203D01*
X84404996Y-69536206D01*
X84577991Y-69661894D01*
X84768517Y-69758972D01*
X84971878Y-69825047D01*
X84971879Y-69825047D01*
X84971884Y-69825049D01*
X85183084Y-69858500D01*
X85183087Y-69858500D01*
X85396913Y-69858500D01*
X85396916Y-69858500D01*
X85608116Y-69825049D01*
X85811483Y-69758972D01*
X86002009Y-69661894D01*
X86175004Y-69536206D01*
X86175009Y-69536201D01*
X86224950Y-69486261D01*
X86326201Y-69385009D01*
X86326206Y-69385004D01*
X86451894Y-69212009D01*
X86451902Y-69211992D01*
X86452854Y-69210441D01*
X86453377Y-69209967D01*
X86454804Y-69208004D01*
X86455216Y-69208303D01*
X86505497Y-69162804D01*
X86575537Y-69151189D01*
X86640738Y-69179285D01*
X86665485Y-69207842D01*
X86665624Y-69207742D01*
X86666794Y-69209353D01*
X86667726Y-69210428D01*
X86668536Y-69211750D01*
X86706620Y-69264167D01*
X86706621Y-69264168D01*
X87345841Y-68624947D01*
X87364075Y-68692993D01*
X87429901Y-68807007D01*
X87522993Y-68900099D01*
X87637007Y-68965925D01*
X87705051Y-68984157D01*
X87065831Y-69623378D01*
X87118249Y-69661463D01*
X87118251Y-69661464D01*
X87308707Y-69758506D01*
X87308713Y-69758509D01*
X87511996Y-69824559D01*
X87723126Y-69858000D01*
X87936874Y-69858000D01*
X88148003Y-69824559D01*
X88351286Y-69758509D01*
X88351292Y-69758506D01*
X88541750Y-69661463D01*
X88594167Y-69623378D01*
X88594167Y-69623376D01*
X87954948Y-68984157D01*
X88022993Y-68965925D01*
X88137007Y-68900099D01*
X88230099Y-68807007D01*
X88295925Y-68692993D01*
X88314157Y-68624948D01*
X88953376Y-69264167D01*
X88953378Y-69264167D01*
X88991463Y-69211750D01*
X89088506Y-69021292D01*
X89088509Y-69021286D01*
X89154559Y-68818003D01*
X89188000Y-68606873D01*
X89188000Y-68393126D01*
X89187993Y-68393084D01*
X91376500Y-68393084D01*
X91376500Y-68606916D01*
X91409813Y-68817244D01*
X91409952Y-68818121D01*
X91475964Y-69021286D01*
X91476028Y-69021483D01*
X91573106Y-69212009D01*
X91698794Y-69385004D01*
X91698796Y-69385006D01*
X91698798Y-69385009D01*
X91849990Y-69536201D01*
X91849993Y-69536203D01*
X91849996Y-69536206D01*
X92022991Y-69661894D01*
X92213517Y-69758972D01*
X92416878Y-69825047D01*
X92416879Y-69825047D01*
X92416884Y-69825049D01*
X92628084Y-69858500D01*
X92628087Y-69858500D01*
X92841913Y-69858500D01*
X92841916Y-69858500D01*
X93053116Y-69825049D01*
X93256483Y-69758972D01*
X93447009Y-69661894D01*
X93620004Y-69536206D01*
X93722982Y-69433227D01*
X93785292Y-69399204D01*
X93856108Y-69404268D01*
X93912944Y-69446815D01*
X93930131Y-69478291D01*
X93974110Y-69596203D01*
X93974112Y-69596207D01*
X94061738Y-69713261D01*
X94178792Y-69800887D01*
X94178794Y-69800888D01*
X94178796Y-69800889D01*
X94237875Y-69822924D01*
X94315795Y-69851988D01*
X94315803Y-69851990D01*
X94376350Y-69858499D01*
X94376355Y-69858499D01*
X94376362Y-69858500D01*
X94376368Y-69858500D01*
X96173632Y-69858500D01*
X96173638Y-69858500D01*
X96173645Y-69858499D01*
X96173649Y-69858499D01*
X96234196Y-69851990D01*
X96234199Y-69851989D01*
X96234201Y-69851989D01*
X96235376Y-69851551D01*
X96253045Y-69844960D01*
X96371204Y-69800889D01*
X96373867Y-69798896D01*
X96488261Y-69713261D01*
X96575887Y-69596207D01*
X96575887Y-69596206D01*
X96575889Y-69596204D01*
X96626989Y-69459201D01*
X96629782Y-69433229D01*
X96633499Y-69398649D01*
X96633500Y-69398632D01*
X96633500Y-68393084D01*
X98001500Y-68393084D01*
X98001500Y-68606916D01*
X98034813Y-68817244D01*
X98034952Y-68818121D01*
X98100964Y-69021286D01*
X98101028Y-69021483D01*
X98198106Y-69212009D01*
X98323794Y-69385004D01*
X98323796Y-69385006D01*
X98323798Y-69385009D01*
X98474990Y-69536201D01*
X98474993Y-69536203D01*
X98474996Y-69536206D01*
X98647991Y-69661894D01*
X98838517Y-69758972D01*
X99041878Y-69825047D01*
X99041879Y-69825047D01*
X99041884Y-69825049D01*
X99253084Y-69858500D01*
X99253087Y-69858500D01*
X99466913Y-69858500D01*
X99466916Y-69858500D01*
X99678116Y-69825049D01*
X99881483Y-69758972D01*
X100072009Y-69661894D01*
X100245004Y-69536206D01*
X100347982Y-69433227D01*
X100410292Y-69399204D01*
X100481108Y-69404268D01*
X100537944Y-69446815D01*
X100555131Y-69478291D01*
X100599110Y-69596203D01*
X100599112Y-69596207D01*
X100686738Y-69713261D01*
X100803792Y-69800887D01*
X100803794Y-69800888D01*
X100803796Y-69800889D01*
X100862875Y-69822924D01*
X100940795Y-69851988D01*
X100940803Y-69851990D01*
X101001350Y-69858499D01*
X101001355Y-69858499D01*
X101001362Y-69858500D01*
X101001368Y-69858500D01*
X102798632Y-69858500D01*
X102798638Y-69858500D01*
X102798645Y-69858499D01*
X102798649Y-69858499D01*
X102859196Y-69851990D01*
X102859199Y-69851989D01*
X102859201Y-69851989D01*
X102860376Y-69851551D01*
X102878045Y-69844960D01*
X102996204Y-69800889D01*
X102998867Y-69798896D01*
X103113261Y-69713261D01*
X103200887Y-69596207D01*
X103200887Y-69596206D01*
X103200889Y-69596204D01*
X103251989Y-69459201D01*
X103254782Y-69433229D01*
X103258499Y-69398649D01*
X103258500Y-69398632D01*
X103258500Y-67601367D01*
X103258499Y-67601349D01*
X103251990Y-67540803D01*
X103251988Y-67540795D01*
X103200889Y-67403797D01*
X103200887Y-67403792D01*
X103113261Y-67286738D01*
X102996207Y-67199112D01*
X102996202Y-67199110D01*
X102859204Y-67148011D01*
X102859196Y-67148009D01*
X102798649Y-67141500D01*
X102798638Y-67141500D01*
X101001362Y-67141500D01*
X101001350Y-67141500D01*
X100940803Y-67148009D01*
X100940795Y-67148011D01*
X100803797Y-67199110D01*
X100803792Y-67199112D01*
X100686738Y-67286738D01*
X100599112Y-67403792D01*
X100599110Y-67403797D01*
X100555131Y-67521708D01*
X100512584Y-67578544D01*
X100446064Y-67603354D01*
X100376690Y-67588262D01*
X100347981Y-67566770D01*
X100245009Y-67463798D01*
X100245006Y-67463796D01*
X100245004Y-67463794D01*
X100072601Y-67338536D01*
X100072012Y-67338108D01*
X100072011Y-67338107D01*
X100072009Y-67338106D01*
X99881483Y-67241028D01*
X99881480Y-67241027D01*
X99881478Y-67241026D01*
X99678120Y-67174952D01*
X99678123Y-67174952D01*
X99638801Y-67168724D01*
X99466916Y-67141500D01*
X99253084Y-67141500D01*
X99041884Y-67174951D01*
X99041878Y-67174952D01*
X98838521Y-67241026D01*
X98838515Y-67241029D01*
X98647987Y-67338108D01*
X98474993Y-67463796D01*
X98474990Y-67463798D01*
X98323798Y-67614990D01*
X98323796Y-67614993D01*
X98198108Y-67787987D01*
X98101029Y-67978515D01*
X98101026Y-67978521D01*
X98034952Y-68181878D01*
X98034951Y-68181883D01*
X98034951Y-68181884D01*
X98001500Y-68393084D01*
X96633500Y-68393084D01*
X96633500Y-67601367D01*
X96633499Y-67601349D01*
X96626990Y-67540803D01*
X96626988Y-67540795D01*
X96575889Y-67403797D01*
X96575887Y-67403792D01*
X96488261Y-67286738D01*
X96371207Y-67199112D01*
X96371202Y-67199110D01*
X96234204Y-67148011D01*
X96234196Y-67148009D01*
X96173649Y-67141500D01*
X96173638Y-67141500D01*
X94376362Y-67141500D01*
X94376350Y-67141500D01*
X94315803Y-67148009D01*
X94315795Y-67148011D01*
X94178797Y-67199110D01*
X94178792Y-67199112D01*
X94061738Y-67286738D01*
X93974112Y-67403792D01*
X93974110Y-67403797D01*
X93930131Y-67521708D01*
X93887584Y-67578544D01*
X93821064Y-67603354D01*
X93751690Y-67588262D01*
X93722981Y-67566770D01*
X93620009Y-67463798D01*
X93620006Y-67463796D01*
X93620004Y-67463794D01*
X93447601Y-67338536D01*
X93447012Y-67338108D01*
X93447011Y-67338107D01*
X93447009Y-67338106D01*
X93256483Y-67241028D01*
X93256480Y-67241027D01*
X93256478Y-67241026D01*
X93053120Y-67174952D01*
X93053123Y-67174952D01*
X93013801Y-67168724D01*
X92841916Y-67141500D01*
X92628084Y-67141500D01*
X92416884Y-67174951D01*
X92416878Y-67174952D01*
X92213521Y-67241026D01*
X92213515Y-67241029D01*
X92022987Y-67338108D01*
X91849993Y-67463796D01*
X91849990Y-67463798D01*
X91698798Y-67614990D01*
X91698796Y-67614993D01*
X91573108Y-67787987D01*
X91476029Y-67978515D01*
X91476026Y-67978521D01*
X91409952Y-68181878D01*
X91409951Y-68181883D01*
X91409951Y-68181884D01*
X91376500Y-68393084D01*
X89187993Y-68393084D01*
X89154559Y-68181996D01*
X89088509Y-67978713D01*
X89088506Y-67978707D01*
X88991464Y-67788251D01*
X88991463Y-67788249D01*
X88953378Y-67735831D01*
X88314157Y-68375051D01*
X88295925Y-68307007D01*
X88230099Y-68192993D01*
X88137007Y-68099901D01*
X88022993Y-68034075D01*
X87954947Y-68015841D01*
X88594168Y-67376621D01*
X88594167Y-67376620D01*
X88541750Y-67338536D01*
X88541748Y-67338535D01*
X88351292Y-67241493D01*
X88351286Y-67241490D01*
X88148003Y-67175440D01*
X87936874Y-67142000D01*
X87723126Y-67142000D01*
X87511996Y-67175440D01*
X87308713Y-67241490D01*
X87308707Y-67241493D01*
X87118253Y-67338534D01*
X87065831Y-67376621D01*
X87065831Y-67376622D01*
X87705051Y-68015842D01*
X87637007Y-68034075D01*
X87522993Y-68099901D01*
X87429901Y-68192993D01*
X87364075Y-68307007D01*
X87345842Y-68375051D01*
X86706622Y-67735831D01*
X86706621Y-67735831D01*
X86668528Y-67788261D01*
X86667724Y-67789574D01*
X86667288Y-67789967D01*
X86665624Y-67792259D01*
X86665142Y-67791909D01*
X86615075Y-67837203D01*
X86545033Y-67848807D01*
X86479836Y-67820702D01*
X86454901Y-67791924D01*
X86454804Y-67791996D01*
X86453975Y-67790855D01*
X86452859Y-67789567D01*
X86451899Y-67788001D01*
X86451894Y-67787991D01*
X86326206Y-67614996D01*
X86326203Y-67614993D01*
X86326201Y-67614990D01*
X86175009Y-67463798D01*
X86175006Y-67463796D01*
X86175004Y-67463794D01*
X86002601Y-67338536D01*
X86002012Y-67338108D01*
X86002011Y-67338107D01*
X86002009Y-67338106D01*
X85811483Y-67241028D01*
X85811480Y-67241027D01*
X85811478Y-67241026D01*
X85608120Y-67174952D01*
X85608123Y-67174952D01*
X85568801Y-67168724D01*
X85396916Y-67141500D01*
X85183084Y-67141500D01*
X84971884Y-67174951D01*
X84971878Y-67174952D01*
X84768521Y-67241026D01*
X84768515Y-67241029D01*
X84577987Y-67338108D01*
X84404993Y-67463796D01*
X84404990Y-67463798D01*
X84253798Y-67614990D01*
X84253796Y-67614993D01*
X84128108Y-67787987D01*
X84127434Y-67789088D01*
X84127068Y-67789418D01*
X84125196Y-67791996D01*
X84124654Y-67791602D01*
X84074787Y-67836721D01*
X84004745Y-67848328D01*
X83939547Y-67820226D01*
X83914976Y-67791870D01*
X83914804Y-67791996D01*
X83913341Y-67789982D01*
X83912566Y-67789088D01*
X83911896Y-67787996D01*
X83911894Y-67787991D01*
X83786206Y-67614996D01*
X83786203Y-67614993D01*
X83786201Y-67614990D01*
X83635009Y-67463798D01*
X83635006Y-67463796D01*
X83635004Y-67463794D01*
X83462601Y-67338536D01*
X83462012Y-67338108D01*
X83462011Y-67338107D01*
X83462009Y-67338106D01*
X83271483Y-67241028D01*
X83271480Y-67241027D01*
X83271478Y-67241026D01*
X83068120Y-67174952D01*
X83068123Y-67174952D01*
X83028801Y-67168724D01*
X82856916Y-67141500D01*
X82643084Y-67141500D01*
X82431884Y-67174951D01*
X82431878Y-67174952D01*
X82228521Y-67241026D01*
X82228515Y-67241029D01*
X82037987Y-67338108D01*
X81864993Y-67463796D01*
X81864990Y-67463798D01*
X81713798Y-67614990D01*
X81713796Y-67614993D01*
X81588108Y-67787987D01*
X81587434Y-67789088D01*
X81587068Y-67789418D01*
X81585196Y-67791996D01*
X81584654Y-67791602D01*
X81534787Y-67836721D01*
X81464745Y-67848328D01*
X81399547Y-67820226D01*
X81374976Y-67791870D01*
X81374804Y-67791996D01*
X81373341Y-67789982D01*
X81372566Y-67789088D01*
X81371896Y-67787996D01*
X81371894Y-67787991D01*
X81246206Y-67614996D01*
X81246203Y-67614993D01*
X81246201Y-67614990D01*
X81095009Y-67463798D01*
X81095006Y-67463796D01*
X81095004Y-67463794D01*
X80922601Y-67338536D01*
X80922012Y-67338108D01*
X80922011Y-67338107D01*
X80922009Y-67338106D01*
X80731483Y-67241028D01*
X80731480Y-67241027D01*
X80731478Y-67241026D01*
X80528120Y-67174952D01*
X80528123Y-67174952D01*
X80488801Y-67168724D01*
X80316916Y-67141500D01*
X80103084Y-67141500D01*
X79891884Y-67174951D01*
X79891878Y-67174952D01*
X79688521Y-67241026D01*
X79688515Y-67241029D01*
X79497987Y-67338108D01*
X79324993Y-67463796D01*
X79324990Y-67463798D01*
X79173798Y-67614990D01*
X79173796Y-67614993D01*
X79048108Y-67787987D01*
X79047434Y-67789088D01*
X79047068Y-67789418D01*
X79045196Y-67791996D01*
X79044654Y-67791602D01*
X78994787Y-67836721D01*
X78924745Y-67848328D01*
X78859547Y-67820226D01*
X78834976Y-67791870D01*
X78834804Y-67791996D01*
X78833341Y-67789982D01*
X78832566Y-67789088D01*
X78831896Y-67787996D01*
X78831894Y-67787991D01*
X78706206Y-67614996D01*
X78706203Y-67614993D01*
X78706201Y-67614990D01*
X78555009Y-67463798D01*
X78555006Y-67463796D01*
X78555004Y-67463794D01*
X78382601Y-67338536D01*
X78382012Y-67338108D01*
X78382011Y-67338107D01*
X78382009Y-67338106D01*
X78191483Y-67241028D01*
X78191480Y-67241027D01*
X78191478Y-67241026D01*
X77988120Y-67174952D01*
X77988123Y-67174952D01*
X77948801Y-67168724D01*
X77776916Y-67141500D01*
X77563084Y-67141500D01*
X77351884Y-67174951D01*
X77351878Y-67174952D01*
X77148521Y-67241026D01*
X77148515Y-67241029D01*
X76957987Y-67338108D01*
X76784993Y-67463796D01*
X76784990Y-67463798D01*
X76633798Y-67614990D01*
X76633796Y-67614993D01*
X76508108Y-67787987D01*
X76507434Y-67789088D01*
X76507068Y-67789418D01*
X76505196Y-67791996D01*
X76504654Y-67791602D01*
X76454787Y-67836721D01*
X76384745Y-67848328D01*
X76319547Y-67820226D01*
X76294976Y-67791870D01*
X76294804Y-67791996D01*
X76293341Y-67789982D01*
X76292566Y-67789088D01*
X76291896Y-67787996D01*
X76291894Y-67787991D01*
X76166206Y-67614996D01*
X76166203Y-67614993D01*
X76166201Y-67614990D01*
X76015009Y-67463798D01*
X76015006Y-67463796D01*
X76015004Y-67463794D01*
X75842601Y-67338536D01*
X75842012Y-67338108D01*
X75842011Y-67338107D01*
X75842009Y-67338106D01*
X75651483Y-67241028D01*
X75651480Y-67241027D01*
X75651478Y-67241026D01*
X75448120Y-67174952D01*
X75448123Y-67174952D01*
X75408801Y-67168724D01*
X75236916Y-67141500D01*
X75023084Y-67141500D01*
X74811884Y-67174951D01*
X74811878Y-67174952D01*
X74608521Y-67241026D01*
X74608515Y-67241029D01*
X74417987Y-67338108D01*
X74244993Y-67463796D01*
X74244990Y-67463798D01*
X74093798Y-67614990D01*
X74093796Y-67614993D01*
X73968108Y-67787987D01*
X73967434Y-67789088D01*
X73967068Y-67789418D01*
X73965196Y-67791996D01*
X73964654Y-67791602D01*
X73914787Y-67836721D01*
X73844745Y-67848328D01*
X73779547Y-67820226D01*
X73754976Y-67791870D01*
X73754804Y-67791996D01*
X73753341Y-67789982D01*
X73752566Y-67789088D01*
X73751896Y-67787996D01*
X73751894Y-67787991D01*
X73626206Y-67614996D01*
X73626203Y-67614993D01*
X73626201Y-67614990D01*
X73475009Y-67463798D01*
X73475006Y-67463796D01*
X73475004Y-67463794D01*
X73302601Y-67338536D01*
X73302012Y-67338108D01*
X73302011Y-67338107D01*
X73302009Y-67338106D01*
X73111483Y-67241028D01*
X73111480Y-67241027D01*
X73111478Y-67241026D01*
X72908120Y-67174952D01*
X72908123Y-67174952D01*
X72868801Y-67168724D01*
X72696916Y-67141500D01*
X72483084Y-67141500D01*
X72271884Y-67174951D01*
X72271878Y-67174952D01*
X72068521Y-67241026D01*
X72068515Y-67241029D01*
X71877987Y-67338108D01*
X71704993Y-67463796D01*
X71704990Y-67463798D01*
X71553798Y-67614990D01*
X71553796Y-67614993D01*
X71428108Y-67787987D01*
X71427434Y-67789088D01*
X71427068Y-67789418D01*
X71425196Y-67791996D01*
X71424654Y-67791602D01*
X71374787Y-67836721D01*
X71304745Y-67848328D01*
X71239547Y-67820226D01*
X71214976Y-67791870D01*
X71214804Y-67791996D01*
X71213341Y-67789982D01*
X71212566Y-67789088D01*
X71211896Y-67787996D01*
X71211894Y-67787991D01*
X71086206Y-67614996D01*
X71086203Y-67614993D01*
X71086201Y-67614990D01*
X70935009Y-67463798D01*
X70935006Y-67463796D01*
X70935004Y-67463794D01*
X70762601Y-67338536D01*
X70762012Y-67338108D01*
X70762011Y-67338107D01*
X70762009Y-67338106D01*
X70571483Y-67241028D01*
X70571480Y-67241027D01*
X70571478Y-67241026D01*
X70368120Y-67174952D01*
X70368123Y-67174952D01*
X70328801Y-67168724D01*
X70156916Y-67141500D01*
X69943084Y-67141500D01*
X69731884Y-67174951D01*
X69731878Y-67174952D01*
X69528521Y-67241026D01*
X69528515Y-67241029D01*
X69337987Y-67338108D01*
X69164993Y-67463796D01*
X69164990Y-67463798D01*
X69013798Y-67614990D01*
X69013796Y-67614993D01*
X68888108Y-67787987D01*
X68887434Y-67789088D01*
X68887068Y-67789418D01*
X68885196Y-67791996D01*
X68884654Y-67791602D01*
X68834787Y-67836721D01*
X68764745Y-67848328D01*
X68699547Y-67820226D01*
X68674976Y-67791870D01*
X68674804Y-67791996D01*
X68673341Y-67789982D01*
X68672566Y-67789088D01*
X68671896Y-67787996D01*
X68671894Y-67787991D01*
X68546206Y-67614996D01*
X68546203Y-67614993D01*
X68546201Y-67614990D01*
X68395009Y-67463798D01*
X68395006Y-67463796D01*
X68395004Y-67463794D01*
X68222601Y-67338536D01*
X68222012Y-67338108D01*
X68222011Y-67338107D01*
X68222009Y-67338106D01*
X68031483Y-67241028D01*
X68031480Y-67241027D01*
X68031478Y-67241026D01*
X67828120Y-67174952D01*
X67828123Y-67174952D01*
X67788801Y-67168724D01*
X67616916Y-67141500D01*
X67403084Y-67141500D01*
X67191884Y-67174951D01*
X67191878Y-67174952D01*
X66988521Y-67241026D01*
X66988515Y-67241029D01*
X66797987Y-67338108D01*
X66624995Y-67463794D01*
X66522018Y-67566771D01*
X66459706Y-67600796D01*
X66388890Y-67595730D01*
X66332054Y-67553184D01*
X66314871Y-67521715D01*
X66270889Y-67403796D01*
X66270886Y-67403792D01*
X66270886Y-67403791D01*
X66183261Y-67286738D01*
X66066207Y-67199112D01*
X66066202Y-67199110D01*
X65929204Y-67148011D01*
X65929196Y-67148009D01*
X65868649Y-67141500D01*
X65868638Y-67141500D01*
X64071362Y-67141500D01*
X64071350Y-67141500D01*
X64010803Y-67148009D01*
X64010795Y-67148011D01*
X63873797Y-67199110D01*
X63873792Y-67199112D01*
X63756738Y-67286738D01*
X63669112Y-67403792D01*
X63669110Y-67403797D01*
X63618011Y-67540795D01*
X63618009Y-67540803D01*
X63611501Y-67601349D01*
X63611500Y-67601367D01*
X63611500Y-69398649D01*
X63618009Y-69459196D01*
X63618011Y-69459204D01*
X63669110Y-69596202D01*
X63669112Y-69596207D01*
X63756738Y-69713261D01*
X63873792Y-69800887D01*
X63873794Y-69800888D01*
X63873796Y-69800889D01*
X63932875Y-69822924D01*
X64010795Y-69851988D01*
X64010803Y-69851990D01*
X64071350Y-69858499D01*
X64071355Y-69858499D01*
X64071362Y-69858500D01*
X64313472Y-69858500D01*
X64321210Y-69860772D01*
X64329173Y-69859482D01*
X64354788Y-69870631D01*
X64381593Y-69878502D01*
X64388533Y-69885319D01*
X64394271Y-69887817D01*
X64418236Y-69914497D01*
X64435164Y-69939831D01*
X64456380Y-70007584D01*
X64456400Y-70009834D01*
X64456400Y-70593614D01*
X64436398Y-70661735D01*
X64382742Y-70708228D01*
X64312468Y-70718332D01*
X64310743Y-70718071D01*
X64142981Y-70691500D01*
X63937019Y-70691500D01*
X63733592Y-70723720D01*
X63733590Y-70723720D01*
X63733587Y-70723721D01*
X63537714Y-70787364D01*
X63537708Y-70787367D01*
X63354193Y-70880873D01*
X63187567Y-71001934D01*
X63187564Y-71001936D01*
X63041933Y-71147567D01*
X63030484Y-71163326D01*
X62974260Y-71206678D01*
X62903524Y-71212752D01*
X62840733Y-71179618D01*
X62805824Y-71117797D01*
X62803272Y-71102728D01*
X62801990Y-71090804D01*
X62801988Y-71090795D01*
X62768843Y-71001932D01*
X62750889Y-70953796D01*
X62750888Y-70953794D01*
X62750887Y-70953792D01*
X62663261Y-70836738D01*
X62546207Y-70749112D01*
X62546202Y-70749110D01*
X62409204Y-70698011D01*
X62409196Y-70698009D01*
X62348649Y-70691500D01*
X62348638Y-70691500D01*
X60651362Y-70691500D01*
X60651350Y-70691500D01*
X60590803Y-70698009D01*
X60590795Y-70698011D01*
X60453797Y-70749110D01*
X60453792Y-70749112D01*
X60336738Y-70836738D01*
X60249112Y-70953792D01*
X60249110Y-70953797D01*
X60198011Y-71090795D01*
X60198009Y-71090803D01*
X60191500Y-71151350D01*
X60191500Y-72848649D01*
X60198009Y-72909196D01*
X60198011Y-72909204D01*
X60249110Y-73046202D01*
X60249112Y-73046207D01*
X60336738Y-73163261D01*
X60453792Y-73250887D01*
X60453794Y-73250888D01*
X60453796Y-73250889D01*
X60512875Y-73272924D01*
X60590795Y-73301988D01*
X60590803Y-73301990D01*
X60651350Y-73308499D01*
X60651355Y-73308499D01*
X60651362Y-73308500D01*
X60651368Y-73308500D01*
X62348632Y-73308500D01*
X62348638Y-73308500D01*
X62348645Y-73308499D01*
X62348649Y-73308499D01*
X62409196Y-73301990D01*
X62409199Y-73301989D01*
X62409201Y-73301989D01*
X62546204Y-73250889D01*
X62560028Y-73240541D01*
X62663261Y-73163261D01*
X62750887Y-73046207D01*
X62750887Y-73046206D01*
X62750889Y-73046204D01*
X62801989Y-72909201D01*
X62803272Y-72897271D01*
X62830439Y-72831678D01*
X62888756Y-72791186D01*
X62959708Y-72788650D01*
X63020767Y-72824876D01*
X63030480Y-72836668D01*
X63041932Y-72852430D01*
X63041934Y-72852432D01*
X63041937Y-72852436D01*
X63187564Y-72998063D01*
X63187567Y-72998065D01*
X63187570Y-72998068D01*
X63354197Y-73119129D01*
X63537710Y-73212634D01*
X63733592Y-73276280D01*
X63937019Y-73308500D01*
X63937022Y-73308500D01*
X64142977Y-73308500D01*
X64142981Y-73308500D01*
X64310693Y-73281936D01*
X64381100Y-73291035D01*
X64435414Y-73336757D01*
X64456387Y-73404585D01*
X64456400Y-73406385D01*
X64456400Y-84825506D01*
X64436398Y-84893627D01*
X64419495Y-84914601D01*
X63547931Y-85786164D01*
X63547926Y-85786171D01*
X63478600Y-85889924D01*
X63430845Y-86005214D01*
X63425812Y-86030518D01*
X63392903Y-86093427D01*
X63359441Y-86118199D01*
X63354194Y-86120872D01*
X63187567Y-86241934D01*
X63187564Y-86241936D01*
X63041936Y-86387564D01*
X63041934Y-86387567D01*
X62920873Y-86554193D01*
X62882267Y-86629962D01*
X62833518Y-86681577D01*
X62764603Y-86698643D01*
X62697402Y-86675742D01*
X62657733Y-86629962D01*
X62626749Y-86569153D01*
X62619129Y-86554197D01*
X62498068Y-86387570D01*
X62498065Y-86387567D01*
X62498063Y-86387564D01*
X62352435Y-86241936D01*
X62352432Y-86241934D01*
X62352430Y-86241932D01*
X62223977Y-86148606D01*
X62185806Y-86120873D01*
X62185805Y-86120872D01*
X62185803Y-86120871D01*
X62002290Y-86027366D01*
X62002287Y-86027365D01*
X62002285Y-86027364D01*
X61806412Y-85963721D01*
X61806410Y-85963720D01*
X61806408Y-85963720D01*
X61602981Y-85931500D01*
X61397019Y-85931500D01*
X61193592Y-85963720D01*
X61193590Y-85963720D01*
X61193587Y-85963721D01*
X60997714Y-86027364D01*
X60997708Y-86027367D01*
X60814193Y-86120873D01*
X60647567Y-86241934D01*
X60647564Y-86241936D01*
X60501936Y-86387564D01*
X60501934Y-86387567D01*
X60380873Y-86554193D01*
X60287367Y-86737708D01*
X60287364Y-86737714D01*
X60223721Y-86933587D01*
X60223720Y-86933590D01*
X60223720Y-86933592D01*
X60191500Y-87137019D01*
X60191500Y-87342981D01*
X60205757Y-87432993D01*
X60223721Y-87546412D01*
X60229999Y-87565735D01*
X60287366Y-87742290D01*
X60380871Y-87925803D01*
X60501932Y-88092430D01*
X60501934Y-88092432D01*
X60501936Y-88092435D01*
X60647564Y-88238063D01*
X60647567Y-88238065D01*
X60647570Y-88238068D01*
X60814197Y-88359129D01*
X60997710Y-88452634D01*
X61193592Y-88516280D01*
X61397019Y-88548500D01*
X61397022Y-88548500D01*
X61602978Y-88548500D01*
X61602981Y-88548500D01*
X61806408Y-88516280D01*
X62002290Y-88452634D01*
X62185803Y-88359129D01*
X62352430Y-88238068D01*
X62498068Y-88092430D01*
X62619129Y-87925803D01*
X62657734Y-87850034D01*
X62706481Y-87798422D01*
X62775396Y-87781356D01*
X62842598Y-87804257D01*
X62882264Y-87850034D01*
X62920871Y-87925803D01*
X63041932Y-88092430D01*
X63041934Y-88092432D01*
X63041936Y-88092435D01*
X63187564Y-88238063D01*
X63187567Y-88238065D01*
X63187570Y-88238068D01*
X63354197Y-88359129D01*
X63537710Y-88452634D01*
X63733592Y-88516280D01*
X63937019Y-88548500D01*
X63937022Y-88548500D01*
X64142978Y-88548500D01*
X64142981Y-88548500D01*
X64346408Y-88516280D01*
X64542290Y-88452634D01*
X64725803Y-88359129D01*
X64892430Y-88238068D01*
X65038068Y-88092430D01*
X65159129Y-87925803D01*
X65197734Y-87850034D01*
X65246481Y-87798422D01*
X65315396Y-87781356D01*
X65382598Y-87804257D01*
X65422264Y-87850034D01*
X65460871Y-87925803D01*
X65581932Y-88092430D01*
X65581934Y-88092432D01*
X65581936Y-88092435D01*
X65727564Y-88238063D01*
X65727567Y-88238065D01*
X65727570Y-88238068D01*
X65894197Y-88359129D01*
X66077710Y-88452634D01*
X66273592Y-88516280D01*
X66477019Y-88548500D01*
X66477022Y-88548500D01*
X66682978Y-88548500D01*
X66682981Y-88548500D01*
X66886408Y-88516280D01*
X67082290Y-88452634D01*
X67265803Y-88359129D01*
X67432430Y-88238068D01*
X67578068Y-88092430D01*
X67699129Y-87925803D01*
X67737734Y-87850034D01*
X67786481Y-87798422D01*
X67855396Y-87781356D01*
X67922598Y-87804257D01*
X67962264Y-87850034D01*
X68000871Y-87925803D01*
X68121932Y-88092430D01*
X68121934Y-88092432D01*
X68121936Y-88092435D01*
X68267564Y-88238063D01*
X68267567Y-88238065D01*
X68267570Y-88238068D01*
X68434197Y-88359129D01*
X68617710Y-88452634D01*
X68813592Y-88516280D01*
X69017019Y-88548500D01*
X69017022Y-88548500D01*
X69222978Y-88548500D01*
X69222981Y-88548500D01*
X69426408Y-88516280D01*
X69622290Y-88452634D01*
X69805803Y-88359129D01*
X69972430Y-88238068D01*
X70118068Y-88092430D01*
X70239129Y-87925803D01*
X70277734Y-87850034D01*
X70326481Y-87798422D01*
X70395396Y-87781356D01*
X70462598Y-87804257D01*
X70502264Y-87850034D01*
X70540871Y-87925803D01*
X70661932Y-88092430D01*
X70661934Y-88092432D01*
X70661936Y-88092435D01*
X70807564Y-88238063D01*
X70807567Y-88238065D01*
X70807570Y-88238068D01*
X70974197Y-88359129D01*
X71157710Y-88452634D01*
X71353592Y-88516280D01*
X71557019Y-88548500D01*
X71557022Y-88548500D01*
X71762978Y-88548500D01*
X71762981Y-88548500D01*
X71966408Y-88516280D01*
X72162290Y-88452634D01*
X72345803Y-88359129D01*
X72512430Y-88238068D01*
X72658068Y-88092430D01*
X72779129Y-87925803D01*
X72817734Y-87850034D01*
X72866481Y-87798422D01*
X72935396Y-87781356D01*
X73002598Y-87804257D01*
X73042264Y-87850034D01*
X73080871Y-87925803D01*
X73201932Y-88092430D01*
X73201934Y-88092432D01*
X73201936Y-88092435D01*
X73347564Y-88238063D01*
X73347567Y-88238065D01*
X73347570Y-88238068D01*
X73514197Y-88359129D01*
X73697710Y-88452634D01*
X73893592Y-88516280D01*
X74097019Y-88548500D01*
X74097022Y-88548500D01*
X74302978Y-88548500D01*
X74302981Y-88548500D01*
X74506408Y-88516280D01*
X74702290Y-88452634D01*
X74885803Y-88359129D01*
X75052430Y-88238068D01*
X75198068Y-88092430D01*
X75319129Y-87925803D01*
X75357734Y-87850034D01*
X75406481Y-87798422D01*
X75475396Y-87781356D01*
X75542598Y-87804257D01*
X75582264Y-87850034D01*
X75620871Y-87925803D01*
X75741932Y-88092430D01*
X75741934Y-88092432D01*
X75741936Y-88092435D01*
X75887564Y-88238063D01*
X75887567Y-88238065D01*
X75887570Y-88238068D01*
X76054197Y-88359129D01*
X76237710Y-88452634D01*
X76433592Y-88516280D01*
X76637019Y-88548500D01*
X76637022Y-88548500D01*
X76842978Y-88548500D01*
X76842981Y-88548500D01*
X77046408Y-88516280D01*
X77242290Y-88452634D01*
X77425803Y-88359129D01*
X77592430Y-88238068D01*
X77738068Y-88092430D01*
X77859129Y-87925803D01*
X77897734Y-87850034D01*
X77946481Y-87798422D01*
X78015396Y-87781356D01*
X78082598Y-87804257D01*
X78122264Y-87850034D01*
X78160871Y-87925803D01*
X78281932Y-88092430D01*
X78281934Y-88092432D01*
X78281936Y-88092435D01*
X78427564Y-88238063D01*
X78427567Y-88238065D01*
X78427570Y-88238068D01*
X78594197Y-88359129D01*
X78777710Y-88452634D01*
X78973592Y-88516280D01*
X79177019Y-88548500D01*
X79177022Y-88548500D01*
X79382978Y-88548500D01*
X79382981Y-88548500D01*
X79586408Y-88516280D01*
X79782290Y-88452634D01*
X79965803Y-88359129D01*
X80132430Y-88238068D01*
X80278068Y-88092430D01*
X80399129Y-87925803D01*
X80437734Y-87850034D01*
X80486481Y-87798422D01*
X80555396Y-87781356D01*
X80622598Y-87804257D01*
X80662264Y-87850034D01*
X80700871Y-87925803D01*
X80821932Y-88092430D01*
X80821934Y-88092432D01*
X80821936Y-88092435D01*
X80967564Y-88238063D01*
X80967567Y-88238065D01*
X80967570Y-88238068D01*
X81134197Y-88359129D01*
X81317710Y-88452634D01*
X81513592Y-88516280D01*
X81717019Y-88548500D01*
X81717022Y-88548500D01*
X81922978Y-88548500D01*
X81922981Y-88548500D01*
X82126408Y-88516280D01*
X82322290Y-88452634D01*
X82505803Y-88359129D01*
X82672430Y-88238068D01*
X82818068Y-88092430D01*
X82939129Y-87925803D01*
X82941797Y-87920565D01*
X82964710Y-87896303D01*
X82986730Y-87871267D01*
X82989337Y-87870225D01*
X82990542Y-87868950D01*
X83019462Y-87856611D01*
X83024421Y-87855194D01*
X83054785Y-87849155D01*
X83075256Y-87840675D01*
X83082201Y-87838692D01*
X83110762Y-87838903D01*
X83139173Y-87835848D01*
X83145794Y-87839162D01*
X83153195Y-87839217D01*
X83177109Y-87854837D01*
X83202660Y-87867626D01*
X83208455Y-87875310D01*
X83212636Y-87878041D01*
X83215735Y-87884962D01*
X83229071Y-87902644D01*
X83241290Y-87926625D01*
X83254394Y-87996402D01*
X83233789Y-88053829D01*
X83159398Y-88165163D01*
X83090914Y-88330496D01*
X83056000Y-88506018D01*
X83056000Y-88506021D01*
X83056000Y-88684979D01*
X83088609Y-88848920D01*
X83082282Y-88919632D01*
X83038728Y-88975700D01*
X82971776Y-88999319D01*
X82965031Y-88999500D01*
X58126500Y-88999500D01*
X58058379Y-88979498D01*
X58011886Y-88925842D01*
X58000500Y-88873500D01*
X58000500Y-68050853D01*
X58020502Y-67982732D01*
X58074158Y-67936239D01*
X58144432Y-67926135D01*
X58209012Y-67955629D01*
X58246332Y-68011917D01*
X58248443Y-68018412D01*
X58344949Y-68207816D01*
X58469896Y-68379792D01*
X58469898Y-68379794D01*
X58469900Y-68379797D01*
X58620202Y-68530099D01*
X58620205Y-68530101D01*
X58620208Y-68530104D01*
X58792184Y-68655051D01*
X58981588Y-68751557D01*
X59183757Y-68817246D01*
X59393713Y-68850500D01*
X59393716Y-68850500D01*
X59606284Y-68850500D01*
X59606287Y-68850500D01*
X59816243Y-68817246D01*
X60018412Y-68751557D01*
X60207816Y-68655051D01*
X60379792Y-68530104D01*
X60530104Y-68379792D01*
X60655051Y-68207816D01*
X60751557Y-68018412D01*
X60817246Y-67816243D01*
X60850500Y-67606287D01*
X60850500Y-67393713D01*
X60817246Y-67183757D01*
X60751557Y-66981588D01*
X60655051Y-66792184D01*
X60530104Y-66620208D01*
X60530101Y-66620205D01*
X60530099Y-66620202D01*
X60379797Y-66469900D01*
X60379794Y-66469898D01*
X60379792Y-66469896D01*
X60207816Y-66344949D01*
X60018412Y-66248443D01*
X60018407Y-66248441D01*
X60018404Y-66248440D01*
X60011918Y-66246333D01*
X59953312Y-66206260D01*
X59925674Y-66140864D01*
X59937780Y-66070907D01*
X59985786Y-66018600D01*
X60050853Y-66000500D01*
X103873500Y-66000500D01*
X103941621Y-66020502D01*
G37*
%TD.AperFunction*%
%TD*%
M02*
