%TF.GenerationSoftware,KiCad,Pcbnew,9.0.7*%
%TF.CreationDate,2026-04-02T12:18:53-05:00*%
%TF.ProjectId,WindTurbineController,57696e64-5475-4726-9269-6e65436f6e74,rev?*%
%TF.SameCoordinates,Original*%
%TF.FileFunction,Copper,L3,Inr*%
%TF.FilePolarity,Positive*%
%FSLAX46Y46*%
G04 Gerber Fmt 4.6, Leading zero omitted, Abs format (unit mm)*
G04 Created by KiCad (PCBNEW 9.0.7) date 2026-04-02 12:18:53*
%MOMM*%
%LPD*%
G01*
G04 APERTURE LIST*
%TA.AperFunction,ComponentPad*%
%ADD10R,1.700000X1.700000*%
%TD*%
%TA.AperFunction,ComponentPad*%
%ADD11C,1.700000*%
%TD*%
%TA.AperFunction,ViaPad*%
%ADD12C,0.800000*%
%TD*%
%TA.AperFunction,Conductor*%
%ADD13C,0.250000*%
%TD*%
G04 APERTURE END LIST*
D10*
%TO.N,Net-(IC1-OUT2)*%
%TO.C,J1*%
X101900000Y-68500000D03*
D11*
%TO.N,Net-(IC1-OUT1)*%
X99360000Y-68500000D03*
%TD*%
D10*
%TO.N,Net-(IC2-OUT2)*%
%TO.C,J2*%
X95275000Y-68500000D03*
D11*
%TO.N,Net-(IC2-OUT1)*%
X92735000Y-68500000D03*
%TD*%
D10*
%TO.N,/~D11*%
%TO.C,J3*%
X64970000Y-68500000D03*
D11*
%TO.N,/~D10*%
X67510000Y-68500000D03*
%TO.N,/D14*%
X70050000Y-68500000D03*
%TO.N,/D15*%
X72590000Y-68500000D03*
%TO.N,/D16*%
X75130000Y-68500000D03*
%TO.N,/D17*%
X77670000Y-68500000D03*
%TO.N,/SDA*%
X80210000Y-68500000D03*
%TO.N,/SCL*%
X82750000Y-68500000D03*
%TO.N,+5V*%
X85290000Y-68500000D03*
%TO.N,GND*%
X87830000Y-68500000D03*
%TD*%
D12*
%TO.N,+5V*%
X100600000Y-84000000D03*
%TO.N,Net-(IC2-OUT1)*%
X93279300Y-83378500D03*
%TO.N,Net-(IC2-OUT2)*%
X96015000Y-84316700D03*
%TO.N,Net-(IC1-OUT1)*%
X100336200Y-77328200D03*
%TO.N,/HS_N*%
X71867500Y-70340900D03*
X107693800Y-70402300D03*
%TO.N,/HS_S*%
X69758100Y-74250000D03*
X111100000Y-70700000D03*
%TO.N,/M0_SLEEP*%
X98761300Y-74477500D03*
%TO.N,/M0_EN1*%
X86730400Y-73751600D03*
X83964500Y-88595500D03*
%TO.N,/M0_EN0*%
X103400000Y-71900000D03*
%TO.N,+3V3*%
X74276600Y-80763800D03*
X74276600Y-78011600D03*
%TO.N,/SCL*%
X84465800Y-81100000D03*
%TO.N,/SDA*%
X77977700Y-76890300D03*
%TO.N,+5V*%
X89100000Y-79700000D03*
X89500000Y-74900000D03*
%TO.N,GND*%
X61464000Y-81174100D03*
X104508800Y-80311500D03*
X108510500Y-86876700D03*
X84873100Y-77729100D03*
X63175500Y-77985100D03*
X108263000Y-83966700D03*
X100023800Y-82303200D03*
X88954300Y-81705000D03*
X111681300Y-74175000D03*
X101353800Y-74993200D03*
X107496000Y-82020000D03*
%TD*%
D13*
%TO.N,/HS_S*%
X71214625Y-72793475D02*
X69758100Y-74250000D01*
X71297149Y-72876000D02*
X71214625Y-72793475D01*
X72022851Y-72876000D02*
X71297149Y-72876000D01*
X72536000Y-72362851D02*
X72022851Y-72876000D01*
X72536000Y-71637149D02*
X72536000Y-72362851D01*
X73254800Y-70753300D02*
X72453476Y-71554624D01*
X111100000Y-70700000D02*
X110300000Y-71500000D01*
X110300000Y-71500000D02*
X107100000Y-71500000D01*
X106353300Y-70753300D02*
X73254800Y-70753300D01*
X72453476Y-71554624D02*
X72536000Y-71637149D01*
X107100000Y-71500000D02*
X106353300Y-70753300D01*
%TO.N,/HS_N*%
X71928900Y-70402300D02*
X107693800Y-70402300D01*
X71867500Y-70340900D02*
X71928900Y-70402300D01*
%TD*%
%TA.AperFunction,Conductor*%
%TO.N,+5V*%
G36*
X103942539Y-66020185D02*
G01*
X103988294Y-66072989D01*
X103999500Y-66124500D01*
X103999500Y-68901459D01*
X103999500Y-69098541D01*
X103999500Y-69098543D01*
X103999499Y-69098543D01*
X104037947Y-69291829D01*
X104037950Y-69291839D01*
X104113364Y-69473907D01*
X104113371Y-69473920D01*
X104181518Y-69575909D01*
X104202396Y-69642587D01*
X104183911Y-69709967D01*
X104131932Y-69756657D01*
X104078416Y-69768800D01*
X103315108Y-69768800D01*
X103248069Y-69749115D01*
X103202314Y-69696311D01*
X103192370Y-69627153D01*
X103198927Y-69601466D01*
X103251987Y-69459207D01*
X103251988Y-69459204D01*
X103251989Y-69459201D01*
X103255591Y-69425692D01*
X103258499Y-69398654D01*
X103258500Y-69398637D01*
X103258500Y-67601362D01*
X103258499Y-67601345D01*
X103253580Y-67555600D01*
X103251989Y-67540799D01*
X103245956Y-67524625D01*
X103223267Y-67463793D01*
X103200889Y-67403796D01*
X103113261Y-67286739D01*
X102996204Y-67199111D01*
X102955039Y-67183757D01*
X102859203Y-67148011D01*
X102798654Y-67141500D01*
X102798638Y-67141500D01*
X101001362Y-67141500D01*
X101001345Y-67141500D01*
X100940797Y-67148011D01*
X100940795Y-67148011D01*
X100803795Y-67199111D01*
X100686739Y-67286739D01*
X100599111Y-67403795D01*
X100554043Y-67524625D01*
X100512171Y-67580558D01*
X100446707Y-67604974D01*
X100378434Y-67590122D01*
X100350181Y-67568971D01*
X100245006Y-67463796D01*
X100245004Y-67463794D01*
X100072009Y-67338106D01*
X99881483Y-67241027D01*
X99881480Y-67241026D01*
X99678117Y-67174951D01*
X99572516Y-67158225D01*
X99466916Y-67141500D01*
X99253084Y-67141500D01*
X99182684Y-67152650D01*
X99041882Y-67174951D01*
X98838519Y-67241026D01*
X98838516Y-67241027D01*
X98647990Y-67338106D01*
X98474993Y-67463796D01*
X98323796Y-67614993D01*
X98198106Y-67787990D01*
X98101027Y-67978516D01*
X98101026Y-67978519D01*
X98034951Y-68181882D01*
X98001500Y-68393084D01*
X98001500Y-68606915D01*
X98034951Y-68818117D01*
X98101026Y-69021480D01*
X98101027Y-69021483D01*
X98193915Y-69203783D01*
X98198106Y-69212009D01*
X98323794Y-69385004D01*
X98474996Y-69536206D01*
X98474999Y-69536208D01*
X98486387Y-69544482D01*
X98529053Y-69599811D01*
X98535032Y-69669425D01*
X98502427Y-69731220D01*
X98441588Y-69765577D01*
X98413502Y-69768800D01*
X96690108Y-69768800D01*
X96623069Y-69749115D01*
X96577314Y-69696311D01*
X96567370Y-69627153D01*
X96573927Y-69601466D01*
X96626987Y-69459207D01*
X96626988Y-69459204D01*
X96626989Y-69459201D01*
X96630591Y-69425692D01*
X96633499Y-69398654D01*
X96633500Y-69398637D01*
X96633500Y-67601362D01*
X96633499Y-67601345D01*
X96628580Y-67555600D01*
X96626989Y-67540799D01*
X96620956Y-67524625D01*
X96598267Y-67463793D01*
X96575889Y-67403796D01*
X96488261Y-67286739D01*
X96371204Y-67199111D01*
X96330039Y-67183757D01*
X96234203Y-67148011D01*
X96173654Y-67141500D01*
X96173638Y-67141500D01*
X94376362Y-67141500D01*
X94376345Y-67141500D01*
X94315797Y-67148011D01*
X94315795Y-67148011D01*
X94178795Y-67199111D01*
X94061739Y-67286739D01*
X93974111Y-67403795D01*
X93929043Y-67524625D01*
X93887171Y-67580558D01*
X93821707Y-67604974D01*
X93753434Y-67590122D01*
X93725181Y-67568971D01*
X93620006Y-67463796D01*
X93620004Y-67463794D01*
X93447009Y-67338106D01*
X93256483Y-67241027D01*
X93256480Y-67241026D01*
X93053117Y-67174951D01*
X92947516Y-67158225D01*
X92841916Y-67141500D01*
X92628084Y-67141500D01*
X92557684Y-67152650D01*
X92416882Y-67174951D01*
X92213519Y-67241026D01*
X92213516Y-67241027D01*
X92022990Y-67338106D01*
X91849993Y-67463796D01*
X91698796Y-67614993D01*
X91573106Y-67787990D01*
X91476027Y-67978516D01*
X91476026Y-67978519D01*
X91409951Y-68181882D01*
X91376500Y-68393084D01*
X91376500Y-68606915D01*
X91409951Y-68818117D01*
X91476026Y-69021480D01*
X91476027Y-69021483D01*
X91568915Y-69203783D01*
X91573106Y-69212009D01*
X91698794Y-69385004D01*
X91849996Y-69536206D01*
X91849999Y-69536208D01*
X91861387Y-69544482D01*
X91904053Y-69599811D01*
X91910032Y-69669425D01*
X91877427Y-69731220D01*
X91816588Y-69765577D01*
X91788502Y-69768800D01*
X88776498Y-69768800D01*
X88709459Y-69749115D01*
X88663704Y-69696311D01*
X88653760Y-69627153D01*
X88682785Y-69563597D01*
X88703613Y-69544482D01*
X88715004Y-69536206D01*
X88866206Y-69385004D01*
X88991894Y-69212009D01*
X89088972Y-69021483D01*
X89155049Y-68818116D01*
X89188500Y-68606916D01*
X89188500Y-68393084D01*
X89155049Y-68181884D01*
X89101935Y-68018414D01*
X89088973Y-67978519D01*
X89088972Y-67978516D01*
X89039507Y-67881438D01*
X88991894Y-67787991D01*
X88866206Y-67614996D01*
X88715004Y-67463794D01*
X88542009Y-67338106D01*
X88351483Y-67241027D01*
X88351480Y-67241026D01*
X88148117Y-67174951D01*
X88042516Y-67158225D01*
X87936916Y-67141500D01*
X87723084Y-67141500D01*
X87652684Y-67152650D01*
X87511882Y-67174951D01*
X87308519Y-67241026D01*
X87308516Y-67241027D01*
X87117990Y-67338106D01*
X86944993Y-67463796D01*
X86793796Y-67614993D01*
X86668103Y-67787994D01*
X86665709Y-67792693D01*
X86617731Y-67843485D01*
X86549908Y-67860275D01*
X86483775Y-67837732D01*
X86447804Y-67796215D01*
X86447171Y-67796604D01*
X86444826Y-67792778D01*
X86444743Y-67792682D01*
X86444624Y-67792449D01*
X86405270Y-67738282D01*
X86405269Y-67738282D01*
X85772962Y-68370590D01*
X85755925Y-68307007D01*
X85690099Y-68192993D01*
X85597007Y-68099901D01*
X85482993Y-68034075D01*
X85419409Y-68017037D01*
X86051716Y-67384728D01*
X85997550Y-67345375D01*
X85808217Y-67248904D01*
X85606129Y-67183242D01*
X85396246Y-67150000D01*
X85183754Y-67150000D01*
X84973872Y-67183242D01*
X84973869Y-67183242D01*
X84771782Y-67248904D01*
X84582439Y-67345380D01*
X84528282Y-67384727D01*
X84528282Y-67384728D01*
X85160591Y-68017037D01*
X85097007Y-68034075D01*
X84982993Y-68099901D01*
X84889901Y-68192993D01*
X84824075Y-68307007D01*
X84807037Y-68370591D01*
X84174728Y-67738282D01*
X84174727Y-67738282D01*
X84135380Y-67792440D01*
X84135374Y-67792449D01*
X84135246Y-67792702D01*
X84135172Y-67792780D01*
X84132838Y-67796590D01*
X84132036Y-67796099D01*
X84087264Y-67843490D01*
X84019441Y-67860275D01*
X83953309Y-67837728D01*
X83914283Y-67792680D01*
X83911894Y-67787991D01*
X83786206Y-67614996D01*
X83635004Y-67463794D01*
X83462009Y-67338106D01*
X83271483Y-67241027D01*
X83271480Y-67241026D01*
X83068117Y-67174951D01*
X82962516Y-67158225D01*
X82856916Y-67141500D01*
X82643084Y-67141500D01*
X82572684Y-67152650D01*
X82431882Y-67174951D01*
X82228519Y-67241026D01*
X82228516Y-67241027D01*
X82037990Y-67338106D01*
X81864993Y-67463796D01*
X81713796Y-67614993D01*
X81588105Y-67787991D01*
X81585727Y-67791873D01*
X81533914Y-67838748D01*
X81464984Y-67850169D01*
X81400822Y-67822512D01*
X81374273Y-67791873D01*
X81371894Y-67787991D01*
X81335778Y-67738282D01*
X81246206Y-67614996D01*
X81095004Y-67463794D01*
X80922009Y-67338106D01*
X80731483Y-67241027D01*
X80731480Y-67241026D01*
X80528117Y-67174951D01*
X80422516Y-67158225D01*
X80316916Y-67141500D01*
X80103084Y-67141500D01*
X80032684Y-67152650D01*
X79891882Y-67174951D01*
X79688519Y-67241026D01*
X79688516Y-67241027D01*
X79497990Y-67338106D01*
X79324993Y-67463796D01*
X79173796Y-67614993D01*
X79048105Y-67787991D01*
X79045727Y-67791873D01*
X78993914Y-67838748D01*
X78924984Y-67850169D01*
X78860822Y-67822512D01*
X78834273Y-67791873D01*
X78831894Y-67787991D01*
X78795778Y-67738282D01*
X78706206Y-67614996D01*
X78555004Y-67463794D01*
X78382009Y-67338106D01*
X78191483Y-67241027D01*
X78191480Y-67241026D01*
X77988117Y-67174951D01*
X77882516Y-67158225D01*
X77776916Y-67141500D01*
X77563084Y-67141500D01*
X77492684Y-67152650D01*
X77351882Y-67174951D01*
X77148519Y-67241026D01*
X77148516Y-67241027D01*
X76957990Y-67338106D01*
X76784993Y-67463796D01*
X76633796Y-67614993D01*
X76508105Y-67787991D01*
X76505727Y-67791873D01*
X76453914Y-67838748D01*
X76384984Y-67850169D01*
X76320822Y-67822512D01*
X76294273Y-67791873D01*
X76291894Y-67787991D01*
X76255778Y-67738282D01*
X76166206Y-67614996D01*
X76015004Y-67463794D01*
X75842009Y-67338106D01*
X75651483Y-67241027D01*
X75651480Y-67241026D01*
X75448117Y-67174951D01*
X75342516Y-67158225D01*
X75236916Y-67141500D01*
X75023084Y-67141500D01*
X74952684Y-67152650D01*
X74811882Y-67174951D01*
X74608519Y-67241026D01*
X74608516Y-67241027D01*
X74417990Y-67338106D01*
X74244993Y-67463796D01*
X74093796Y-67614993D01*
X73968105Y-67787991D01*
X73965727Y-67791873D01*
X73913914Y-67838748D01*
X73844984Y-67850169D01*
X73780822Y-67822512D01*
X73754273Y-67791873D01*
X73751894Y-67787991D01*
X73715778Y-67738282D01*
X73626206Y-67614996D01*
X73475004Y-67463794D01*
X73302009Y-67338106D01*
X73111483Y-67241027D01*
X73111480Y-67241026D01*
X72908117Y-67174951D01*
X72802516Y-67158225D01*
X72696916Y-67141500D01*
X72483084Y-67141500D01*
X72412684Y-67152650D01*
X72271882Y-67174951D01*
X72068519Y-67241026D01*
X72068516Y-67241027D01*
X71877990Y-67338106D01*
X71704993Y-67463796D01*
X71553796Y-67614993D01*
X71428105Y-67787991D01*
X71425727Y-67791873D01*
X71373914Y-67838748D01*
X71304984Y-67850169D01*
X71240822Y-67822512D01*
X71214273Y-67791873D01*
X71211894Y-67787991D01*
X71175778Y-67738282D01*
X71086206Y-67614996D01*
X70935004Y-67463794D01*
X70762009Y-67338106D01*
X70571483Y-67241027D01*
X70571480Y-67241026D01*
X70368117Y-67174951D01*
X70262516Y-67158225D01*
X70156916Y-67141500D01*
X69943084Y-67141500D01*
X69872684Y-67152650D01*
X69731882Y-67174951D01*
X69528519Y-67241026D01*
X69528516Y-67241027D01*
X69337990Y-67338106D01*
X69164993Y-67463796D01*
X69013796Y-67614993D01*
X68888105Y-67787991D01*
X68885727Y-67791873D01*
X68833914Y-67838748D01*
X68764984Y-67850169D01*
X68700822Y-67822512D01*
X68674273Y-67791873D01*
X68671894Y-67787991D01*
X68635778Y-67738282D01*
X68546206Y-67614996D01*
X68395004Y-67463794D01*
X68222009Y-67338106D01*
X68031483Y-67241027D01*
X68031480Y-67241026D01*
X67828117Y-67174951D01*
X67722516Y-67158225D01*
X67616916Y-67141500D01*
X67403084Y-67141500D01*
X67332684Y-67152650D01*
X67191882Y-67174951D01*
X66988519Y-67241026D01*
X66988516Y-67241027D01*
X66797990Y-67338106D01*
X66624997Y-67463793D01*
X66519818Y-67568972D01*
X66458495Y-67602456D01*
X66388803Y-67597472D01*
X66332870Y-67555600D01*
X66315956Y-67524625D01*
X66270889Y-67403796D01*
X66183261Y-67286739D01*
X66066204Y-67199111D01*
X66025039Y-67183757D01*
X65929203Y-67148011D01*
X65868654Y-67141500D01*
X65868638Y-67141500D01*
X64071362Y-67141500D01*
X64071345Y-67141500D01*
X64010797Y-67148011D01*
X64010795Y-67148011D01*
X63873795Y-67199111D01*
X63756739Y-67286739D01*
X63669111Y-67403795D01*
X63618011Y-67540795D01*
X63618011Y-67540797D01*
X63611500Y-67601345D01*
X63611500Y-69398654D01*
X63618011Y-69459202D01*
X63618011Y-69459204D01*
X63646733Y-69536208D01*
X63669111Y-69596204D01*
X63756739Y-69713261D01*
X63873796Y-69800889D01*
X64010799Y-69851989D01*
X64038050Y-69854918D01*
X64071345Y-69858499D01*
X64071362Y-69858500D01*
X65868638Y-69858500D01*
X65868654Y-69858499D01*
X65895692Y-69855591D01*
X65929201Y-69851989D01*
X66066204Y-69800889D01*
X66183261Y-69713261D01*
X66270889Y-69596204D01*
X66315957Y-69475371D01*
X66357827Y-69419442D01*
X66423291Y-69395025D01*
X66491564Y-69409877D01*
X66519818Y-69431028D01*
X66624996Y-69536206D01*
X66797991Y-69661894D01*
X66865538Y-69696311D01*
X66988516Y-69758972D01*
X66988519Y-69758973D01*
X67090200Y-69792010D01*
X67191884Y-69825049D01*
X67403084Y-69858500D01*
X67403085Y-69858500D01*
X67616915Y-69858500D01*
X67616916Y-69858500D01*
X67828116Y-69825049D01*
X68031483Y-69758972D01*
X68222009Y-69661894D01*
X68395004Y-69536206D01*
X68546206Y-69385004D01*
X68671894Y-69212009D01*
X68671896Y-69212004D01*
X68674270Y-69208132D01*
X68726080Y-69161254D01*
X68795009Y-69149829D01*
X68859173Y-69177483D01*
X68885730Y-69208132D01*
X68888103Y-69212005D01*
X68888105Y-69212008D01*
X68888106Y-69212009D01*
X69013794Y-69385004D01*
X69164996Y-69536206D01*
X69337991Y-69661894D01*
X69405538Y-69696311D01*
X69528516Y-69758972D01*
X69528519Y-69758973D01*
X69630200Y-69792010D01*
X69731884Y-69825049D01*
X69943084Y-69858500D01*
X69943085Y-69858500D01*
X70156915Y-69858500D01*
X70156916Y-69858500D01*
X70368116Y-69825049D01*
X70571483Y-69758972D01*
X70762009Y-69661894D01*
X70935004Y-69536206D01*
X71086206Y-69385004D01*
X71211894Y-69212009D01*
X71211896Y-69212004D01*
X71214270Y-69208132D01*
X71238794Y-69185942D01*
X71262616Y-69162994D01*
X71264588Y-69162603D01*
X71266080Y-69161254D01*
X71298712Y-69155845D01*
X71331155Y-69149420D01*
X71333025Y-69150157D01*
X71335009Y-69149829D01*
X71365376Y-69162916D01*
X71396152Y-69175055D01*
X71397790Y-69176887D01*
X71399173Y-69177483D01*
X71420638Y-69200474D01*
X71426082Y-69208036D01*
X71428106Y-69212009D01*
X71518721Y-69336731D01*
X71518893Y-69336969D01*
X71530411Y-69369704D01*
X71542053Y-69402333D01*
X71541988Y-69402609D01*
X71542083Y-69402878D01*
X71534098Y-69436542D01*
X71526228Y-69470387D01*
X71526023Y-69470586D01*
X71525958Y-69470861D01*
X71501080Y-69494826D01*
X71476122Y-69519082D01*
X71475691Y-69519283D01*
X71475639Y-69519335D01*
X71475542Y-69519354D01*
X71465712Y-69523971D01*
X71437171Y-69535793D01*
X71437157Y-69535801D01*
X71288365Y-69635221D01*
X71288361Y-69635224D01*
X71161824Y-69761761D01*
X71161821Y-69761765D01*
X71062401Y-69910557D01*
X71062396Y-69910567D01*
X70993913Y-70075899D01*
X70993911Y-70075907D01*
X70959000Y-70251416D01*
X70959000Y-70430383D01*
X70993911Y-70605892D01*
X70993913Y-70605900D01*
X71062396Y-70771232D01*
X71062401Y-70771242D01*
X71161821Y-70920034D01*
X71161824Y-70920038D01*
X71174827Y-70933041D01*
X71208312Y-70994364D01*
X71203328Y-71064056D01*
X71161456Y-71119989D01*
X71156037Y-71123824D01*
X71017119Y-71216646D01*
X71017115Y-71216649D01*
X70876649Y-71357115D01*
X70876646Y-71357119D01*
X70766282Y-71522289D01*
X70766277Y-71522298D01*
X70690256Y-71705830D01*
X70690254Y-71705838D01*
X70651500Y-71900666D01*
X70651500Y-72099333D01*
X70690254Y-72294161D01*
X70690256Y-72294169D01*
X70695972Y-72307968D01*
X70703441Y-72377437D01*
X70672166Y-72439917D01*
X70669092Y-72443102D01*
X69807015Y-73305181D01*
X69745692Y-73338666D01*
X69719334Y-73341500D01*
X69668616Y-73341500D01*
X69493107Y-73376411D01*
X69493099Y-73376413D01*
X69327767Y-73444896D01*
X69327757Y-73444901D01*
X69178965Y-73544321D01*
X69178961Y-73544324D01*
X69052424Y-73670861D01*
X69052421Y-73670865D01*
X68953001Y-73819657D01*
X68952996Y-73819667D01*
X68884513Y-73984999D01*
X68884511Y-73985007D01*
X68849600Y-74160516D01*
X68849600Y-74339483D01*
X68884511Y-74514992D01*
X68884513Y-74515000D01*
X68952996Y-74680332D01*
X68953001Y-74680342D01*
X69052421Y-74829134D01*
X69052424Y-74829138D01*
X69178961Y-74955675D01*
X69178965Y-74955678D01*
X69327757Y-75055098D01*
X69327761Y-75055100D01*
X69327764Y-75055102D01*
X69493100Y-75123587D01*
X69668616Y-75158499D01*
X69668620Y-75158500D01*
X69668621Y-75158500D01*
X69847580Y-75158500D01*
X69847581Y-75158499D01*
X70023100Y-75123587D01*
X70188436Y-75055102D01*
X70337235Y-74955678D01*
X70463778Y-74829135D01*
X70563202Y-74680336D01*
X70631687Y-74515000D01*
X70666600Y-74339479D01*
X70666600Y-74288766D01*
X70686285Y-74221727D01*
X70702919Y-74201085D01*
X71358185Y-73545819D01*
X71419508Y-73512334D01*
X71445866Y-73509500D01*
X72085246Y-73509500D01*
X72085247Y-73509499D01*
X72207636Y-73485155D01*
X72322926Y-73437400D01*
X72426684Y-73368071D01*
X73028071Y-72766684D01*
X73097400Y-72662926D01*
X73135918Y-72569936D01*
X73179759Y-72515532D01*
X73246053Y-72493467D01*
X73313752Y-72510746D01*
X73353581Y-72548497D01*
X73416646Y-72642880D01*
X73416649Y-72642884D01*
X73557115Y-72783350D01*
X73557119Y-72783353D01*
X73722289Y-72893717D01*
X73722295Y-72893720D01*
X73722296Y-72893721D01*
X73905831Y-72969744D01*
X74098152Y-73007999D01*
X74100666Y-73008499D01*
X74100670Y-73008500D01*
X74100671Y-73008500D01*
X74299330Y-73008500D01*
X74299331Y-73008499D01*
X74494169Y-72969744D01*
X74677704Y-72893721D01*
X74678366Y-72893279D01*
X74679924Y-72892237D01*
X74842881Y-72783353D01*
X74983353Y-72642881D01*
X75093721Y-72477704D01*
X75169744Y-72294169D01*
X75208500Y-72099329D01*
X75208500Y-71900671D01*
X75169744Y-71705831D01*
X75108615Y-71558252D01*
X75101146Y-71488783D01*
X75132421Y-71426304D01*
X75192510Y-71390652D01*
X75223176Y-71386800D01*
X75716824Y-71386800D01*
X75783863Y-71406485D01*
X75829618Y-71459289D01*
X75839562Y-71528447D01*
X75831385Y-71558253D01*
X75770256Y-71705830D01*
X75770254Y-71705838D01*
X75731500Y-71900666D01*
X75731500Y-72099333D01*
X75770254Y-72294161D01*
X75770256Y-72294169D01*
X75846277Y-72477701D01*
X75846282Y-72477710D01*
X75956646Y-72642880D01*
X75956649Y-72642884D01*
X76097115Y-72783350D01*
X76097119Y-72783353D01*
X76262289Y-72893717D01*
X76262295Y-72893720D01*
X76262296Y-72893721D01*
X76445831Y-72969744D01*
X76638152Y-73007999D01*
X76640666Y-73008499D01*
X76640670Y-73008500D01*
X76640671Y-73008500D01*
X76839330Y-73008500D01*
X76839331Y-73008499D01*
X77034169Y-72969744D01*
X77217704Y-72893721D01*
X77218366Y-72893279D01*
X77219924Y-72892237D01*
X77382881Y-72783353D01*
X77523353Y-72642881D01*
X77633721Y-72477704D01*
X77709744Y-72294169D01*
X77748500Y-72099329D01*
X77748500Y-71900671D01*
X77709744Y-71705831D01*
X77648615Y-71558252D01*
X77641146Y-71488783D01*
X77672421Y-71426304D01*
X77732510Y-71390652D01*
X77763176Y-71386800D01*
X78256824Y-71386800D01*
X78323863Y-71406485D01*
X78369618Y-71459289D01*
X78379562Y-71528447D01*
X78371385Y-71558253D01*
X78310256Y-71705830D01*
X78310254Y-71705838D01*
X78271500Y-71900666D01*
X78271500Y-72099333D01*
X78310254Y-72294161D01*
X78310256Y-72294169D01*
X78386277Y-72477701D01*
X78386282Y-72477710D01*
X78496646Y-72642880D01*
X78496649Y-72642884D01*
X78637115Y-72783350D01*
X78637119Y-72783353D01*
X78802289Y-72893717D01*
X78802295Y-72893720D01*
X78802296Y-72893721D01*
X78985831Y-72969744D01*
X79178152Y-73007999D01*
X79180666Y-73008499D01*
X79180670Y-73008500D01*
X79180671Y-73008500D01*
X79379330Y-73008500D01*
X79379331Y-73008499D01*
X79574169Y-72969744D01*
X79757704Y-72893721D01*
X79758366Y-72893279D01*
X79759924Y-72892237D01*
X79922881Y-72783353D01*
X80063353Y-72642881D01*
X80173721Y-72477704D01*
X80249744Y-72294169D01*
X80288500Y-72099329D01*
X80288500Y-71900671D01*
X80249744Y-71705831D01*
X80188615Y-71558252D01*
X80181146Y-71488783D01*
X80212421Y-71426304D01*
X80272510Y-71390652D01*
X80303176Y-71386800D01*
X80796824Y-71386800D01*
X80863863Y-71406485D01*
X80909618Y-71459289D01*
X80919562Y-71528447D01*
X80911385Y-71558253D01*
X80850256Y-71705830D01*
X80850254Y-71705838D01*
X80811500Y-71900666D01*
X80811500Y-72099333D01*
X80850254Y-72294161D01*
X80850256Y-72294169D01*
X80926277Y-72477701D01*
X80926282Y-72477710D01*
X81036646Y-72642880D01*
X81036649Y-72642884D01*
X81177115Y-72783350D01*
X81177119Y-72783353D01*
X81342289Y-72893717D01*
X81342295Y-72893720D01*
X81342296Y-72893721D01*
X81525831Y-72969744D01*
X81718152Y-73007999D01*
X81720666Y-73008499D01*
X81720670Y-73008500D01*
X81720671Y-73008500D01*
X81919330Y-73008500D01*
X81919331Y-73008499D01*
X82114169Y-72969744D01*
X82297704Y-72893721D01*
X82298366Y-72893279D01*
X82299924Y-72892237D01*
X82462881Y-72783353D01*
X82603353Y-72642881D01*
X82713721Y-72477704D01*
X82789744Y-72294169D01*
X82828500Y-72099329D01*
X82828500Y-71900671D01*
X82789744Y-71705831D01*
X82728615Y-71558252D01*
X82721146Y-71488783D01*
X82752421Y-71426304D01*
X82812510Y-71390652D01*
X82843176Y-71386800D01*
X83336824Y-71386800D01*
X83403863Y-71406485D01*
X83449618Y-71459289D01*
X83459562Y-71528447D01*
X83451385Y-71558253D01*
X83390256Y-71705830D01*
X83390254Y-71705838D01*
X83351500Y-71900666D01*
X83351500Y-72099333D01*
X83390254Y-72294161D01*
X83390256Y-72294169D01*
X83466277Y-72477701D01*
X83466282Y-72477710D01*
X83576646Y-72642880D01*
X83576649Y-72642884D01*
X83717115Y-72783350D01*
X83717119Y-72783353D01*
X83882289Y-72893717D01*
X83882295Y-72893720D01*
X83882296Y-72893721D01*
X84065831Y-72969744D01*
X84258152Y-73007999D01*
X84260666Y-73008499D01*
X84260670Y-73008500D01*
X84260671Y-73008500D01*
X84459330Y-73008500D01*
X84459331Y-73008499D01*
X84654169Y-72969744D01*
X84837704Y-72893721D01*
X84838366Y-72893279D01*
X84839924Y-72892237D01*
X85002881Y-72783353D01*
X85143353Y-72642881D01*
X85253721Y-72477704D01*
X85329744Y-72294169D01*
X85368500Y-72099329D01*
X85368500Y-71900671D01*
X85329744Y-71705831D01*
X85268615Y-71558252D01*
X85261146Y-71488783D01*
X85292421Y-71426304D01*
X85352510Y-71390652D01*
X85383176Y-71386800D01*
X85876824Y-71386800D01*
X85943863Y-71406485D01*
X85989618Y-71459289D01*
X85999562Y-71528447D01*
X85991385Y-71558253D01*
X85930256Y-71705830D01*
X85930254Y-71705838D01*
X85891500Y-71900666D01*
X85891500Y-72099333D01*
X85930254Y-72294161D01*
X85930256Y-72294169D01*
X86006277Y-72477701D01*
X86006282Y-72477710D01*
X86116646Y-72642880D01*
X86116649Y-72642884D01*
X86261426Y-72787661D01*
X86260505Y-72788581D01*
X86296058Y-72840772D01*
X86297931Y-72910616D01*
X86261745Y-72970386D01*
X86246952Y-72981985D01*
X86151261Y-73045924D01*
X86024724Y-73172461D01*
X86024721Y-73172465D01*
X85925301Y-73321257D01*
X85925296Y-73321267D01*
X85856813Y-73486599D01*
X85856811Y-73486607D01*
X85821900Y-73662116D01*
X85821900Y-73841083D01*
X85856811Y-74016592D01*
X85856813Y-74016600D01*
X85925296Y-74181932D01*
X85925301Y-74181942D01*
X86024721Y-74330734D01*
X86024724Y-74330738D01*
X86151261Y-74457275D01*
X86151265Y-74457278D01*
X86300057Y-74556698D01*
X86300061Y-74556700D01*
X86300064Y-74556702D01*
X86465400Y-74625187D01*
X86640916Y-74660099D01*
X86640920Y-74660100D01*
X86640921Y-74660100D01*
X86819880Y-74660100D01*
X86819881Y-74660099D01*
X86995400Y-74625187D01*
X87160736Y-74556702D01*
X87309535Y-74457278D01*
X87378797Y-74388016D01*
X97852800Y-74388016D01*
X97852800Y-74566983D01*
X97887711Y-74742492D01*
X97887713Y-74742500D01*
X97956196Y-74907832D01*
X97956201Y-74907842D01*
X98055621Y-75056634D01*
X98055624Y-75056638D01*
X98182161Y-75183175D01*
X98182165Y-75183178D01*
X98330957Y-75282598D01*
X98330961Y-75282600D01*
X98330964Y-75282602D01*
X98496300Y-75351087D01*
X98671816Y-75385999D01*
X98671820Y-75386000D01*
X98671821Y-75386000D01*
X98850780Y-75386000D01*
X98850781Y-75385999D01*
X99026300Y-75351087D01*
X99191636Y-75282602D01*
X99340435Y-75183178D01*
X99466978Y-75056635D01*
X99566402Y-74907836D01*
X99568109Y-74903716D01*
X100445300Y-74903716D01*
X100445300Y-75082683D01*
X100480211Y-75258192D01*
X100480213Y-75258200D01*
X100548696Y-75423532D01*
X100548701Y-75423542D01*
X100648121Y-75572334D01*
X100648124Y-75572338D01*
X100774661Y-75698875D01*
X100774665Y-75698878D01*
X100923457Y-75798298D01*
X100923461Y-75798300D01*
X100923464Y-75798302D01*
X101088800Y-75866787D01*
X101264316Y-75901699D01*
X101264320Y-75901700D01*
X101264321Y-75901700D01*
X101443280Y-75901700D01*
X101443281Y-75901699D01*
X101618800Y-75866787D01*
X101784136Y-75798302D01*
X101932935Y-75698878D01*
X102059478Y-75572335D01*
X102158902Y-75423536D01*
X102227387Y-75258200D01*
X102262300Y-75082679D01*
X102262300Y-74903721D01*
X102227387Y-74728200D01*
X102158902Y-74562864D01*
X102158900Y-74562861D01*
X102158898Y-74562857D01*
X102059478Y-74414065D01*
X102059475Y-74414061D01*
X101932938Y-74287524D01*
X101932934Y-74287521D01*
X101784137Y-74188098D01*
X101618800Y-74119613D01*
X101618792Y-74119611D01*
X101447385Y-74085516D01*
X110772800Y-74085516D01*
X110772800Y-74264483D01*
X110807711Y-74439992D01*
X110807713Y-74440000D01*
X110876196Y-74605332D01*
X110876201Y-74605342D01*
X110975621Y-74754134D01*
X110975624Y-74754138D01*
X111102161Y-74880675D01*
X111102165Y-74880678D01*
X111250957Y-74980098D01*
X111250961Y-74980100D01*
X111250964Y-74980102D01*
X111416300Y-75048587D01*
X111587694Y-75082679D01*
X111591816Y-75083499D01*
X111591820Y-75083500D01*
X111591821Y-75083500D01*
X111770780Y-75083500D01*
X111770781Y-75083499D01*
X111946300Y-75048587D01*
X112111636Y-74980102D01*
X112260435Y-74880678D01*
X112386978Y-74754135D01*
X112486402Y-74605336D01*
X112554887Y-74440000D01*
X112589800Y-74264479D01*
X112589800Y-74085521D01*
X112554887Y-73910000D01*
X112486402Y-73744664D01*
X112486400Y-73744661D01*
X112486398Y-73744657D01*
X112386978Y-73595865D01*
X112386975Y-73595861D01*
X112260438Y-73469324D01*
X112260434Y-73469321D01*
X112111642Y-73369901D01*
X112111632Y-73369896D01*
X111946300Y-73301413D01*
X111946292Y-73301411D01*
X111770783Y-73266500D01*
X111770779Y-73266500D01*
X111591821Y-73266500D01*
X111591816Y-73266500D01*
X111416307Y-73301411D01*
X111416299Y-73301413D01*
X111250967Y-73369896D01*
X111250957Y-73369901D01*
X111102165Y-73469321D01*
X111102161Y-73469324D01*
X110975624Y-73595861D01*
X110975621Y-73595865D01*
X110876201Y-73744657D01*
X110876196Y-73744667D01*
X110807713Y-73909999D01*
X110807711Y-73910007D01*
X110772800Y-74085516D01*
X101447385Y-74085516D01*
X101443283Y-74084700D01*
X101443279Y-74084700D01*
X101264321Y-74084700D01*
X101264316Y-74084700D01*
X101088807Y-74119611D01*
X101088799Y-74119613D01*
X100923467Y-74188096D01*
X100923457Y-74188101D01*
X100774665Y-74287521D01*
X100774661Y-74287524D01*
X100648124Y-74414061D01*
X100648121Y-74414065D01*
X100548701Y-74562857D01*
X100548696Y-74562867D01*
X100480213Y-74728199D01*
X100480211Y-74728207D01*
X100445300Y-74903716D01*
X99568109Y-74903716D01*
X99634887Y-74742500D01*
X99669800Y-74566979D01*
X99669800Y-74388021D01*
X99634887Y-74212500D01*
X99566402Y-74047164D01*
X99566400Y-74047161D01*
X99566398Y-74047157D01*
X99466978Y-73898365D01*
X99466975Y-73898361D01*
X99340438Y-73771824D01*
X99340434Y-73771821D01*
X99191642Y-73672401D01*
X99191632Y-73672396D01*
X99026300Y-73603913D01*
X99026292Y-73603911D01*
X98850783Y-73569000D01*
X98850779Y-73569000D01*
X98671821Y-73569000D01*
X98671816Y-73569000D01*
X98496307Y-73603911D01*
X98496299Y-73603913D01*
X98330967Y-73672396D01*
X98330957Y-73672401D01*
X98182165Y-73771821D01*
X98182161Y-73771824D01*
X98055624Y-73898361D01*
X98055621Y-73898365D01*
X97956201Y-74047157D01*
X97956196Y-74047167D01*
X97887713Y-74212499D01*
X97887711Y-74212507D01*
X97852800Y-74388016D01*
X87378797Y-74388016D01*
X87436078Y-74330735D01*
X87439207Y-74326051D01*
X87447903Y-74313039D01*
X87447903Y-74313038D01*
X87535498Y-74181942D01*
X87535498Y-74181941D01*
X87535502Y-74181936D01*
X87603987Y-74016600D01*
X87638900Y-73841079D01*
X87638900Y-73662121D01*
X87603987Y-73486600D01*
X87535502Y-73321264D01*
X87535500Y-73321261D01*
X87535498Y-73321257D01*
X87436078Y-73172465D01*
X87436075Y-73172461D01*
X87352320Y-73088706D01*
X87318835Y-73027383D01*
X87323819Y-72957691D01*
X87365691Y-72901758D01*
X87372747Y-72897268D01*
X87372639Y-72897106D01*
X87457704Y-72840266D01*
X87542881Y-72783353D01*
X87683353Y-72642881D01*
X87793721Y-72477704D01*
X87869744Y-72294169D01*
X87908500Y-72099329D01*
X87908500Y-71900671D01*
X87869744Y-71705831D01*
X87808615Y-71558252D01*
X87801146Y-71488783D01*
X87832421Y-71426304D01*
X87892510Y-71390652D01*
X87923176Y-71386800D01*
X88417365Y-71386800D01*
X88484404Y-71406485D01*
X88530159Y-71459289D01*
X88540103Y-71528447D01*
X88531926Y-71558252D01*
X88470738Y-71705972D01*
X88470735Y-71705984D01*
X88432000Y-71900716D01*
X88432000Y-72099283D01*
X88470735Y-72294015D01*
X88470737Y-72294023D01*
X88546720Y-72477464D01*
X88546725Y-72477473D01*
X88657034Y-72642561D01*
X88657037Y-72642565D01*
X88797434Y-72782962D01*
X88797438Y-72782965D01*
X88962526Y-72893274D01*
X88962535Y-72893279D01*
X89145976Y-72969262D01*
X89145984Y-72969264D01*
X89340716Y-73007999D01*
X89340719Y-73008000D01*
X89539281Y-73008000D01*
X89539283Y-73007999D01*
X89734015Y-72969264D01*
X89734023Y-72969262D01*
X89917464Y-72893279D01*
X89917473Y-72893274D01*
X90082561Y-72782965D01*
X90082565Y-72782962D01*
X90222962Y-72642565D01*
X90222965Y-72642561D01*
X90333274Y-72477473D01*
X90333279Y-72477464D01*
X90409262Y-72294023D01*
X90409264Y-72294015D01*
X90447999Y-72099283D01*
X90448000Y-72099281D01*
X90448000Y-71900718D01*
X90447999Y-71900716D01*
X90409264Y-71705984D01*
X90409261Y-71705972D01*
X90348074Y-71558252D01*
X90340605Y-71488783D01*
X90371880Y-71426304D01*
X90431969Y-71390652D01*
X90462635Y-71386800D01*
X90956824Y-71386800D01*
X91023863Y-71406485D01*
X91069618Y-71459289D01*
X91079562Y-71528447D01*
X91071385Y-71558253D01*
X91010256Y-71705830D01*
X91010254Y-71705838D01*
X90971500Y-71900666D01*
X90971500Y-72099333D01*
X91010254Y-72294161D01*
X91010256Y-72294169D01*
X91086277Y-72477701D01*
X91086282Y-72477710D01*
X91196646Y-72642880D01*
X91196649Y-72642884D01*
X91337115Y-72783350D01*
X91337119Y-72783353D01*
X91502289Y-72893717D01*
X91502295Y-72893720D01*
X91502296Y-72893721D01*
X91685831Y-72969744D01*
X91878152Y-73007999D01*
X91880666Y-73008499D01*
X91880670Y-73008500D01*
X91880671Y-73008500D01*
X92079330Y-73008500D01*
X92079331Y-73008499D01*
X92274169Y-72969744D01*
X92457704Y-72893721D01*
X92458366Y-72893279D01*
X92459924Y-72892237D01*
X92622881Y-72783353D01*
X92763353Y-72642881D01*
X92873721Y-72477704D01*
X92949744Y-72294169D01*
X92988500Y-72099329D01*
X92988500Y-71900671D01*
X92949744Y-71705831D01*
X92888615Y-71558252D01*
X92881146Y-71488783D01*
X92912421Y-71426304D01*
X92972510Y-71390652D01*
X93003176Y-71386800D01*
X93496824Y-71386800D01*
X93563863Y-71406485D01*
X93609618Y-71459289D01*
X93619562Y-71528447D01*
X93611385Y-71558253D01*
X93550256Y-71705830D01*
X93550254Y-71705838D01*
X93511500Y-71900666D01*
X93511500Y-72099333D01*
X93550254Y-72294161D01*
X93550256Y-72294169D01*
X93626277Y-72477701D01*
X93626282Y-72477710D01*
X93736646Y-72642880D01*
X93736649Y-72642884D01*
X93877115Y-72783350D01*
X93877119Y-72783353D01*
X94042289Y-72893717D01*
X94042295Y-72893720D01*
X94042296Y-72893721D01*
X94225831Y-72969744D01*
X94418152Y-73007999D01*
X94420666Y-73008499D01*
X94420670Y-73008500D01*
X94420671Y-73008500D01*
X94619330Y-73008500D01*
X94619331Y-73008499D01*
X94814169Y-72969744D01*
X94997704Y-72893721D01*
X94998366Y-72893279D01*
X94999924Y-72892237D01*
X95162881Y-72783353D01*
X95303353Y-72642881D01*
X95413721Y-72477704D01*
X95489744Y-72294169D01*
X95528500Y-72099329D01*
X95528500Y-71900671D01*
X95489744Y-71705831D01*
X95428615Y-71558252D01*
X95421146Y-71488783D01*
X95452421Y-71426304D01*
X95512510Y-71390652D01*
X95543176Y-71386800D01*
X96036824Y-71386800D01*
X96103863Y-71406485D01*
X96149618Y-71459289D01*
X96159562Y-71528447D01*
X96151385Y-71558253D01*
X96090256Y-71705830D01*
X96090254Y-71705838D01*
X96051500Y-71900666D01*
X96051500Y-72099333D01*
X96090254Y-72294161D01*
X96090256Y-72294169D01*
X96166277Y-72477701D01*
X96166282Y-72477710D01*
X96276646Y-72642880D01*
X96276649Y-72642884D01*
X96417115Y-72783350D01*
X96417119Y-72783353D01*
X96582289Y-72893717D01*
X96582295Y-72893720D01*
X96582296Y-72893721D01*
X96765831Y-72969744D01*
X96958152Y-73007999D01*
X96960666Y-73008499D01*
X96960670Y-73008500D01*
X96960671Y-73008500D01*
X97159330Y-73008500D01*
X97159331Y-73008499D01*
X97354169Y-72969744D01*
X97537704Y-72893721D01*
X97538366Y-72893279D01*
X97539924Y-72892237D01*
X97702881Y-72783353D01*
X97843353Y-72642881D01*
X97953721Y-72477704D01*
X98029744Y-72294169D01*
X98068500Y-72099329D01*
X98068500Y-71900671D01*
X98029744Y-71705831D01*
X97968615Y-71558252D01*
X97961146Y-71488783D01*
X97992421Y-71426304D01*
X98052510Y-71390652D01*
X98083176Y-71386800D01*
X102443642Y-71386800D01*
X102510681Y-71406485D01*
X102556436Y-71459289D01*
X102566380Y-71528447D01*
X102558203Y-71558253D01*
X102526413Y-71634999D01*
X102526411Y-71635007D01*
X102491500Y-71810516D01*
X102491500Y-71989483D01*
X102526411Y-72164992D01*
X102526413Y-72165000D01*
X102594896Y-72330332D01*
X102594901Y-72330342D01*
X102694321Y-72479134D01*
X102694324Y-72479138D01*
X102820861Y-72605675D01*
X102820865Y-72605678D01*
X102969657Y-72705098D01*
X102969661Y-72705100D01*
X102969664Y-72705102D01*
X103135000Y-72773587D01*
X103310516Y-72808499D01*
X103310520Y-72808500D01*
X103310521Y-72808500D01*
X103489480Y-72808500D01*
X103489481Y-72808499D01*
X103665000Y-72773587D01*
X103830336Y-72705102D01*
X103979135Y-72605678D01*
X104105678Y-72479135D01*
X104205102Y-72330336D01*
X104273587Y-72165000D01*
X104308500Y-71989479D01*
X104308500Y-71810521D01*
X104273587Y-71635000D01*
X104241796Y-71558252D01*
X104234328Y-71488784D01*
X104265603Y-71426304D01*
X104325692Y-71390652D01*
X104356358Y-71386800D01*
X106039534Y-71386800D01*
X106106573Y-71406485D01*
X106127215Y-71423119D01*
X106696163Y-71992068D01*
X106696167Y-71992071D01*
X106799918Y-72061396D01*
X106799924Y-72061399D01*
X106799925Y-72061400D01*
X106915215Y-72109155D01*
X107037601Y-72133499D01*
X107037605Y-72133500D01*
X107037606Y-72133500D01*
X110362395Y-72133500D01*
X110362396Y-72133499D01*
X110484785Y-72109155D01*
X110600075Y-72061400D01*
X110703833Y-71992071D01*
X111051085Y-71644819D01*
X111112408Y-71611334D01*
X111138766Y-71608500D01*
X111189480Y-71608500D01*
X111189481Y-71608499D01*
X111365000Y-71573587D01*
X111530336Y-71505102D01*
X111679135Y-71405678D01*
X111805678Y-71279135D01*
X111905102Y-71130336D01*
X111973587Y-70965000D01*
X112008500Y-70789479D01*
X112008500Y-70610521D01*
X111973587Y-70435000D01*
X111905102Y-70269664D01*
X111905099Y-70269659D01*
X111905095Y-70269652D01*
X111854139Y-70193390D01*
X111833261Y-70126713D01*
X111851746Y-70059333D01*
X111903725Y-70012643D01*
X111957241Y-70000500D01*
X113961774Y-70000500D01*
X114028813Y-70020185D01*
X114074568Y-70072989D01*
X114084512Y-70142147D01*
X114055487Y-70205703D01*
X114000093Y-70242430D01*
X113981588Y-70248443D01*
X113981585Y-70248444D01*
X113792179Y-70344951D01*
X113620213Y-70469890D01*
X113469890Y-70620213D01*
X113344951Y-70792179D01*
X113248444Y-70981585D01*
X113182753Y-71183760D01*
X113167647Y-71279138D01*
X113149500Y-71393713D01*
X113149500Y-71606287D01*
X113154048Y-71634999D01*
X113181847Y-71810521D01*
X113182754Y-71816243D01*
X113239884Y-71992071D01*
X113248444Y-72018414D01*
X113344951Y-72207820D01*
X113469890Y-72379786D01*
X113620213Y-72530109D01*
X113792179Y-72655048D01*
X113792181Y-72655049D01*
X113792184Y-72655051D01*
X113981588Y-72751557D01*
X114183757Y-72817246D01*
X114393713Y-72850500D01*
X114393714Y-72850500D01*
X114606286Y-72850500D01*
X114606287Y-72850500D01*
X114816243Y-72817246D01*
X115018412Y-72751557D01*
X115207816Y-72655051D01*
X115324968Y-72569936D01*
X115379786Y-72530109D01*
X115379788Y-72530106D01*
X115379792Y-72530104D01*
X115530104Y-72379792D01*
X115530106Y-72379788D01*
X115530109Y-72379786D01*
X115655048Y-72207820D01*
X115655047Y-72207820D01*
X115655051Y-72207816D01*
X115751557Y-72018412D01*
X115757569Y-71999907D01*
X115797006Y-71942232D01*
X115861365Y-71915034D01*
X115930211Y-71926949D01*
X115981687Y-71974193D01*
X115999500Y-72038226D01*
X115999500Y-88875500D01*
X115979815Y-88942539D01*
X115927011Y-88988294D01*
X115875500Y-88999500D01*
X84961533Y-88999500D01*
X84894494Y-88979815D01*
X84848739Y-88927011D01*
X84838795Y-88857853D01*
X84839916Y-88851309D01*
X84872999Y-88684983D01*
X84873000Y-88684980D01*
X84873000Y-88506020D01*
X84872999Y-88506016D01*
X84838088Y-88330507D01*
X84838087Y-88330500D01*
X84813106Y-88270192D01*
X84805638Y-88200726D01*
X84836912Y-88138247D01*
X84858778Y-88119640D01*
X84916743Y-88080908D01*
X85002881Y-88023353D01*
X85143353Y-87882881D01*
X85253721Y-87717704D01*
X85329744Y-87534169D01*
X85368500Y-87339329D01*
X85368500Y-87140671D01*
X85368499Y-87140666D01*
X85891500Y-87140666D01*
X85891500Y-87339333D01*
X85930254Y-87534161D01*
X85930256Y-87534169D01*
X86006277Y-87717701D01*
X86006282Y-87717710D01*
X86116646Y-87882880D01*
X86116649Y-87882884D01*
X86257115Y-88023350D01*
X86257119Y-88023353D01*
X86422289Y-88133717D01*
X86422298Y-88133722D01*
X86463874Y-88150943D01*
X86605831Y-88209744D01*
X86800666Y-88248499D01*
X86800670Y-88248500D01*
X86800671Y-88248500D01*
X86999330Y-88248500D01*
X86999331Y-88248499D01*
X87194169Y-88209744D01*
X87377704Y-88133721D01*
X87542881Y-88023353D01*
X87683353Y-87882881D01*
X87793721Y-87717704D01*
X87869744Y-87534169D01*
X87908500Y-87339329D01*
X87908500Y-87140671D01*
X87908499Y-87140666D01*
X88431500Y-87140666D01*
X88431500Y-87339333D01*
X88470254Y-87534161D01*
X88470256Y-87534169D01*
X88546277Y-87717701D01*
X88546282Y-87717710D01*
X88656646Y-87882880D01*
X88656649Y-87882884D01*
X88797115Y-88023350D01*
X88797119Y-88023353D01*
X88962289Y-88133717D01*
X88962298Y-88133722D01*
X89003874Y-88150943D01*
X89145831Y-88209744D01*
X89340666Y-88248499D01*
X89340670Y-88248500D01*
X89340671Y-88248500D01*
X89539330Y-88248500D01*
X89539331Y-88248499D01*
X89734169Y-88209744D01*
X89917704Y-88133721D01*
X90082881Y-88023353D01*
X90223353Y-87882881D01*
X90333721Y-87717704D01*
X90409744Y-87534169D01*
X90448500Y-87339329D01*
X90448500Y-87140671D01*
X90448499Y-87140666D01*
X90971500Y-87140666D01*
X90971500Y-87339333D01*
X91010254Y-87534161D01*
X91010256Y-87534169D01*
X91086277Y-87717701D01*
X91086282Y-87717710D01*
X91196646Y-87882880D01*
X91196649Y-87882884D01*
X91337115Y-88023350D01*
X91337119Y-88023353D01*
X91502289Y-88133717D01*
X91502298Y-88133722D01*
X91543874Y-88150943D01*
X91685831Y-88209744D01*
X91880666Y-88248499D01*
X91880670Y-88248500D01*
X91880671Y-88248500D01*
X92079330Y-88248500D01*
X92079331Y-88248499D01*
X92274169Y-88209744D01*
X92457704Y-88133721D01*
X92622881Y-88023353D01*
X92763353Y-87882881D01*
X92873721Y-87717704D01*
X92949744Y-87534169D01*
X92988500Y-87339329D01*
X92988500Y-87140671D01*
X92988499Y-87140666D01*
X93511500Y-87140666D01*
X93511500Y-87339333D01*
X93550254Y-87534161D01*
X93550256Y-87534169D01*
X93626277Y-87717701D01*
X93626282Y-87717710D01*
X93736646Y-87882880D01*
X93736649Y-87882884D01*
X93877115Y-88023350D01*
X93877119Y-88023353D01*
X94042289Y-88133717D01*
X94042298Y-88133722D01*
X94083874Y-88150943D01*
X94225831Y-88209744D01*
X94420666Y-88248499D01*
X94420670Y-88248500D01*
X94420671Y-88248500D01*
X94619330Y-88248500D01*
X94619331Y-88248499D01*
X94814169Y-88209744D01*
X94997704Y-88133721D01*
X95162881Y-88023353D01*
X95303353Y-87882881D01*
X95413721Y-87717704D01*
X95489744Y-87534169D01*
X95528500Y-87339329D01*
X95528500Y-87140671D01*
X95528499Y-87140666D01*
X96051500Y-87140666D01*
X96051500Y-87339333D01*
X96090254Y-87534161D01*
X96090256Y-87534169D01*
X96166277Y-87717701D01*
X96166282Y-87717710D01*
X96276646Y-87882880D01*
X96276649Y-87882884D01*
X96417115Y-88023350D01*
X96417119Y-88023353D01*
X96582289Y-88133717D01*
X96582298Y-88133722D01*
X96623874Y-88150943D01*
X96765831Y-88209744D01*
X96960666Y-88248499D01*
X96960670Y-88248500D01*
X96960671Y-88248500D01*
X97159330Y-88248500D01*
X97159331Y-88248499D01*
X97354169Y-88209744D01*
X97537704Y-88133721D01*
X97702881Y-88023353D01*
X97843353Y-87882881D01*
X97953721Y-87717704D01*
X98029744Y-87534169D01*
X98068500Y-87339329D01*
X98068500Y-87140671D01*
X98029744Y-86945831D01*
X98029742Y-86945826D01*
X97981178Y-86828581D01*
X97964043Y-86787216D01*
X107602000Y-86787216D01*
X107602000Y-86966183D01*
X107636911Y-87141692D01*
X107636913Y-87141700D01*
X107705396Y-87307032D01*
X107705401Y-87307042D01*
X107804821Y-87455834D01*
X107804824Y-87455838D01*
X107931361Y-87582375D01*
X107931365Y-87582378D01*
X108080157Y-87681798D01*
X108080161Y-87681800D01*
X108080164Y-87681802D01*
X108245500Y-87750287D01*
X108421016Y-87785199D01*
X108421020Y-87785200D01*
X108421021Y-87785200D01*
X108599980Y-87785200D01*
X108599981Y-87785199D01*
X108775500Y-87750287D01*
X108940836Y-87681802D01*
X109089635Y-87582378D01*
X109216178Y-87455835D01*
X109315602Y-87307036D01*
X109384087Y-87141700D01*
X109419000Y-86966179D01*
X109419000Y-86787221D01*
X109384087Y-86611700D01*
X109315602Y-86446364D01*
X109315600Y-86446361D01*
X109315598Y-86446357D01*
X109216178Y-86297565D01*
X109216175Y-86297561D01*
X109089638Y-86171024D01*
X109089634Y-86171021D01*
X108940842Y-86071601D01*
X108940832Y-86071596D01*
X108775500Y-86003113D01*
X108775492Y-86003111D01*
X108599983Y-85968200D01*
X108599979Y-85968200D01*
X108421021Y-85968200D01*
X108421016Y-85968200D01*
X108245507Y-86003111D01*
X108245499Y-86003113D01*
X108080167Y-86071596D01*
X108080157Y-86071601D01*
X107931365Y-86171021D01*
X107931361Y-86171024D01*
X107804824Y-86297561D01*
X107804821Y-86297565D01*
X107705401Y-86446357D01*
X107705396Y-86446367D01*
X107636913Y-86611699D01*
X107636911Y-86611707D01*
X107602000Y-86787216D01*
X97964043Y-86787216D01*
X97953722Y-86762299D01*
X97953722Y-86762298D01*
X97953721Y-86762296D01*
X97953719Y-86762293D01*
X97953717Y-86762289D01*
X97843353Y-86597119D01*
X97843350Y-86597115D01*
X97702884Y-86456649D01*
X97702880Y-86456646D01*
X97537710Y-86346282D01*
X97537701Y-86346277D01*
X97354169Y-86270256D01*
X97354161Y-86270254D01*
X97159333Y-86231500D01*
X97159329Y-86231500D01*
X96960671Y-86231500D01*
X96960666Y-86231500D01*
X96765838Y-86270254D01*
X96765830Y-86270256D01*
X96582298Y-86346277D01*
X96582289Y-86346282D01*
X96417119Y-86456646D01*
X96417115Y-86456649D01*
X96276649Y-86597115D01*
X96276646Y-86597119D01*
X96166282Y-86762289D01*
X96166277Y-86762298D01*
X96090256Y-86945830D01*
X96090254Y-86945838D01*
X96051500Y-87140666D01*
X95528499Y-87140666D01*
X95489744Y-86945831D01*
X95413721Y-86762296D01*
X95413720Y-86762295D01*
X95413717Y-86762289D01*
X95303353Y-86597119D01*
X95303350Y-86597115D01*
X95162884Y-86456649D01*
X95162880Y-86456646D01*
X94997710Y-86346282D01*
X94997701Y-86346277D01*
X94814169Y-86270256D01*
X94814161Y-86270254D01*
X94619333Y-86231500D01*
X94619329Y-86231500D01*
X94420671Y-86231500D01*
X94420666Y-86231500D01*
X94225838Y-86270254D01*
X94225830Y-86270256D01*
X94042298Y-86346277D01*
X94042289Y-86346282D01*
X93877119Y-86456646D01*
X93877115Y-86456649D01*
X93736649Y-86597115D01*
X93736646Y-86597119D01*
X93626282Y-86762289D01*
X93626277Y-86762298D01*
X93550256Y-86945830D01*
X93550254Y-86945838D01*
X93511500Y-87140666D01*
X92988499Y-87140666D01*
X92949744Y-86945831D01*
X92873721Y-86762296D01*
X92873720Y-86762295D01*
X92873717Y-86762289D01*
X92763353Y-86597119D01*
X92763350Y-86597115D01*
X92622884Y-86456649D01*
X92622880Y-86456646D01*
X92457710Y-86346282D01*
X92457701Y-86346277D01*
X92274169Y-86270256D01*
X92274161Y-86270254D01*
X92079333Y-86231500D01*
X92079329Y-86231500D01*
X91880671Y-86231500D01*
X91880666Y-86231500D01*
X91685838Y-86270254D01*
X91685830Y-86270256D01*
X91502298Y-86346277D01*
X91502289Y-86346282D01*
X91337119Y-86456646D01*
X91337115Y-86456649D01*
X91196649Y-86597115D01*
X91196646Y-86597119D01*
X91086282Y-86762289D01*
X91086277Y-86762298D01*
X91010256Y-86945830D01*
X91010254Y-86945838D01*
X90971500Y-87140666D01*
X90448499Y-87140666D01*
X90409744Y-86945831D01*
X90333721Y-86762296D01*
X90333720Y-86762295D01*
X90333717Y-86762289D01*
X90223353Y-86597119D01*
X90223350Y-86597115D01*
X90082884Y-86456649D01*
X90082880Y-86456646D01*
X89917710Y-86346282D01*
X89917701Y-86346277D01*
X89734169Y-86270256D01*
X89734161Y-86270254D01*
X89539333Y-86231500D01*
X89539329Y-86231500D01*
X89340671Y-86231500D01*
X89340666Y-86231500D01*
X89145838Y-86270254D01*
X89145830Y-86270256D01*
X88962298Y-86346277D01*
X88962289Y-86346282D01*
X88797119Y-86456646D01*
X88797115Y-86456649D01*
X88656649Y-86597115D01*
X88656646Y-86597119D01*
X88546282Y-86762289D01*
X88546277Y-86762298D01*
X88470256Y-86945830D01*
X88470254Y-86945838D01*
X88431500Y-87140666D01*
X87908499Y-87140666D01*
X87869744Y-86945831D01*
X87793721Y-86762296D01*
X87793720Y-86762295D01*
X87793717Y-86762289D01*
X87683353Y-86597119D01*
X87683350Y-86597115D01*
X87542884Y-86456649D01*
X87542880Y-86456646D01*
X87377710Y-86346282D01*
X87377701Y-86346277D01*
X87194169Y-86270256D01*
X87194161Y-86270254D01*
X86999333Y-86231500D01*
X86999329Y-86231500D01*
X86800671Y-86231500D01*
X86800666Y-86231500D01*
X86605838Y-86270254D01*
X86605830Y-86270256D01*
X86422298Y-86346277D01*
X86422289Y-86346282D01*
X86257119Y-86456646D01*
X86257115Y-86456649D01*
X86116649Y-86597115D01*
X86116646Y-86597119D01*
X86006282Y-86762289D01*
X86006277Y-86762298D01*
X85930256Y-86945830D01*
X85930254Y-86945838D01*
X85891500Y-87140666D01*
X85368499Y-87140666D01*
X85329744Y-86945831D01*
X85253721Y-86762296D01*
X85253720Y-86762295D01*
X85253717Y-86762289D01*
X85143353Y-86597119D01*
X85143350Y-86597115D01*
X85002884Y-86456649D01*
X85002880Y-86456646D01*
X84837710Y-86346282D01*
X84837701Y-86346277D01*
X84654169Y-86270256D01*
X84654161Y-86270254D01*
X84459333Y-86231500D01*
X84459329Y-86231500D01*
X84260671Y-86231500D01*
X84260666Y-86231500D01*
X84065838Y-86270254D01*
X84065830Y-86270256D01*
X83882298Y-86346277D01*
X83882289Y-86346282D01*
X83717119Y-86456646D01*
X83717115Y-86456649D01*
X83576649Y-86597115D01*
X83576646Y-86597119D01*
X83466282Y-86762289D01*
X83466277Y-86762298D01*
X83390256Y-86945830D01*
X83390254Y-86945838D01*
X83351500Y-87140666D01*
X83351500Y-87339333D01*
X83390254Y-87534161D01*
X83390256Y-87534169D01*
X83465634Y-87716148D01*
X83473103Y-87785618D01*
X83441828Y-87848097D01*
X83419964Y-87866703D01*
X83385365Y-87889821D01*
X83385361Y-87889824D01*
X83258824Y-88016361D01*
X83258821Y-88016365D01*
X83159401Y-88165157D01*
X83159396Y-88165167D01*
X83090913Y-88330499D01*
X83090911Y-88330507D01*
X83056000Y-88506016D01*
X83056000Y-88684983D01*
X83089084Y-88851309D01*
X83082857Y-88920901D01*
X83039993Y-88976078D01*
X82974104Y-88999322D01*
X82967467Y-88999500D01*
X58124500Y-88999500D01*
X58057461Y-88979815D01*
X58011706Y-88927011D01*
X58000500Y-88875500D01*
X58000500Y-87140666D01*
X60491500Y-87140666D01*
X60491500Y-87339333D01*
X60530254Y-87534161D01*
X60530256Y-87534169D01*
X60606277Y-87717701D01*
X60606282Y-87717710D01*
X60716646Y-87882880D01*
X60716649Y-87882884D01*
X60857115Y-88023350D01*
X60857119Y-88023353D01*
X61022289Y-88133717D01*
X61022298Y-88133722D01*
X61063874Y-88150943D01*
X61205831Y-88209744D01*
X61400666Y-88248499D01*
X61400670Y-88248500D01*
X61400671Y-88248500D01*
X61599330Y-88248500D01*
X61599331Y-88248499D01*
X61794169Y-88209744D01*
X61977704Y-88133721D01*
X62142881Y-88023353D01*
X62283353Y-87882881D01*
X62393721Y-87717704D01*
X62469744Y-87534169D01*
X62508500Y-87339329D01*
X62508500Y-87140671D01*
X62508499Y-87140666D01*
X63031500Y-87140666D01*
X63031500Y-87339333D01*
X63070254Y-87534161D01*
X63070256Y-87534169D01*
X63146277Y-87717701D01*
X63146282Y-87717710D01*
X63256646Y-87882880D01*
X63256649Y-87882884D01*
X63397115Y-88023350D01*
X63397119Y-88023353D01*
X63562289Y-88133717D01*
X63562298Y-88133722D01*
X63603874Y-88150943D01*
X63745831Y-88209744D01*
X63940666Y-88248499D01*
X63940670Y-88248500D01*
X63940671Y-88248500D01*
X64139330Y-88248500D01*
X64139331Y-88248499D01*
X64334169Y-88209744D01*
X64517704Y-88133721D01*
X64682881Y-88023353D01*
X64823353Y-87882881D01*
X64933721Y-87717704D01*
X65009744Y-87534169D01*
X65048500Y-87339329D01*
X65048500Y-87140671D01*
X65048499Y-87140666D01*
X65571500Y-87140666D01*
X65571500Y-87339333D01*
X65610254Y-87534161D01*
X65610256Y-87534169D01*
X65686277Y-87717701D01*
X65686282Y-87717710D01*
X65796646Y-87882880D01*
X65796649Y-87882884D01*
X65937115Y-88023350D01*
X65937119Y-88023353D01*
X66102289Y-88133717D01*
X66102298Y-88133722D01*
X66143874Y-88150943D01*
X66285831Y-88209744D01*
X66480666Y-88248499D01*
X66480670Y-88248500D01*
X66480671Y-88248500D01*
X66679330Y-88248500D01*
X66679331Y-88248499D01*
X66874169Y-88209744D01*
X67057704Y-88133721D01*
X67222881Y-88023353D01*
X67363353Y-87882881D01*
X67473721Y-87717704D01*
X67549744Y-87534169D01*
X67588500Y-87339329D01*
X67588500Y-87140671D01*
X67588499Y-87140666D01*
X68111500Y-87140666D01*
X68111500Y-87339333D01*
X68150254Y-87534161D01*
X68150256Y-87534169D01*
X68226277Y-87717701D01*
X68226282Y-87717710D01*
X68336646Y-87882880D01*
X68336649Y-87882884D01*
X68477115Y-88023350D01*
X68477119Y-88023353D01*
X68642289Y-88133717D01*
X68642298Y-88133722D01*
X68683874Y-88150943D01*
X68825831Y-88209744D01*
X69020666Y-88248499D01*
X69020670Y-88248500D01*
X69020671Y-88248500D01*
X69219330Y-88248500D01*
X69219331Y-88248499D01*
X69414169Y-88209744D01*
X69597704Y-88133721D01*
X69762881Y-88023353D01*
X69903353Y-87882881D01*
X70013721Y-87717704D01*
X70089744Y-87534169D01*
X70128500Y-87339329D01*
X70128500Y-87140671D01*
X70128499Y-87140666D01*
X70651500Y-87140666D01*
X70651500Y-87339333D01*
X70690254Y-87534161D01*
X70690256Y-87534169D01*
X70766277Y-87717701D01*
X70766282Y-87717710D01*
X70876646Y-87882880D01*
X70876649Y-87882884D01*
X71017115Y-88023350D01*
X71017119Y-88023353D01*
X71182289Y-88133717D01*
X71182298Y-88133722D01*
X71223874Y-88150943D01*
X71365831Y-88209744D01*
X71560666Y-88248499D01*
X71560670Y-88248500D01*
X71560671Y-88248500D01*
X71759330Y-88248500D01*
X71759331Y-88248499D01*
X71954169Y-88209744D01*
X72137704Y-88133721D01*
X72302881Y-88023353D01*
X72443353Y-87882881D01*
X72553721Y-87717704D01*
X72629744Y-87534169D01*
X72668500Y-87339329D01*
X72668500Y-87140671D01*
X72668499Y-87140666D01*
X73191500Y-87140666D01*
X73191500Y-87339333D01*
X73230254Y-87534161D01*
X73230256Y-87534169D01*
X73306277Y-87717701D01*
X73306282Y-87717710D01*
X73416646Y-87882880D01*
X73416649Y-87882884D01*
X73557115Y-88023350D01*
X73557119Y-88023353D01*
X73722289Y-88133717D01*
X73722298Y-88133722D01*
X73763874Y-88150943D01*
X73905831Y-88209744D01*
X74100666Y-88248499D01*
X74100670Y-88248500D01*
X74100671Y-88248500D01*
X74299330Y-88248500D01*
X74299331Y-88248499D01*
X74494169Y-88209744D01*
X74677704Y-88133721D01*
X74842881Y-88023353D01*
X74983353Y-87882881D01*
X75093721Y-87717704D01*
X75169744Y-87534169D01*
X75208500Y-87339329D01*
X75208500Y-87140671D01*
X75208499Y-87140666D01*
X75731500Y-87140666D01*
X75731500Y-87339333D01*
X75770254Y-87534161D01*
X75770256Y-87534169D01*
X75846277Y-87717701D01*
X75846282Y-87717710D01*
X75956646Y-87882880D01*
X75956649Y-87882884D01*
X76097115Y-88023350D01*
X76097119Y-88023353D01*
X76262289Y-88133717D01*
X76262298Y-88133722D01*
X76303874Y-88150943D01*
X76445831Y-88209744D01*
X76640666Y-88248499D01*
X76640670Y-88248500D01*
X76640671Y-88248500D01*
X76839330Y-88248500D01*
X76839331Y-88248499D01*
X77034169Y-88209744D01*
X77217704Y-88133721D01*
X77382881Y-88023353D01*
X77523353Y-87882881D01*
X77633721Y-87717704D01*
X77709744Y-87534169D01*
X77748500Y-87339329D01*
X77748500Y-87140671D01*
X77748499Y-87140666D01*
X78271500Y-87140666D01*
X78271500Y-87339333D01*
X78310254Y-87534161D01*
X78310256Y-87534169D01*
X78386277Y-87717701D01*
X78386282Y-87717710D01*
X78496646Y-87882880D01*
X78496649Y-87882884D01*
X78637115Y-88023350D01*
X78637119Y-88023353D01*
X78802289Y-88133717D01*
X78802298Y-88133722D01*
X78843874Y-88150943D01*
X78985831Y-88209744D01*
X79180666Y-88248499D01*
X79180670Y-88248500D01*
X79180671Y-88248500D01*
X79379330Y-88248500D01*
X79379331Y-88248499D01*
X79574169Y-88209744D01*
X79757704Y-88133721D01*
X79922881Y-88023353D01*
X80063353Y-87882881D01*
X80173721Y-87717704D01*
X80249744Y-87534169D01*
X80288500Y-87339329D01*
X80288500Y-87140671D01*
X80288499Y-87140666D01*
X80811500Y-87140666D01*
X80811500Y-87339333D01*
X80850254Y-87534161D01*
X80850256Y-87534169D01*
X80926277Y-87717701D01*
X80926282Y-87717710D01*
X81036646Y-87882880D01*
X81036649Y-87882884D01*
X81177115Y-88023350D01*
X81177119Y-88023353D01*
X81342289Y-88133717D01*
X81342298Y-88133722D01*
X81383874Y-88150943D01*
X81525831Y-88209744D01*
X81720666Y-88248499D01*
X81720670Y-88248500D01*
X81720671Y-88248500D01*
X81919330Y-88248500D01*
X81919331Y-88248499D01*
X82114169Y-88209744D01*
X82297704Y-88133721D01*
X82462881Y-88023353D01*
X82603353Y-87882881D01*
X82713721Y-87717704D01*
X82789744Y-87534169D01*
X82828500Y-87339329D01*
X82828500Y-87140671D01*
X82789744Y-86945831D01*
X82713721Y-86762296D01*
X82713720Y-86762295D01*
X82713717Y-86762289D01*
X82603353Y-86597119D01*
X82603350Y-86597115D01*
X82462884Y-86456649D01*
X82462880Y-86456646D01*
X82297710Y-86346282D01*
X82297701Y-86346277D01*
X82114169Y-86270256D01*
X82114161Y-86270254D01*
X81919333Y-86231500D01*
X81919329Y-86231500D01*
X81720671Y-86231500D01*
X81720666Y-86231500D01*
X81525838Y-86270254D01*
X81525830Y-86270256D01*
X81342298Y-86346277D01*
X81342289Y-86346282D01*
X81177119Y-86456646D01*
X81177115Y-86456649D01*
X81036649Y-86597115D01*
X81036646Y-86597119D01*
X80926282Y-86762289D01*
X80926277Y-86762298D01*
X80850256Y-86945830D01*
X80850254Y-86945838D01*
X80811500Y-87140666D01*
X80288499Y-87140666D01*
X80249744Y-86945831D01*
X80173721Y-86762296D01*
X80173720Y-86762295D01*
X80173717Y-86762289D01*
X80063353Y-86597119D01*
X80063350Y-86597115D01*
X79922884Y-86456649D01*
X79922880Y-86456646D01*
X79757710Y-86346282D01*
X79757701Y-86346277D01*
X79574169Y-86270256D01*
X79574161Y-86270254D01*
X79379333Y-86231500D01*
X79379329Y-86231500D01*
X79180671Y-86231500D01*
X79180666Y-86231500D01*
X78985838Y-86270254D01*
X78985830Y-86270256D01*
X78802298Y-86346277D01*
X78802289Y-86346282D01*
X78637119Y-86456646D01*
X78637115Y-86456649D01*
X78496649Y-86597115D01*
X78496646Y-86597119D01*
X78386282Y-86762289D01*
X78386277Y-86762298D01*
X78310256Y-86945830D01*
X78310254Y-86945838D01*
X78271500Y-87140666D01*
X77748499Y-87140666D01*
X77709744Y-86945831D01*
X77633721Y-86762296D01*
X77633720Y-86762295D01*
X77633717Y-86762289D01*
X77523353Y-86597119D01*
X77523350Y-86597115D01*
X77382884Y-86456649D01*
X77382880Y-86456646D01*
X77217710Y-86346282D01*
X77217701Y-86346277D01*
X77034169Y-86270256D01*
X77034161Y-86270254D01*
X76839333Y-86231500D01*
X76839329Y-86231500D01*
X76640671Y-86231500D01*
X76640666Y-86231500D01*
X76445838Y-86270254D01*
X76445830Y-86270256D01*
X76262298Y-86346277D01*
X76262289Y-86346282D01*
X76097119Y-86456646D01*
X76097115Y-86456649D01*
X75956649Y-86597115D01*
X75956646Y-86597119D01*
X75846282Y-86762289D01*
X75846277Y-86762298D01*
X75770256Y-86945830D01*
X75770254Y-86945838D01*
X75731500Y-87140666D01*
X75208499Y-87140666D01*
X75169744Y-86945831D01*
X75093721Y-86762296D01*
X75093720Y-86762295D01*
X75093717Y-86762289D01*
X74983353Y-86597119D01*
X74983350Y-86597115D01*
X74842884Y-86456649D01*
X74842880Y-86456646D01*
X74677710Y-86346282D01*
X74677701Y-86346277D01*
X74494169Y-86270256D01*
X74494161Y-86270254D01*
X74299333Y-86231500D01*
X74299329Y-86231500D01*
X74100671Y-86231500D01*
X74100666Y-86231500D01*
X73905838Y-86270254D01*
X73905830Y-86270256D01*
X73722298Y-86346277D01*
X73722289Y-86346282D01*
X73557119Y-86456646D01*
X73557115Y-86456649D01*
X73416649Y-86597115D01*
X73416646Y-86597119D01*
X73306282Y-86762289D01*
X73306277Y-86762298D01*
X73230256Y-86945830D01*
X73230254Y-86945838D01*
X73191500Y-87140666D01*
X72668499Y-87140666D01*
X72629744Y-86945831D01*
X72553721Y-86762296D01*
X72553720Y-86762295D01*
X72553717Y-86762289D01*
X72443353Y-86597119D01*
X72443350Y-86597115D01*
X72302884Y-86456649D01*
X72302880Y-86456646D01*
X72137710Y-86346282D01*
X72137701Y-86346277D01*
X71954169Y-86270256D01*
X71954161Y-86270254D01*
X71759333Y-86231500D01*
X71759329Y-86231500D01*
X71560671Y-86231500D01*
X71560666Y-86231500D01*
X71365838Y-86270254D01*
X71365830Y-86270256D01*
X71182298Y-86346277D01*
X71182289Y-86346282D01*
X71017119Y-86456646D01*
X71017115Y-86456649D01*
X70876649Y-86597115D01*
X70876646Y-86597119D01*
X70766282Y-86762289D01*
X70766277Y-86762298D01*
X70690256Y-86945830D01*
X70690254Y-86945838D01*
X70651500Y-87140666D01*
X70128499Y-87140666D01*
X70089744Y-86945831D01*
X70013721Y-86762296D01*
X70013720Y-86762295D01*
X70013717Y-86762289D01*
X69903353Y-86597119D01*
X69903350Y-86597115D01*
X69762884Y-86456649D01*
X69762880Y-86456646D01*
X69597710Y-86346282D01*
X69597701Y-86346277D01*
X69414169Y-86270256D01*
X69414161Y-86270254D01*
X69219333Y-86231500D01*
X69219329Y-86231500D01*
X69020671Y-86231500D01*
X69020666Y-86231500D01*
X68825838Y-86270254D01*
X68825830Y-86270256D01*
X68642298Y-86346277D01*
X68642289Y-86346282D01*
X68477119Y-86456646D01*
X68477115Y-86456649D01*
X68336649Y-86597115D01*
X68336646Y-86597119D01*
X68226282Y-86762289D01*
X68226277Y-86762298D01*
X68150256Y-86945830D01*
X68150254Y-86945838D01*
X68111500Y-87140666D01*
X67588499Y-87140666D01*
X67549744Y-86945831D01*
X67473721Y-86762296D01*
X67473720Y-86762295D01*
X67473717Y-86762289D01*
X67363353Y-86597119D01*
X67363350Y-86597115D01*
X67222884Y-86456649D01*
X67222880Y-86456646D01*
X67057710Y-86346282D01*
X67057701Y-86346277D01*
X66874169Y-86270256D01*
X66874161Y-86270254D01*
X66679333Y-86231500D01*
X66679329Y-86231500D01*
X66480671Y-86231500D01*
X66480666Y-86231500D01*
X66285838Y-86270254D01*
X66285830Y-86270256D01*
X66102298Y-86346277D01*
X66102289Y-86346282D01*
X65937119Y-86456646D01*
X65937115Y-86456649D01*
X65796649Y-86597115D01*
X65796646Y-86597119D01*
X65686282Y-86762289D01*
X65686277Y-86762298D01*
X65610256Y-86945830D01*
X65610254Y-86945838D01*
X65571500Y-87140666D01*
X65048499Y-87140666D01*
X65009744Y-86945831D01*
X64933721Y-86762296D01*
X64933720Y-86762295D01*
X64933717Y-86762289D01*
X64823353Y-86597119D01*
X64823350Y-86597115D01*
X64682884Y-86456649D01*
X64682880Y-86456646D01*
X64517710Y-86346282D01*
X64517701Y-86346277D01*
X64334169Y-86270256D01*
X64334161Y-86270254D01*
X64139333Y-86231500D01*
X64139329Y-86231500D01*
X63940671Y-86231500D01*
X63940666Y-86231500D01*
X63745838Y-86270254D01*
X63745830Y-86270256D01*
X63562298Y-86346277D01*
X63562289Y-86346282D01*
X63397119Y-86456646D01*
X63397115Y-86456649D01*
X63256649Y-86597115D01*
X63256646Y-86597119D01*
X63146282Y-86762289D01*
X63146277Y-86762298D01*
X63070256Y-86945830D01*
X63070254Y-86945838D01*
X63031500Y-87140666D01*
X62508499Y-87140666D01*
X62469744Y-86945831D01*
X62393721Y-86762296D01*
X62393720Y-86762295D01*
X62393717Y-86762289D01*
X62283353Y-86597119D01*
X62283350Y-86597115D01*
X62142884Y-86456649D01*
X62142880Y-86456646D01*
X61977710Y-86346282D01*
X61977701Y-86346277D01*
X61794169Y-86270256D01*
X61794161Y-86270254D01*
X61599333Y-86231500D01*
X61599329Y-86231500D01*
X61400671Y-86231500D01*
X61400666Y-86231500D01*
X61205838Y-86270254D01*
X61205830Y-86270256D01*
X61022298Y-86346277D01*
X61022289Y-86346282D01*
X60857119Y-86456646D01*
X60857115Y-86456649D01*
X60716649Y-86597115D01*
X60716646Y-86597119D01*
X60606282Y-86762289D01*
X60606277Y-86762298D01*
X60530256Y-86945830D01*
X60530254Y-86945838D01*
X60491500Y-87140666D01*
X58000500Y-87140666D01*
X58000500Y-83289016D01*
X92370800Y-83289016D01*
X92370800Y-83467983D01*
X92405711Y-83643492D01*
X92405713Y-83643500D01*
X92474196Y-83808832D01*
X92474201Y-83808842D01*
X92573621Y-83957634D01*
X92573624Y-83957638D01*
X92700161Y-84084175D01*
X92700165Y-84084178D01*
X92848957Y-84183598D01*
X92848961Y-84183600D01*
X92848964Y-84183602D01*
X93014300Y-84252087D01*
X93189816Y-84286999D01*
X93189820Y-84287000D01*
X93189821Y-84287000D01*
X93368780Y-84287000D01*
X93368781Y-84286999D01*
X93544300Y-84252087D01*
X93604343Y-84227216D01*
X95106500Y-84227216D01*
X95106500Y-84406183D01*
X95141411Y-84581692D01*
X95141413Y-84581700D01*
X95209896Y-84747032D01*
X95209901Y-84747042D01*
X95309321Y-84895834D01*
X95309324Y-84895838D01*
X95435861Y-85022375D01*
X95435865Y-85022378D01*
X95584657Y-85121798D01*
X95584661Y-85121800D01*
X95584664Y-85121802D01*
X95750000Y-85190287D01*
X95925516Y-85225199D01*
X95925520Y-85225200D01*
X95925521Y-85225200D01*
X96104480Y-85225200D01*
X96104481Y-85225199D01*
X96280000Y-85190287D01*
X96445336Y-85121802D01*
X96594135Y-85022378D01*
X96720678Y-84895835D01*
X96820102Y-84747036D01*
X96888587Y-84581700D01*
X96923500Y-84406179D01*
X96923500Y-84227221D01*
X96888587Y-84051700D01*
X96827463Y-83904137D01*
X96820105Y-83886370D01*
X96820098Y-83886357D01*
X96813990Y-83877216D01*
X107354500Y-83877216D01*
X107354500Y-84056183D01*
X107389411Y-84231692D01*
X107389413Y-84231700D01*
X107457896Y-84397032D01*
X107457901Y-84397042D01*
X107557321Y-84545834D01*
X107557324Y-84545838D01*
X107683861Y-84672375D01*
X107683865Y-84672378D01*
X107832657Y-84771798D01*
X107832661Y-84771800D01*
X107832664Y-84771802D01*
X107998000Y-84840287D01*
X108173516Y-84875199D01*
X108173520Y-84875200D01*
X108173521Y-84875200D01*
X108352480Y-84875200D01*
X108352481Y-84875199D01*
X108528000Y-84840287D01*
X108693336Y-84771802D01*
X108842135Y-84672378D01*
X108968678Y-84545835D01*
X109068102Y-84397036D01*
X109136587Y-84231700D01*
X109171500Y-84056179D01*
X109171500Y-83877221D01*
X109136587Y-83701700D01*
X109068102Y-83536364D01*
X109068100Y-83536361D01*
X109068098Y-83536357D01*
X108968678Y-83387565D01*
X108968675Y-83387561D01*
X108842138Y-83261024D01*
X108842134Y-83261021D01*
X108693342Y-83161601D01*
X108693332Y-83161596D01*
X108528000Y-83093113D01*
X108527992Y-83093111D01*
X108352483Y-83058200D01*
X108352479Y-83058200D01*
X108173521Y-83058200D01*
X108173516Y-83058200D01*
X107998007Y-83093111D01*
X107997999Y-83093113D01*
X107832667Y-83161596D01*
X107832657Y-83161601D01*
X107683865Y-83261021D01*
X107683861Y-83261024D01*
X107557324Y-83387561D01*
X107557321Y-83387565D01*
X107457901Y-83536357D01*
X107457896Y-83536367D01*
X107389413Y-83701699D01*
X107389411Y-83701707D01*
X107354500Y-83877216D01*
X96813990Y-83877216D01*
X96720678Y-83737565D01*
X96720675Y-83737561D01*
X96594138Y-83611024D01*
X96594134Y-83611021D01*
X96445342Y-83511601D01*
X96445332Y-83511596D01*
X96280000Y-83443113D01*
X96279992Y-83443111D01*
X96104483Y-83408200D01*
X96104479Y-83408200D01*
X95925521Y-83408200D01*
X95925516Y-83408200D01*
X95750007Y-83443111D01*
X95749999Y-83443113D01*
X95584667Y-83511596D01*
X95584657Y-83511601D01*
X95435865Y-83611021D01*
X95435861Y-83611024D01*
X95309324Y-83737561D01*
X95309321Y-83737565D01*
X95209901Y-83886357D01*
X95209896Y-83886367D01*
X95141413Y-84051699D01*
X95141411Y-84051707D01*
X95106500Y-84227216D01*
X93604343Y-84227216D01*
X93709636Y-84183602D01*
X93709642Y-84183598D01*
X93807777Y-84118027D01*
X93829782Y-84103323D01*
X93858435Y-84084178D01*
X93984978Y-83957635D01*
X94084402Y-83808836D01*
X94152887Y-83643500D01*
X94187800Y-83467979D01*
X94187800Y-83289021D01*
X94152887Y-83113500D01*
X94084402Y-82948164D01*
X94084400Y-82948161D01*
X94084398Y-82948157D01*
X93984978Y-82799365D01*
X93984975Y-82799361D01*
X93858438Y-82672824D01*
X93858434Y-82672821D01*
X93709642Y-82573401D01*
X93709632Y-82573396D01*
X93544300Y-82504913D01*
X93544292Y-82504911D01*
X93368783Y-82470000D01*
X93368779Y-82470000D01*
X93189821Y-82470000D01*
X93189816Y-82470000D01*
X93014307Y-82504911D01*
X93014299Y-82504913D01*
X92848967Y-82573396D01*
X92848957Y-82573401D01*
X92700165Y-82672821D01*
X92700161Y-82672824D01*
X92573624Y-82799361D01*
X92573621Y-82799365D01*
X92474201Y-82948157D01*
X92474196Y-82948167D01*
X92405713Y-83113499D01*
X92405711Y-83113507D01*
X92370800Y-83289016D01*
X58000500Y-83289016D01*
X58000500Y-81084616D01*
X60555500Y-81084616D01*
X60555500Y-81263583D01*
X60590411Y-81439092D01*
X60590413Y-81439100D01*
X60658896Y-81604432D01*
X60658901Y-81604442D01*
X60758321Y-81753234D01*
X60758324Y-81753238D01*
X60884861Y-81879775D01*
X60884865Y-81879778D01*
X61033657Y-81979198D01*
X61033661Y-81979200D01*
X61033664Y-81979202D01*
X61199000Y-82047687D01*
X61374516Y-82082599D01*
X61374520Y-82082600D01*
X61374521Y-82082600D01*
X61553480Y-82082600D01*
X61553481Y-82082599D01*
X61729000Y-82047687D01*
X61894336Y-81979202D01*
X62043135Y-81879778D01*
X62169678Y-81753235D01*
X62269102Y-81604436D01*
X62337587Y-81439100D01*
X62372500Y-81263579D01*
X62372500Y-81084621D01*
X62337587Y-80909100D01*
X62269102Y-80743764D01*
X62222702Y-80674321D01*
X62222699Y-80674316D01*
X73368100Y-80674316D01*
X73368100Y-80853283D01*
X73403011Y-81028792D01*
X73403013Y-81028800D01*
X73471496Y-81194132D01*
X73471501Y-81194142D01*
X73570921Y-81342934D01*
X73570924Y-81342938D01*
X73697461Y-81469475D01*
X73697465Y-81469478D01*
X73846257Y-81568898D01*
X73846261Y-81568900D01*
X73846264Y-81568902D01*
X74011600Y-81637387D01*
X74187116Y-81672299D01*
X74187120Y-81672300D01*
X74187121Y-81672300D01*
X74366080Y-81672300D01*
X74366081Y-81672299D01*
X74541600Y-81637387D01*
X74706936Y-81568902D01*
X74855735Y-81469478D01*
X74982278Y-81342935D01*
X75081702Y-81194136D01*
X75150187Y-81028800D01*
X75153824Y-81010516D01*
X83557300Y-81010516D01*
X83557300Y-81189483D01*
X83592211Y-81364992D01*
X83592213Y-81365000D01*
X83660696Y-81530332D01*
X83660701Y-81530342D01*
X83760121Y-81679134D01*
X83760124Y-81679138D01*
X83886661Y-81805675D01*
X83886665Y-81805678D01*
X84035457Y-81905098D01*
X84035461Y-81905100D01*
X84035464Y-81905102D01*
X84200800Y-81973587D01*
X84376316Y-82008499D01*
X84376320Y-82008500D01*
X84376321Y-82008500D01*
X84555280Y-82008500D01*
X84555281Y-82008499D01*
X84730800Y-81973587D01*
X84896136Y-81905102D01*
X85044935Y-81805678D01*
X85171478Y-81679135D01*
X85213987Y-81615516D01*
X88045800Y-81615516D01*
X88045800Y-81794483D01*
X88080711Y-81969992D01*
X88080713Y-81970000D01*
X88149196Y-82135332D01*
X88149201Y-82135342D01*
X88248621Y-82284134D01*
X88248624Y-82284138D01*
X88375161Y-82410675D01*
X88375165Y-82410678D01*
X88523957Y-82510098D01*
X88523961Y-82510100D01*
X88523964Y-82510102D01*
X88689300Y-82578587D01*
X88864816Y-82613499D01*
X88864820Y-82613500D01*
X88864821Y-82613500D01*
X89043780Y-82613500D01*
X89043781Y-82613499D01*
X89219300Y-82578587D01*
X89384636Y-82510102D01*
X89533435Y-82410678D01*
X89659978Y-82284135D01*
X89707028Y-82213720D01*
X89707031Y-82213716D01*
X99115300Y-82213716D01*
X99115300Y-82392683D01*
X99150211Y-82568192D01*
X99150213Y-82568200D01*
X99218696Y-82733532D01*
X99218701Y-82733542D01*
X99318121Y-82882334D01*
X99318124Y-82882338D01*
X99444661Y-83008875D01*
X99444665Y-83008878D01*
X99593457Y-83108298D01*
X99593461Y-83108300D01*
X99593464Y-83108302D01*
X99758800Y-83176787D01*
X99934316Y-83211699D01*
X99934320Y-83211700D01*
X99934321Y-83211700D01*
X100113280Y-83211700D01*
X100113281Y-83211699D01*
X100288800Y-83176787D01*
X100454136Y-83108302D01*
X100602935Y-83008878D01*
X100729478Y-82882335D01*
X100828902Y-82733536D01*
X100897387Y-82568200D01*
X100932300Y-82392679D01*
X100932300Y-82213721D01*
X100897387Y-82038200D01*
X100852782Y-81930516D01*
X106587500Y-81930516D01*
X106587500Y-82109483D01*
X106622411Y-82284992D01*
X106622413Y-82285000D01*
X106690896Y-82450332D01*
X106690901Y-82450342D01*
X106790321Y-82599134D01*
X106790324Y-82599138D01*
X106916861Y-82725675D01*
X106916865Y-82725678D01*
X107065657Y-82825098D01*
X107065661Y-82825100D01*
X107065664Y-82825102D01*
X107231000Y-82893587D01*
X107406516Y-82928499D01*
X107406520Y-82928500D01*
X107406521Y-82928500D01*
X107585480Y-82928500D01*
X107585481Y-82928499D01*
X107761000Y-82893587D01*
X107926336Y-82825102D01*
X108075135Y-82725678D01*
X108201678Y-82599135D01*
X108301102Y-82450336D01*
X108369587Y-82285000D01*
X108404500Y-82109479D01*
X108404500Y-81930521D01*
X108369587Y-81755000D01*
X108301102Y-81589664D01*
X108301100Y-81589661D01*
X108301098Y-81589657D01*
X108201678Y-81440865D01*
X108201675Y-81440861D01*
X108075138Y-81314324D01*
X108075134Y-81314321D01*
X107926342Y-81214901D01*
X107926332Y-81214896D01*
X107761000Y-81146413D01*
X107760992Y-81146411D01*
X107585483Y-81111500D01*
X107585479Y-81111500D01*
X107406521Y-81111500D01*
X107406516Y-81111500D01*
X107231007Y-81146411D01*
X107230999Y-81146413D01*
X107065667Y-81214896D01*
X107065657Y-81214901D01*
X106916865Y-81314321D01*
X106916861Y-81314324D01*
X106790324Y-81440861D01*
X106790321Y-81440865D01*
X106690901Y-81589657D01*
X106690896Y-81589667D01*
X106622413Y-81754999D01*
X106622411Y-81755007D01*
X106587500Y-81930516D01*
X100852782Y-81930516D01*
X100828902Y-81872864D01*
X100828900Y-81872861D01*
X100828898Y-81872857D01*
X100729478Y-81724065D01*
X100729475Y-81724061D01*
X100602938Y-81597524D01*
X100602934Y-81597521D01*
X100454142Y-81498101D01*
X100454132Y-81498096D01*
X100288800Y-81429613D01*
X100288792Y-81429611D01*
X100113283Y-81394700D01*
X100113279Y-81394700D01*
X99934321Y-81394700D01*
X99934316Y-81394700D01*
X99758807Y-81429611D01*
X99758799Y-81429613D01*
X99593467Y-81498096D01*
X99593457Y-81498101D01*
X99444665Y-81597521D01*
X99444661Y-81597524D01*
X99318124Y-81724061D01*
X99318121Y-81724065D01*
X99218701Y-81872857D01*
X99218696Y-81872867D01*
X99150213Y-82038199D01*
X99150211Y-82038207D01*
X99115300Y-82213716D01*
X89707031Y-82213716D01*
X89757130Y-82138738D01*
X89758565Y-82136587D01*
X89759402Y-82135336D01*
X89827887Y-81970000D01*
X89862800Y-81794479D01*
X89862800Y-81615521D01*
X89827887Y-81440000D01*
X89759402Y-81274664D01*
X89759400Y-81274661D01*
X89759398Y-81274657D01*
X89659978Y-81125865D01*
X89659975Y-81125861D01*
X89533438Y-80999324D01*
X89533434Y-80999321D01*
X89384642Y-80899901D01*
X89384632Y-80899896D01*
X89219300Y-80831413D01*
X89219292Y-80831411D01*
X89043783Y-80796500D01*
X89043779Y-80796500D01*
X88864821Y-80796500D01*
X88864816Y-80796500D01*
X88689307Y-80831411D01*
X88689299Y-80831413D01*
X88523967Y-80899896D01*
X88523957Y-80899901D01*
X88375165Y-80999321D01*
X88375161Y-80999324D01*
X88248624Y-81125861D01*
X88248621Y-81125865D01*
X88149201Y-81274657D01*
X88149196Y-81274667D01*
X88080713Y-81439999D01*
X88080711Y-81440007D01*
X88045800Y-81615516D01*
X85213987Y-81615516D01*
X85226011Y-81597521D01*
X85264086Y-81540538D01*
X85264087Y-81540536D01*
X85270895Y-81530347D01*
X85270898Y-81530342D01*
X85270902Y-81530336D01*
X85339387Y-81365000D01*
X85374300Y-81189479D01*
X85374300Y-81010521D01*
X85339387Y-80835000D01*
X85270902Y-80669664D01*
X85270900Y-80669661D01*
X85270898Y-80669657D01*
X85171478Y-80520865D01*
X85171475Y-80520861D01*
X85044938Y-80394324D01*
X85044934Y-80394321D01*
X84932255Y-80319031D01*
X84896140Y-80294900D01*
X84896132Y-80294896D01*
X84730800Y-80226413D01*
X84730792Y-80226411D01*
X84708697Y-80222016D01*
X103600300Y-80222016D01*
X103600300Y-80400983D01*
X103635211Y-80576492D01*
X103635213Y-80576500D01*
X103703696Y-80741832D01*
X103703701Y-80741842D01*
X103803121Y-80890634D01*
X103803124Y-80890638D01*
X103929661Y-81017175D01*
X103929665Y-81017178D01*
X104078457Y-81116598D01*
X104078461Y-81116600D01*
X104078464Y-81116602D01*
X104243800Y-81185087D01*
X104419316Y-81219999D01*
X104419320Y-81220000D01*
X104419321Y-81220000D01*
X104598280Y-81220000D01*
X104598281Y-81219999D01*
X104773800Y-81185087D01*
X104939136Y-81116602D01*
X105087935Y-81017178D01*
X105214478Y-80890635D01*
X105313902Y-80741836D01*
X105382387Y-80576500D01*
X105417300Y-80400979D01*
X105417300Y-80222021D01*
X105382387Y-80046500D01*
X105313902Y-79881164D01*
X105313900Y-79881161D01*
X105313898Y-79881157D01*
X105214478Y-79732365D01*
X105214475Y-79732361D01*
X105087938Y-79605824D01*
X105087934Y-79605821D01*
X104939142Y-79506401D01*
X104939132Y-79506396D01*
X104773800Y-79437913D01*
X104773792Y-79437911D01*
X104598283Y-79403000D01*
X104598279Y-79403000D01*
X104419321Y-79403000D01*
X104419316Y-79403000D01*
X104243807Y-79437911D01*
X104243799Y-79437913D01*
X104078467Y-79506396D01*
X104078457Y-79506401D01*
X103929665Y-79605821D01*
X103929661Y-79605824D01*
X103803124Y-79732361D01*
X103803121Y-79732365D01*
X103703701Y-79881157D01*
X103703696Y-79881167D01*
X103635213Y-80046499D01*
X103635211Y-80046507D01*
X103600300Y-80222016D01*
X84708697Y-80222016D01*
X84555283Y-80191500D01*
X84555279Y-80191500D01*
X84376321Y-80191500D01*
X84376316Y-80191500D01*
X84200807Y-80226411D01*
X84200799Y-80226413D01*
X84035467Y-80294896D01*
X84035457Y-80294901D01*
X83886665Y-80394321D01*
X83886661Y-80394324D01*
X83760124Y-80520861D01*
X83760121Y-80520865D01*
X83660701Y-80669657D01*
X83660696Y-80669667D01*
X83592213Y-80834999D01*
X83592211Y-80835007D01*
X83557300Y-81010516D01*
X75153824Y-81010516D01*
X75156050Y-80999324D01*
X75159847Y-80980238D01*
X75185099Y-80853283D01*
X75185100Y-80853280D01*
X75185100Y-80674320D01*
X75185099Y-80674316D01*
X75150188Y-80498807D01*
X75150187Y-80498800D01*
X75081702Y-80333464D01*
X75081700Y-80333461D01*
X75081698Y-80333457D01*
X74982278Y-80184665D01*
X74982275Y-80184661D01*
X74855738Y-80058124D01*
X74855734Y-80058121D01*
X74706942Y-79958701D01*
X74706932Y-79958696D01*
X74541600Y-79890213D01*
X74541592Y-79890211D01*
X74366083Y-79855300D01*
X74366079Y-79855300D01*
X74187121Y-79855300D01*
X74187116Y-79855300D01*
X74011607Y-79890211D01*
X74011599Y-79890213D01*
X73846267Y-79958696D01*
X73846257Y-79958701D01*
X73697465Y-80058121D01*
X73697461Y-80058124D01*
X73570924Y-80184661D01*
X73570921Y-80184665D01*
X73471501Y-80333457D01*
X73471496Y-80333467D01*
X73403013Y-80498799D01*
X73403011Y-80498807D01*
X73368100Y-80674316D01*
X62222699Y-80674316D01*
X62169678Y-80594964D01*
X62043138Y-80468424D01*
X62043134Y-80468421D01*
X61894342Y-80369001D01*
X61894332Y-80368996D01*
X61729000Y-80300513D01*
X61728992Y-80300511D01*
X61553483Y-80265600D01*
X61553479Y-80265600D01*
X61374521Y-80265600D01*
X61374516Y-80265600D01*
X61199007Y-80300511D01*
X61198999Y-80300513D01*
X61033667Y-80368996D01*
X61033657Y-80369001D01*
X60884865Y-80468421D01*
X60884861Y-80468424D01*
X60758324Y-80594961D01*
X60758321Y-80594965D01*
X60658901Y-80743757D01*
X60658896Y-80743767D01*
X60590413Y-80909099D01*
X60590411Y-80909107D01*
X60555500Y-81084616D01*
X58000500Y-81084616D01*
X58000500Y-77895616D01*
X62267000Y-77895616D01*
X62267000Y-78074583D01*
X62301911Y-78250092D01*
X62301913Y-78250100D01*
X62370396Y-78415432D01*
X62370401Y-78415442D01*
X62469821Y-78564234D01*
X62469824Y-78564238D01*
X62596361Y-78690775D01*
X62596365Y-78690778D01*
X62745157Y-78790198D01*
X62745161Y-78790200D01*
X62745164Y-78790202D01*
X62910500Y-78858687D01*
X63043721Y-78885186D01*
X63086016Y-78893599D01*
X63086020Y-78893600D01*
X63086021Y-78893600D01*
X63264980Y-78893600D01*
X63264981Y-78893599D01*
X63440500Y-78858687D01*
X63605836Y-78790202D01*
X63754635Y-78690778D01*
X63881178Y-78564235D01*
X63980602Y-78415436D01*
X64049087Y-78250100D01*
X64084000Y-78074579D01*
X64084000Y-77922116D01*
X73368100Y-77922116D01*
X73368100Y-78101083D01*
X73403011Y-78276592D01*
X73403013Y-78276600D01*
X73471496Y-78441932D01*
X73471501Y-78441942D01*
X73570921Y-78590734D01*
X73570924Y-78590738D01*
X73697461Y-78717275D01*
X73697465Y-78717278D01*
X73846257Y-78816698D01*
X73846261Y-78816700D01*
X73846264Y-78816702D01*
X74011600Y-78885187D01*
X74187116Y-78920099D01*
X74187120Y-78920100D01*
X74187121Y-78920100D01*
X74366080Y-78920100D01*
X74366081Y-78920099D01*
X74541600Y-78885187D01*
X74706936Y-78816702D01*
X74855735Y-78717278D01*
X74982278Y-78590735D01*
X75081702Y-78441936D01*
X75150187Y-78276600D01*
X75185100Y-78101079D01*
X75185100Y-77922121D01*
X75150187Y-77746600D01*
X75081702Y-77581264D01*
X75081700Y-77581261D01*
X75081698Y-77581257D01*
X74982278Y-77432465D01*
X74982275Y-77432461D01*
X74855738Y-77305924D01*
X74855734Y-77305921D01*
X74706942Y-77206501D01*
X74706932Y-77206496D01*
X74541600Y-77138013D01*
X74541592Y-77138011D01*
X74366083Y-77103100D01*
X74366079Y-77103100D01*
X74187121Y-77103100D01*
X74187116Y-77103100D01*
X74011607Y-77138011D01*
X74011599Y-77138013D01*
X73846267Y-77206496D01*
X73846257Y-77206501D01*
X73697465Y-77305921D01*
X73697461Y-77305924D01*
X73570924Y-77432461D01*
X73570921Y-77432465D01*
X73471501Y-77581257D01*
X73471496Y-77581267D01*
X73403013Y-77746599D01*
X73403011Y-77746607D01*
X73368100Y-77922116D01*
X64084000Y-77922116D01*
X64084000Y-77895621D01*
X64049087Y-77720100D01*
X63980602Y-77554764D01*
X63980600Y-77554761D01*
X63980598Y-77554757D01*
X63881178Y-77405965D01*
X63881175Y-77405961D01*
X63754638Y-77279424D01*
X63754634Y-77279421D01*
X63605842Y-77180001D01*
X63605832Y-77179996D01*
X63440500Y-77111513D01*
X63440492Y-77111511D01*
X63264983Y-77076600D01*
X63264979Y-77076600D01*
X63086021Y-77076600D01*
X63086016Y-77076600D01*
X62910507Y-77111511D01*
X62910499Y-77111513D01*
X62745167Y-77179996D01*
X62745157Y-77180001D01*
X62596365Y-77279421D01*
X62596361Y-77279424D01*
X62469824Y-77405961D01*
X62469821Y-77405965D01*
X62370401Y-77554757D01*
X62370396Y-77554767D01*
X62301913Y-77720099D01*
X62301911Y-77720107D01*
X62267000Y-77895616D01*
X58000500Y-77895616D01*
X58000500Y-76800816D01*
X77069200Y-76800816D01*
X77069200Y-76979783D01*
X77104111Y-77155292D01*
X77104113Y-77155300D01*
X77172596Y-77320632D01*
X77172601Y-77320642D01*
X77272021Y-77469434D01*
X77272024Y-77469438D01*
X77398561Y-77595975D01*
X77398565Y-77595978D01*
X77547357Y-77695398D01*
X77547361Y-77695400D01*
X77547364Y-77695402D01*
X77712700Y-77763887D01*
X77888216Y-77798799D01*
X77888220Y-77798800D01*
X77888221Y-77798800D01*
X78067180Y-77798800D01*
X78067181Y-77798799D01*
X78242700Y-77763887D01*
X78408036Y-77695402D01*
X78491526Y-77639616D01*
X83964600Y-77639616D01*
X83964600Y-77818583D01*
X83999511Y-77994092D01*
X83999513Y-77994100D01*
X84067996Y-78159432D01*
X84068001Y-78159442D01*
X84167421Y-78308234D01*
X84167424Y-78308238D01*
X84293961Y-78434775D01*
X84293965Y-78434778D01*
X84442757Y-78534198D01*
X84442761Y-78534200D01*
X84442764Y-78534202D01*
X84608100Y-78602687D01*
X84783616Y-78637599D01*
X84783620Y-78637600D01*
X84783621Y-78637600D01*
X84962580Y-78637600D01*
X84962581Y-78637599D01*
X85138100Y-78602687D01*
X85303436Y-78534202D01*
X85452235Y-78434778D01*
X85578778Y-78308235D01*
X85678202Y-78159436D01*
X85746687Y-77994100D01*
X85781600Y-77818579D01*
X85781600Y-77639621D01*
X85746687Y-77464100D01*
X85678202Y-77298764D01*
X85678199Y-77298759D01*
X85638080Y-77238716D01*
X99427700Y-77238716D01*
X99427700Y-77417683D01*
X99462611Y-77593192D01*
X99462613Y-77593200D01*
X99531096Y-77758532D01*
X99531101Y-77758542D01*
X99630521Y-77907334D01*
X99630524Y-77907338D01*
X99757061Y-78033875D01*
X99757065Y-78033878D01*
X99905857Y-78133298D01*
X99905861Y-78133300D01*
X99905864Y-78133302D01*
X100071200Y-78201787D01*
X100246716Y-78236699D01*
X100246720Y-78236700D01*
X100246721Y-78236700D01*
X100425680Y-78236700D01*
X100425681Y-78236699D01*
X100601200Y-78201787D01*
X100766536Y-78133302D01*
X100915335Y-78033878D01*
X101041878Y-77907335D01*
X101141302Y-77758536D01*
X101209787Y-77593200D01*
X101244700Y-77417679D01*
X101244700Y-77238721D01*
X101209787Y-77063200D01*
X101141302Y-76897864D01*
X101141300Y-76897861D01*
X101141298Y-76897857D01*
X101041878Y-76749065D01*
X101041875Y-76749061D01*
X100915338Y-76622524D01*
X100915334Y-76622521D01*
X100766542Y-76523101D01*
X100766532Y-76523096D01*
X100601200Y-76454613D01*
X100601192Y-76454611D01*
X100425683Y-76419700D01*
X100425679Y-76419700D01*
X100246721Y-76419700D01*
X100246716Y-76419700D01*
X100071207Y-76454611D01*
X100071199Y-76454613D01*
X99905867Y-76523096D01*
X99905857Y-76523101D01*
X99757065Y-76622521D01*
X99757061Y-76622524D01*
X99630524Y-76749061D01*
X99630521Y-76749065D01*
X99531101Y-76897857D01*
X99531096Y-76897867D01*
X99462613Y-77063199D01*
X99462611Y-77063207D01*
X99427700Y-77238716D01*
X85638080Y-77238716D01*
X85578778Y-77149964D01*
X85452238Y-77023424D01*
X85452234Y-77023421D01*
X85303442Y-76924001D01*
X85303432Y-76923996D01*
X85138100Y-76855513D01*
X85138092Y-76855511D01*
X84962583Y-76820600D01*
X84962579Y-76820600D01*
X84783621Y-76820600D01*
X84783616Y-76820600D01*
X84608107Y-76855511D01*
X84608099Y-76855513D01*
X84442767Y-76923996D01*
X84442757Y-76924001D01*
X84293965Y-77023421D01*
X84293961Y-77023424D01*
X84167424Y-77149961D01*
X84167421Y-77149965D01*
X84068001Y-77298757D01*
X84067996Y-77298767D01*
X83999513Y-77464099D01*
X83999511Y-77464107D01*
X83964600Y-77639616D01*
X78491526Y-77639616D01*
X78556835Y-77595978D01*
X78571556Y-77581257D01*
X78606966Y-77545848D01*
X78683375Y-77469438D01*
X78683378Y-77469435D01*
X78782802Y-77320636D01*
X78851287Y-77155300D01*
X78886200Y-76979779D01*
X78886200Y-76800821D01*
X78851287Y-76625300D01*
X78782802Y-76459964D01*
X78782800Y-76459961D01*
X78782798Y-76459957D01*
X78683378Y-76311165D01*
X78683375Y-76311161D01*
X78556838Y-76184624D01*
X78556834Y-76184621D01*
X78408042Y-76085201D01*
X78408032Y-76085196D01*
X78242700Y-76016713D01*
X78242692Y-76016711D01*
X78067183Y-75981800D01*
X78067179Y-75981800D01*
X77888221Y-75981800D01*
X77888216Y-75981800D01*
X77712707Y-76016711D01*
X77712699Y-76016713D01*
X77547367Y-76085196D01*
X77547357Y-76085201D01*
X77398565Y-76184621D01*
X77398561Y-76184624D01*
X77272024Y-76311161D01*
X77272021Y-76311165D01*
X77172601Y-76459957D01*
X77172596Y-76459967D01*
X77104113Y-76625299D01*
X77104111Y-76625307D01*
X77069200Y-76800816D01*
X58000500Y-76800816D01*
X58000500Y-71900666D01*
X60491500Y-71900666D01*
X60491500Y-72099333D01*
X60530254Y-72294161D01*
X60530256Y-72294169D01*
X60606277Y-72477701D01*
X60606282Y-72477710D01*
X60716646Y-72642880D01*
X60716649Y-72642884D01*
X60857115Y-72783350D01*
X60857119Y-72783353D01*
X61022289Y-72893717D01*
X61022295Y-72893720D01*
X61022296Y-72893721D01*
X61205831Y-72969744D01*
X61398152Y-73007999D01*
X61400666Y-73008499D01*
X61400670Y-73008500D01*
X61400671Y-73008500D01*
X61599330Y-73008500D01*
X61599331Y-73008499D01*
X61794169Y-72969744D01*
X61977704Y-72893721D01*
X61978366Y-72893279D01*
X61979924Y-72892237D01*
X62142881Y-72783353D01*
X62283353Y-72642881D01*
X62393721Y-72477704D01*
X62469744Y-72294169D01*
X62508500Y-72099329D01*
X62508500Y-71900671D01*
X62508499Y-71900666D01*
X63031500Y-71900666D01*
X63031500Y-72099333D01*
X63070254Y-72294161D01*
X63070256Y-72294169D01*
X63146277Y-72477701D01*
X63146282Y-72477710D01*
X63256646Y-72642880D01*
X63256649Y-72642884D01*
X63397115Y-72783350D01*
X63397119Y-72783353D01*
X63562289Y-72893717D01*
X63562295Y-72893720D01*
X63562296Y-72893721D01*
X63745831Y-72969744D01*
X63938152Y-73007999D01*
X63940666Y-73008499D01*
X63940670Y-73008500D01*
X63940671Y-73008500D01*
X64139330Y-73008500D01*
X64139331Y-73008499D01*
X64334169Y-72969744D01*
X64517704Y-72893721D01*
X64518366Y-72893279D01*
X64519924Y-72892237D01*
X64682881Y-72783353D01*
X64823353Y-72642881D01*
X64933721Y-72477704D01*
X65009744Y-72294169D01*
X65048500Y-72099329D01*
X65048500Y-71900671D01*
X65048499Y-71900666D01*
X65571500Y-71900666D01*
X65571500Y-72099333D01*
X65610254Y-72294161D01*
X65610256Y-72294169D01*
X65686277Y-72477701D01*
X65686282Y-72477710D01*
X65796646Y-72642880D01*
X65796649Y-72642884D01*
X65937115Y-72783350D01*
X65937119Y-72783353D01*
X66102289Y-72893717D01*
X66102295Y-72893720D01*
X66102296Y-72893721D01*
X66285831Y-72969744D01*
X66478152Y-73007999D01*
X66480666Y-73008499D01*
X66480670Y-73008500D01*
X66480671Y-73008500D01*
X66679330Y-73008500D01*
X66679331Y-73008499D01*
X66874169Y-72969744D01*
X67057704Y-72893721D01*
X67058366Y-72893279D01*
X67059924Y-72892237D01*
X67222881Y-72783353D01*
X67363353Y-72642881D01*
X67473721Y-72477704D01*
X67549744Y-72294169D01*
X67588500Y-72099329D01*
X67588500Y-71900671D01*
X67588499Y-71900666D01*
X68111500Y-71900666D01*
X68111500Y-72099333D01*
X68150254Y-72294161D01*
X68150256Y-72294169D01*
X68226277Y-72477701D01*
X68226282Y-72477710D01*
X68336646Y-72642880D01*
X68336649Y-72642884D01*
X68477115Y-72783350D01*
X68477119Y-72783353D01*
X68642289Y-72893717D01*
X68642295Y-72893720D01*
X68642296Y-72893721D01*
X68825831Y-72969744D01*
X69018152Y-73007999D01*
X69020666Y-73008499D01*
X69020670Y-73008500D01*
X69020671Y-73008500D01*
X69219330Y-73008500D01*
X69219331Y-73008499D01*
X69414169Y-72969744D01*
X69597704Y-72893721D01*
X69598366Y-72893279D01*
X69599924Y-72892237D01*
X69762881Y-72783353D01*
X69903353Y-72642881D01*
X70013721Y-72477704D01*
X70089744Y-72294169D01*
X70128500Y-72099329D01*
X70128500Y-71900671D01*
X70089744Y-71705831D01*
X70013721Y-71522296D01*
X70013720Y-71522295D01*
X70013717Y-71522289D01*
X69903353Y-71357119D01*
X69903350Y-71357115D01*
X69762884Y-71216649D01*
X69762880Y-71216646D01*
X69597710Y-71106282D01*
X69597701Y-71106277D01*
X69414169Y-71030256D01*
X69414161Y-71030254D01*
X69219333Y-70991500D01*
X69219329Y-70991500D01*
X69020671Y-70991500D01*
X69020666Y-70991500D01*
X68825838Y-71030254D01*
X68825830Y-71030256D01*
X68642298Y-71106277D01*
X68642289Y-71106282D01*
X68477119Y-71216646D01*
X68477115Y-71216649D01*
X68336649Y-71357115D01*
X68336646Y-71357119D01*
X68226282Y-71522289D01*
X68226277Y-71522298D01*
X68150256Y-71705830D01*
X68150254Y-71705838D01*
X68111500Y-71900666D01*
X67588499Y-71900666D01*
X67549744Y-71705831D01*
X67473721Y-71522296D01*
X67473720Y-71522295D01*
X67473717Y-71522289D01*
X67363353Y-71357119D01*
X67363350Y-71357115D01*
X67222884Y-71216649D01*
X67222880Y-71216646D01*
X67057710Y-71106282D01*
X67057701Y-71106277D01*
X66874169Y-71030256D01*
X66874161Y-71030254D01*
X66679333Y-70991500D01*
X66679329Y-70991500D01*
X66480671Y-70991500D01*
X66480666Y-70991500D01*
X66285838Y-71030254D01*
X66285830Y-71030256D01*
X66102298Y-71106277D01*
X66102289Y-71106282D01*
X65937119Y-71216646D01*
X65937115Y-71216649D01*
X65796649Y-71357115D01*
X65796646Y-71357119D01*
X65686282Y-71522289D01*
X65686277Y-71522298D01*
X65610256Y-71705830D01*
X65610254Y-71705838D01*
X65571500Y-71900666D01*
X65048499Y-71900666D01*
X65009744Y-71705831D01*
X64933721Y-71522296D01*
X64933720Y-71522295D01*
X64933717Y-71522289D01*
X64823353Y-71357119D01*
X64823350Y-71357115D01*
X64682884Y-71216649D01*
X64682880Y-71216646D01*
X64517710Y-71106282D01*
X64517701Y-71106277D01*
X64334169Y-71030256D01*
X64334161Y-71030254D01*
X64139333Y-70991500D01*
X64139329Y-70991500D01*
X63940671Y-70991500D01*
X63940666Y-70991500D01*
X63745838Y-71030254D01*
X63745830Y-71030256D01*
X63562298Y-71106277D01*
X63562289Y-71106282D01*
X63397119Y-71216646D01*
X63397115Y-71216649D01*
X63256649Y-71357115D01*
X63256646Y-71357119D01*
X63146282Y-71522289D01*
X63146277Y-71522298D01*
X63070256Y-71705830D01*
X63070254Y-71705838D01*
X63031500Y-71900666D01*
X62508499Y-71900666D01*
X62469744Y-71705831D01*
X62393721Y-71522296D01*
X62393720Y-71522295D01*
X62393717Y-71522289D01*
X62283353Y-71357119D01*
X62283350Y-71357115D01*
X62142884Y-71216649D01*
X62142880Y-71216646D01*
X61977710Y-71106282D01*
X61977701Y-71106277D01*
X61794169Y-71030256D01*
X61794161Y-71030254D01*
X61599333Y-70991500D01*
X61599329Y-70991500D01*
X61400671Y-70991500D01*
X61400666Y-70991500D01*
X61205838Y-71030254D01*
X61205830Y-71030256D01*
X61022298Y-71106277D01*
X61022289Y-71106282D01*
X60857119Y-71216646D01*
X60857115Y-71216649D01*
X60716649Y-71357115D01*
X60716646Y-71357119D01*
X60606282Y-71522289D01*
X60606277Y-71522298D01*
X60530256Y-71705830D01*
X60530254Y-71705838D01*
X60491500Y-71900666D01*
X58000500Y-71900666D01*
X58000500Y-68038226D01*
X58020185Y-67971187D01*
X58072989Y-67925432D01*
X58142147Y-67915488D01*
X58205703Y-67944513D01*
X58242430Y-67999906D01*
X58246508Y-68012458D01*
X58248444Y-68018414D01*
X58344951Y-68207820D01*
X58469890Y-68379786D01*
X58620213Y-68530109D01*
X58792179Y-68655048D01*
X58792181Y-68655049D01*
X58792184Y-68655051D01*
X58981588Y-68751557D01*
X59183757Y-68817246D01*
X59393713Y-68850500D01*
X59393714Y-68850500D01*
X59606286Y-68850500D01*
X59606287Y-68850500D01*
X59816243Y-68817246D01*
X60018412Y-68751557D01*
X60207816Y-68655051D01*
X60330625Y-68565826D01*
X60379786Y-68530109D01*
X60379788Y-68530106D01*
X60379792Y-68530104D01*
X60530104Y-68379792D01*
X60530106Y-68379788D01*
X60530109Y-68379786D01*
X60655048Y-68207820D01*
X60655047Y-68207820D01*
X60655051Y-68207816D01*
X60751557Y-68018412D01*
X60817246Y-67816243D01*
X60850500Y-67606287D01*
X60850500Y-67393713D01*
X60817246Y-67183757D01*
X60751557Y-66981588D01*
X60655051Y-66792184D01*
X60655049Y-66792181D01*
X60655048Y-66792179D01*
X60530109Y-66620213D01*
X60379786Y-66469890D01*
X60207820Y-66344951D01*
X60018414Y-66248444D01*
X60018413Y-66248443D01*
X60018412Y-66248443D01*
X59999907Y-66242430D01*
X59942232Y-66202994D01*
X59915034Y-66138635D01*
X59926949Y-66069789D01*
X59974193Y-66018313D01*
X60038226Y-66000500D01*
X103875500Y-66000500D01*
X103942539Y-66020185D01*
G37*
%TD.AperFunction*%
%TA.AperFunction,Conductor*%
G36*
X84824075Y-68692993D02*
G01*
X84889901Y-68807007D01*
X84982993Y-68900099D01*
X85097007Y-68965925D01*
X85160590Y-68982962D01*
X84528282Y-69615269D01*
X84529841Y-69635070D01*
X84515477Y-69703447D01*
X84466426Y-69753205D01*
X84406223Y-69768800D01*
X83696498Y-69768800D01*
X83629459Y-69749115D01*
X83583704Y-69696311D01*
X83573760Y-69627153D01*
X83602785Y-69563597D01*
X83623613Y-69544482D01*
X83635004Y-69536206D01*
X83786206Y-69385004D01*
X83911894Y-69212009D01*
X83914283Y-69207319D01*
X83962254Y-69156522D01*
X84030074Y-69139724D01*
X84096210Y-69162258D01*
X84132196Y-69203783D01*
X84132829Y-69203396D01*
X84135167Y-69207211D01*
X84135251Y-69207308D01*
X84135371Y-69207545D01*
X84135373Y-69207547D01*
X84174728Y-69261716D01*
X84807037Y-68629408D01*
X84824075Y-68692993D01*
G37*
%TD.AperFunction*%
%TA.AperFunction,Conductor*%
G36*
X86405270Y-69261717D02*
G01*
X86405270Y-69261716D01*
X86444621Y-69207556D01*
X86444738Y-69207327D01*
X86444808Y-69207252D01*
X86447168Y-69203402D01*
X86447976Y-69203897D01*
X86492707Y-69156526D01*
X86560526Y-69139723D01*
X86626663Y-69162254D01*
X86665712Y-69207311D01*
X86668105Y-69212008D01*
X86704220Y-69261716D01*
X86793794Y-69385004D01*
X86944996Y-69536206D01*
X86944999Y-69536208D01*
X86956387Y-69544482D01*
X86999053Y-69599811D01*
X87005032Y-69669425D01*
X86972427Y-69731220D01*
X86911588Y-69765577D01*
X86883502Y-69768800D01*
X86173777Y-69768800D01*
X86106738Y-69749115D01*
X86060983Y-69696311D01*
X86050159Y-69635072D01*
X86051717Y-69615270D01*
X85419408Y-68982962D01*
X85482993Y-68965925D01*
X85597007Y-68900099D01*
X85690099Y-68807007D01*
X85755925Y-68692993D01*
X85772962Y-68629408D01*
X86405270Y-69261717D01*
G37*
%TD.AperFunction*%
%TD*%
M02*
