%TF.GenerationSoftware,KiCad,Pcbnew,9.0.7*%
%TF.CreationDate,2026-04-02T12:18:53-05:00*%
%TF.ProjectId,WindTurbineController,57696e64-5475-4726-9269-6e65436f6e74,rev?*%
%TF.SameCoordinates,Original*%
%TF.FileFunction,Paste,Top*%
%TF.FilePolarity,Positive*%
%FSLAX46Y46*%
G04 Gerber Fmt 4.6, Leading zero omitted, Abs format (unit mm)*
G04 Created by KiCad (PCBNEW 9.0.7) date 2026-04-02 12:18:53*
%MOMM*%
%LPD*%
G01*
G04 APERTURE LIST*
G04 Aperture macros list*
%AMRoundRect*
0 Rectangle with rounded corners*
0 $1 Rounding radius*
0 $2 $3 $4 $5 $6 $7 $8 $9 X,Y pos of 4 corners*
0 Add a 4 corners polygon primitive as box body*
4,1,4,$2,$3,$4,$5,$6,$7,$8,$9,$2,$3,0*
0 Add four circle primitives for the rounded corners*
1,1,$1+$1,$2,$3*
1,1,$1+$1,$4,$5*
1,1,$1+$1,$6,$7*
1,1,$1+$1,$8,$9*
0 Add four rect primitives between the rounded corners*
20,1,$1+$1,$2,$3,$4,$5,0*
20,1,$1+$1,$4,$5,$6,$7,0*
20,1,$1+$1,$6,$7,$8,$9,0*
20,1,$1+$1,$8,$9,$2,$3,0*%
G04 Aperture macros list end*
%ADD10R,0.350000X0.220000*%
%ADD11R,0.600000X0.800000*%
%ADD12RoundRect,0.250000X-0.475000X0.250000X-0.475000X-0.250000X0.475000X-0.250000X0.475000X0.250000X0*%
%ADD13RoundRect,0.150000X-0.512500X-0.150000X0.512500X-0.150000X0.512500X0.150000X-0.512500X0.150000X0*%
%ADD14RoundRect,0.200000X-0.200000X-0.275000X0.200000X-0.275000X0.200000X0.275000X-0.200000X0.275000X0*%
%ADD15RoundRect,0.225000X0.250000X-0.225000X0.250000X0.225000X-0.250000X0.225000X-0.250000X-0.225000X0*%
%ADD16RoundRect,0.225000X-0.250000X0.225000X-0.250000X-0.225000X0.250000X-0.225000X0.250000X0.225000X0*%
%ADD17R,0.300000X0.700000*%
%ADD18R,1.700000X1.000000*%
G04 APERTURE END LIST*
D10*
%TO.C,U4*%
X110325000Y-72500000D03*
X111675000Y-72500000D03*
X111675000Y-72000000D03*
X110325000Y-72000000D03*
D11*
X111000000Y-72250000D03*
%TD*%
D12*
%TO.C,C8*%
X86250000Y-75660000D03*
X86250000Y-77560000D03*
%TD*%
D13*
%TO.C,U3*%
X62862500Y-79540000D03*
X62862500Y-80490000D03*
X62862500Y-81440000D03*
X65137500Y-81440000D03*
X65137500Y-80490000D03*
X65137500Y-79540000D03*
%TD*%
D14*
%TO.C,R1*%
X75090000Y-76960000D03*
X76740000Y-76960000D03*
%TD*%
%TO.C,R2*%
X79300000Y-76940000D03*
X80950000Y-76940000D03*
%TD*%
D12*
%TO.C,C9*%
X86420000Y-80060000D03*
X86420000Y-81960000D03*
%TD*%
D13*
%TO.C,U2*%
X109842500Y-81290000D03*
X109842500Y-82240000D03*
X109842500Y-83190000D03*
X112117500Y-83190000D03*
X112117500Y-82240000D03*
X112117500Y-81290000D03*
%TD*%
D15*
%TO.C,C7*%
X102770000Y-79595000D03*
X102770000Y-78045000D03*
%TD*%
D16*
%TO.C,C10*%
X61450000Y-75795000D03*
X61450000Y-77345000D03*
%TD*%
%TO.C,C11*%
X106970000Y-85385000D03*
X106970000Y-86935000D03*
%TD*%
D17*
%TO.C,IC2*%
X101910000Y-84280000D03*
X102410000Y-84280000D03*
X102910000Y-84280000D03*
X103410000Y-84280000D03*
X103410000Y-82180000D03*
X102910000Y-82180000D03*
X102410000Y-82180000D03*
X101910000Y-82180000D03*
D18*
X102660000Y-83230000D03*
%TD*%
D17*
%TO.C,IC1*%
X102190000Y-75830000D03*
X102690000Y-75830000D03*
X103190000Y-75830000D03*
X103690000Y-75830000D03*
X103690000Y-73730000D03*
X103190000Y-73730000D03*
X102690000Y-73730000D03*
X102190000Y-73730000D03*
D18*
X102940000Y-74780000D03*
%TD*%
M02*
