%TF.GenerationSoftware,KiCad,Pcbnew,9.0.7*%
%TF.CreationDate,2026-04-02T12:18:53-05:00*%
%TF.ProjectId,WindTurbineController,57696e64-5475-4726-9269-6e65436f6e74,rev?*%
%TF.SameCoordinates,Original*%
%TF.FileFunction,Legend,Top*%
%TF.FilePolarity,Positive*%
%FSLAX46Y46*%
G04 Gerber Fmt 4.6, Leading zero omitted, Abs format (unit mm)*
G04 Created by KiCad (PCBNEW 9.0.7) date 2026-04-02 12:18:53*
%MOMM*%
%LPD*%
G01*
G04 APERTURE LIST*
%ADD10C,0.101600*%
%ADD11C,0.150000*%
%ADD12C,0.100000*%
%ADD13C,0.120000*%
%ADD14C,0.250000*%
G04 APERTURE END LIST*
D10*
X107666840Y-73890209D02*
X108612687Y-73890209D01*
X108612687Y-73890209D02*
X108723963Y-73834571D01*
X108723963Y-73834571D02*
X108779602Y-73778933D01*
X108779602Y-73778933D02*
X108835240Y-73667657D01*
X108835240Y-73667657D02*
X108835240Y-73445104D01*
X108835240Y-73445104D02*
X108779602Y-73333828D01*
X108779602Y-73333828D02*
X108723963Y-73278190D01*
X108723963Y-73278190D02*
X108612687Y-73222552D01*
X108612687Y-73222552D02*
X107666840Y-73222552D01*
X108056306Y-72165428D02*
X108835240Y-72165428D01*
X107611202Y-72443619D02*
X108445773Y-72721809D01*
X108445773Y-72721809D02*
X108445773Y-71998514D01*
D11*
X61854819Y-69733333D02*
X62569104Y-69733333D01*
X62569104Y-69733333D02*
X62711961Y-69780952D01*
X62711961Y-69780952D02*
X62807200Y-69876190D01*
X62807200Y-69876190D02*
X62854819Y-70019047D01*
X62854819Y-70019047D02*
X62854819Y-70114285D01*
X61854819Y-69352380D02*
X61854819Y-68733333D01*
X61854819Y-68733333D02*
X62235771Y-69066666D01*
X62235771Y-69066666D02*
X62235771Y-68923809D01*
X62235771Y-68923809D02*
X62283390Y-68828571D01*
X62283390Y-68828571D02*
X62331009Y-68780952D01*
X62331009Y-68780952D02*
X62426247Y-68733333D01*
X62426247Y-68733333D02*
X62664342Y-68733333D01*
X62664342Y-68733333D02*
X62759580Y-68780952D01*
X62759580Y-68780952D02*
X62807200Y-68828571D01*
X62807200Y-68828571D02*
X62854819Y-68923809D01*
X62854819Y-68923809D02*
X62854819Y-69209523D01*
X62854819Y-69209523D02*
X62807200Y-69304761D01*
X62807200Y-69304761D02*
X62759580Y-69352380D01*
D12*
X105154895Y-83840951D02*
X104354895Y-83840951D01*
X105078704Y-83002856D02*
X105116800Y-83040952D01*
X105116800Y-83040952D02*
X105154895Y-83155237D01*
X105154895Y-83155237D02*
X105154895Y-83231428D01*
X105154895Y-83231428D02*
X105116800Y-83345714D01*
X105116800Y-83345714D02*
X105040609Y-83421904D01*
X105040609Y-83421904D02*
X104964419Y-83459999D01*
X104964419Y-83459999D02*
X104812038Y-83498095D01*
X104812038Y-83498095D02*
X104697752Y-83498095D01*
X104697752Y-83498095D02*
X104545371Y-83459999D01*
X104545371Y-83459999D02*
X104469180Y-83421904D01*
X104469180Y-83421904D02*
X104392990Y-83345714D01*
X104392990Y-83345714D02*
X104354895Y-83231428D01*
X104354895Y-83231428D02*
X104354895Y-83155237D01*
X104354895Y-83155237D02*
X104392990Y-83040952D01*
X104392990Y-83040952D02*
X104431085Y-83002856D01*
X104431085Y-82698095D02*
X104392990Y-82659999D01*
X104392990Y-82659999D02*
X104354895Y-82583809D01*
X104354895Y-82583809D02*
X104354895Y-82393333D01*
X104354895Y-82393333D02*
X104392990Y-82317142D01*
X104392990Y-82317142D02*
X104431085Y-82279047D01*
X104431085Y-82279047D02*
X104507276Y-82240952D01*
X104507276Y-82240952D02*
X104583466Y-82240952D01*
X104583466Y-82240952D02*
X104697752Y-82279047D01*
X104697752Y-82279047D02*
X105154895Y-82736190D01*
X105154895Y-82736190D02*
X105154895Y-82240952D01*
X105414895Y-76740951D02*
X104614895Y-76740951D01*
X105338704Y-75902856D02*
X105376800Y-75940952D01*
X105376800Y-75940952D02*
X105414895Y-76055237D01*
X105414895Y-76055237D02*
X105414895Y-76131428D01*
X105414895Y-76131428D02*
X105376800Y-76245714D01*
X105376800Y-76245714D02*
X105300609Y-76321904D01*
X105300609Y-76321904D02*
X105224419Y-76359999D01*
X105224419Y-76359999D02*
X105072038Y-76398095D01*
X105072038Y-76398095D02*
X104957752Y-76398095D01*
X104957752Y-76398095D02*
X104805371Y-76359999D01*
X104805371Y-76359999D02*
X104729180Y-76321904D01*
X104729180Y-76321904D02*
X104652990Y-76245714D01*
X104652990Y-76245714D02*
X104614895Y-76131428D01*
X104614895Y-76131428D02*
X104614895Y-76055237D01*
X104614895Y-76055237D02*
X104652990Y-75940952D01*
X104652990Y-75940952D02*
X104691085Y-75902856D01*
X105414895Y-75140952D02*
X105414895Y-75598095D01*
X105414895Y-75369523D02*
X104614895Y-75369523D01*
X104614895Y-75369523D02*
X104729180Y-75445714D01*
X104729180Y-75445714D02*
X104805371Y-75521904D01*
X104805371Y-75521904D02*
X104843466Y-75598095D01*
%TO.C,U4*%
X109600000Y-72500000D02*
X109600000Y-72500000D01*
X109700000Y-72500000D02*
X109700000Y-72500000D01*
X109600000Y-72500000D02*
G75*
G02*
X109700000Y-72500000I50000J0D01*
G01*
X109700000Y-72500000D02*
G75*
G02*
X109600000Y-72500000I-50000J0D01*
G01*
D13*
%TO.C,C8*%
X86985000Y-76348748D02*
X86985000Y-76871252D01*
X85515000Y-76348748D02*
X85515000Y-76871252D01*
%TO.C,J1*%
X103280000Y-67120000D02*
X103280000Y-68500000D01*
X101900000Y-67120000D02*
X103280000Y-67120000D01*
X100630000Y-67120000D02*
X97980000Y-67120000D01*
X100630000Y-67120000D02*
X100630000Y-69880000D01*
X97980000Y-67120000D02*
X97980000Y-69880000D01*
X100630000Y-69880000D02*
X97980000Y-69880000D01*
%TO.C,J2*%
X96655000Y-67120000D02*
X96655000Y-68500000D01*
X95275000Y-67120000D02*
X96655000Y-67120000D01*
X94005000Y-67120000D02*
X91355000Y-67120000D01*
X94005000Y-67120000D02*
X94005000Y-69880000D01*
X91355000Y-67120000D02*
X91355000Y-69880000D01*
X94005000Y-69880000D02*
X91355000Y-69880000D01*
%TO.C,U3*%
X63090000Y-78930000D02*
X64910000Y-78930000D01*
X63090000Y-78980000D02*
X63090000Y-78930000D01*
X63090000Y-82050000D02*
X63090000Y-82000000D01*
X64910000Y-78930000D02*
X64910000Y-78980000D01*
X64910000Y-82000000D02*
X64910000Y-82050000D01*
X64910000Y-82050000D02*
X63090000Y-82050000D01*
X62550000Y-78980000D02*
X62310000Y-78650000D01*
X62790000Y-78650000D01*
X62550000Y-78980000D01*
G36*
X62550000Y-78980000D02*
G01*
X62310000Y-78650000D01*
X62790000Y-78650000D01*
X62550000Y-78980000D01*
G37*
%TO.C,R1*%
X75677742Y-76437500D02*
X76152258Y-76437500D01*
X75677742Y-77482500D02*
X76152258Y-77482500D01*
%TO.C,R2*%
X79887742Y-76417500D02*
X80362258Y-76417500D01*
X79887742Y-77462500D02*
X80362258Y-77462500D01*
%TO.C,C9*%
X87155000Y-80748748D02*
X87155000Y-81271252D01*
X85685000Y-80748748D02*
X85685000Y-81271252D01*
%TO.C,U2*%
X110070000Y-80680000D02*
X111890000Y-80680000D01*
X110070000Y-80730000D02*
X110070000Y-80680000D01*
X110070000Y-83800000D02*
X110070000Y-83750000D01*
X111890000Y-80680000D02*
X111890000Y-80730000D01*
X111890000Y-83750000D02*
X111890000Y-83800000D01*
X111890000Y-83800000D02*
X110070000Y-83800000D01*
X109530000Y-80730000D02*
X109290000Y-80400000D01*
X109770000Y-80400000D01*
X109530000Y-80730000D01*
G36*
X109530000Y-80730000D02*
G01*
X109290000Y-80400000D01*
X109770000Y-80400000D01*
X109530000Y-80730000D01*
G37*
%TO.C,C7*%
X102260000Y-78960580D02*
X102260000Y-78679420D01*
X103280000Y-78960580D02*
X103280000Y-78679420D01*
%TO.C,C10*%
X61960000Y-76429420D02*
X61960000Y-76710580D01*
X60940000Y-76429420D02*
X60940000Y-76710580D01*
%TO.C,C11*%
X107480000Y-86019420D02*
X107480000Y-86300580D01*
X106460000Y-86019420D02*
X106460000Y-86300580D01*
%TO.C,J3*%
X63590000Y-69880000D02*
X63590000Y-68500000D01*
X64970000Y-69880000D02*
X63590000Y-69880000D01*
X66240000Y-67120000D02*
X89210000Y-67120000D01*
X66240000Y-69880000D02*
X66240000Y-67120000D01*
X66240000Y-69880000D02*
X89210000Y-69880000D01*
X89210000Y-69880000D02*
X89210000Y-67120000D01*
D14*
%TO.C,IC2*%
X101385000Y-84630000D02*
G75*
G02*
X101135000Y-84630000I-125000J0D01*
G01*
X101135000Y-84630000D02*
G75*
G02*
X101385000Y-84630000I125000J0D01*
G01*
%TO.C,IC1*%
X101665000Y-76180000D02*
G75*
G02*
X101415000Y-76180000I-125000J0D01*
G01*
X101415000Y-76180000D02*
G75*
G02*
X101665000Y-76180000I125000J0D01*
G01*
%TD*%
M02*
