M48
; DRILL file {KiCad 9.0.7} date 2026-04-02T12:19:33-0500
; FORMAT={-:-/ absolute / metric / decimal}
; #@! TF.CreationDate,2026-04-02T12:19:33-05:00
; #@! TF.GenerationSoftware,Kicad,Pcbnew,9.0.7
; #@! TF.FileFunction,Plated,1,4,PTH
FMAT,2
METRIC
; #@! TA.AperFunction,Plated,PTH,ViaDrill
T1C0.400
; #@! TA.AperFunction,Plated,PTH,ComponentDrill
T2C1.000
%
G90
G05
T1
X61.464Y-81.174
X63.175Y-77.985
X69.758Y-74.25
X71.867Y-70.341
X74.277Y-78.012
X74.277Y-80.764
X77.978Y-76.89
X83.965Y-88.596
X84.466Y-81.1
X84.873Y-77.729
X86.73Y-73.752
X88.954Y-81.705
X89.1Y-79.7
X89.5Y-74.9
X93.279Y-83.379
X96.015Y-84.317
X98.761Y-74.477
X100.024Y-82.303
X100.336Y-77.328
X100.6Y-84.0
X101.354Y-74.993
X103.4Y-71.9
X104.509Y-80.311
X107.496Y-82.02
X107.694Y-70.402
X108.263Y-83.967
X108.51Y-86.877
X111.1Y-70.7
X111.681Y-74.175
T2
X61.5Y-72.0
X61.5Y-87.24
X64.04Y-72.0
X64.04Y-87.24
X64.97Y-68.5
X66.58Y-72.0
X66.58Y-87.24
X67.51Y-68.5
X69.12Y-72.0
X69.12Y-87.24
X70.05Y-68.5
X71.66Y-72.0
X71.66Y-87.24
X72.59Y-68.5
X74.2Y-72.0
X74.2Y-87.24
X75.13Y-68.5
X76.74Y-72.0
X76.74Y-87.24
X77.67Y-68.5
X79.28Y-72.0
X79.28Y-87.24
X80.21Y-68.5
X81.82Y-72.0
X81.82Y-87.24
X82.75Y-68.5
X84.36Y-72.0
X84.36Y-87.24
X85.29Y-68.5
X86.9Y-72.0
X86.9Y-87.24
X87.83Y-68.5
X89.44Y-72.0
X89.44Y-87.24
X91.98Y-72.0
X91.98Y-87.24
X92.735Y-68.5
X94.52Y-72.0
X94.52Y-87.24
X95.275Y-68.5
X97.06Y-72.0
X97.06Y-87.24
X99.36Y-68.5
X101.9Y-68.5
M30
