%TF.GenerationSoftware,KiCad,Pcbnew,9.0.7*%
%TF.CreationDate,2026-04-02T12:18:53-05:00*%
%TF.ProjectId,WindTurbineController,57696e64-5475-4726-9269-6e65436f6e74,rev?*%
%TF.SameCoordinates,Original*%
%TF.FileFunction,Soldermask,Top*%
%TF.FilePolarity,Negative*%
%FSLAX46Y46*%
G04 Gerber Fmt 4.6, Leading zero omitted, Abs format (unit mm)*
G04 Created by KiCad (PCBNEW 9.0.7) date 2026-04-02 12:18:53*
%MOMM*%
%LPD*%
G01*
G04 APERTURE LIST*
G04 Aperture macros list*
%AMRoundRect*
0 Rectangle with rounded corners*
0 $1 Rounding radius*
0 $2 $3 $4 $5 $6 $7 $8 $9 X,Y pos of 4 corners*
0 Add a 4 corners polygon primitive as box body*
4,1,4,$2,$3,$4,$5,$6,$7,$8,$9,$2,$3,0*
0 Add four circle primitives for the rounded corners*
1,1,$1+$1,$2,$3*
1,1,$1+$1,$4,$5*
1,1,$1+$1,$6,$7*
1,1,$1+$1,$8,$9*
0 Add four rect primitives between the rounded corners*
20,1,$1+$1,$2,$3,$4,$5,0*
20,1,$1+$1,$4,$5,$6,$7,0*
20,1,$1+$1,$6,$7,$8,$9,0*
20,1,$1+$1,$8,$9,$2,$3,0*%
G04 Aperture macros list end*
%ADD10R,0.350000X0.220000*%
%ADD11RoundRect,0.101600X0.175000X0.110000X-0.175000X0.110000X-0.175000X-0.110000X0.175000X-0.110000X0*%
%ADD12RoundRect,0.101600X0.300000X-0.400000X0.300000X0.400000X-0.300000X0.400000X-0.300000X-0.400000X0*%
%ADD13RoundRect,0.250000X-0.475000X0.250000X-0.475000X-0.250000X0.475000X-0.250000X0.475000X0.250000X0*%
%ADD14R,1.700000X1.700000*%
%ADD15C,1.700000*%
%ADD16RoundRect,0.150000X-0.512500X-0.150000X0.512500X-0.150000X0.512500X0.150000X-0.512500X0.150000X0*%
%ADD17RoundRect,0.200000X-0.200000X-0.275000X0.200000X-0.275000X0.200000X0.275000X-0.200000X0.275000X0*%
%ADD18RoundRect,0.225000X0.250000X-0.225000X0.250000X0.225000X-0.250000X0.225000X-0.250000X-0.225000X0*%
%ADD19RoundRect,0.225000X-0.250000X0.225000X-0.250000X-0.225000X0.250000X-0.225000X0.250000X0.225000X0*%
%ADD20C,2.200000*%
%ADD21R,0.300000X0.700000*%
%ADD22RoundRect,0.101600X0.150000X-0.350000X0.150000X0.350000X-0.150000X0.350000X-0.150000X-0.350000X0*%
%ADD23RoundRect,0.101600X0.850000X0.500000X-0.850000X0.500000X-0.850000X-0.500000X0.850000X-0.500000X0*%
%ADD24R,1.700000X1.000000*%
%ADD25R,1.600000X1.600000*%
%ADD26O,1.600000X1.600000*%
G04 APERTURE END LIST*
D10*
%TO.C,U4*%
X110325000Y-72500000D03*
D11*
X111675000Y-72500000D03*
D10*
X111675000Y-72000000D03*
X110325000Y-72000000D03*
D12*
X111000000Y-72250000D03*
%TD*%
D13*
%TO.C,C8*%
X86250000Y-75660000D03*
X86250000Y-77560000D03*
%TD*%
D14*
%TO.C,J1*%
X101900000Y-68500000D03*
D15*
X99360000Y-68500000D03*
%TD*%
D14*
%TO.C,J2*%
X95275000Y-68500000D03*
D15*
X92735000Y-68500000D03*
%TD*%
D16*
%TO.C,U3*%
X62862500Y-79540000D03*
X62862500Y-80490000D03*
X62862500Y-81440000D03*
X65137500Y-81440000D03*
X65137500Y-80490000D03*
X65137500Y-79540000D03*
%TD*%
D17*
%TO.C,R1*%
X75090000Y-76960000D03*
X76740000Y-76960000D03*
%TD*%
%TO.C,R2*%
X79300000Y-76940000D03*
X80950000Y-76940000D03*
%TD*%
D13*
%TO.C,C9*%
X86420000Y-80060000D03*
X86420000Y-81960000D03*
%TD*%
D16*
%TO.C,U2*%
X109842500Y-81290000D03*
X109842500Y-82240000D03*
X109842500Y-83190000D03*
X112117500Y-83190000D03*
X112117500Y-82240000D03*
X112117500Y-81290000D03*
%TD*%
D18*
%TO.C,C7*%
X102770000Y-79595000D03*
X102770000Y-78045000D03*
%TD*%
D19*
%TO.C,C10*%
X61450000Y-75795000D03*
X61450000Y-77345000D03*
%TD*%
%TO.C,C11*%
X106970000Y-85385000D03*
X106970000Y-86935000D03*
%TD*%
D14*
%TO.C,J3*%
X64970000Y-68500000D03*
D15*
X67510000Y-68500000D03*
X70050000Y-68500000D03*
X72590000Y-68500000D03*
X75130000Y-68500000D03*
X77670000Y-68500000D03*
X80210000Y-68500000D03*
X82750000Y-68500000D03*
X85290000Y-68500000D03*
X87830000Y-68500000D03*
%TD*%
D20*
%TO.C,J6*%
X114500000Y-71500000D03*
%TD*%
D21*
%TO.C,IC2*%
X101910000Y-84280000D03*
X102410000Y-84280000D03*
X102910000Y-84280000D03*
D22*
X103410000Y-84280000D03*
D21*
X103410000Y-82180000D03*
X102910000Y-82180000D03*
X102410000Y-82180000D03*
X101910000Y-82180000D03*
D23*
X102660000Y-83230000D03*
%TD*%
D20*
%TO.C,J7*%
X59500000Y-67500000D03*
%TD*%
D21*
%TO.C,IC1*%
X102190000Y-75830000D03*
X102690000Y-75830000D03*
X103190000Y-75830000D03*
X103690000Y-75830000D03*
X103690000Y-73730000D03*
X103190000Y-73730000D03*
X102690000Y-73730000D03*
X102190000Y-73730000D03*
D24*
X102940000Y-74780000D03*
%TD*%
D25*
%TO.C,U1*%
X61500000Y-72000000D03*
D26*
X64040000Y-72000000D03*
X66580000Y-72000000D03*
X69120000Y-72000000D03*
X71660000Y-72000000D03*
X74200000Y-72000000D03*
X76740000Y-72000000D03*
X79280000Y-72000000D03*
X81820000Y-72000000D03*
X84360000Y-72000000D03*
X86900000Y-72000000D03*
X89440000Y-72000000D03*
X91980000Y-72000000D03*
X94520000Y-72000000D03*
X97060000Y-72000000D03*
X97060000Y-87240000D03*
X94520000Y-87240000D03*
X91980000Y-87240000D03*
X89440000Y-87240000D03*
X86900000Y-87240000D03*
X84360000Y-87240000D03*
X81820000Y-87240000D03*
X79280000Y-87240000D03*
X76740000Y-87240000D03*
X74200000Y-87240000D03*
X71660000Y-87240000D03*
X69120000Y-87240000D03*
X66580000Y-87240000D03*
X64040000Y-87240000D03*
X61500000Y-87240000D03*
%TD*%
M02*
